<?xml version="1.0" standalone="no"?>
<!DOCTYPE svg PUBLIC "-//W3C//DTD SVG 20010904//EN"
 "http://www.w3.org/TR/2001/REC-SVG-20010904/DTD/svg10.dtd">
<svg version="1.0" xmlns="http://www.w3.org/2000/svg"
 width="120.000000pt" height="120.000000pt" viewBox="0 0 120.000000 120.000000"
 preserveAspectRatio="xMidYMid meet">
<metadata>
Created by potrace 1.11, written by Peter Selinger 2001-2013
</metadata>
<g transform="translate(0.000000,120.000000) scale(0.100000,-0.100000)"
fill="#000000" stroke="none">
<path d="M290 1070 c-82 -5 -89 -7 -187 -64 l-102 -59 0 -379 0 -378 22 11
c12 6 65 35 117 65 70 39 104 52 130 51 l35 -2 3 -93 c1 -50 5 -92 8 -92 3 0
52 27 110 61 l104 61 0 190 0 190 -42 -25 c-24 -13 -73 -42 -110 -63 l-68 -38
0 -68 0 -68 -44 0 -44 0 1 325 0 324 99 -1 c54 0 98 -2 98 -3 0 -2 -25 -17
-55 -34 l-55 -31 0 -96 0 -96 48 28 c26 15 75 43 109 63 l63 36 0 93 0 92 -32
1 c-18 0 -53 1 -78 2 -25 1 -83 0 -130 -3z"/>
<path d="M775 1025 c-38 -24 -76 -44 -82 -44 -7 -1 -13 -5 -13 -10 0 -5 -8
-12 -17 -15 -17 -5 -18 -33 -18 -385 l-1 -379 31 15 c102 52 185 107 186 121
0 10 0 76 1 147 l0 130 56 0 57 0 2 -233 c0 -129 3 -235 5 -238 3 -2 53 24
111 57 l107 62 0 408 c0 225 -3 409 -7 409 -5 0 -50 -25 -102 -55 -51 -30 -97
-55 -102 -55 -10 0 -10 -2 -12 -180 l-2 -115 -48 -5 c-26 -3 -51 -3 -56 0 -5
3 -9 82 -9 175 -1 228 -1 235 -9 234 -5 0 -39 -20 -78 -44z"/>
</g>
</svg>
