<?xml version="1.0" standalone="no"?>
<!DOCTYPE svg PUBLIC "-//W3C//DTD SVG 1.1//EN" "http://www.w3.org/Graphics/SVG/1.1/DTD/svg11.dtd" >
<svg xmlns="http://www.w3.org/2000/svg" xmlns:xlink="http://www.w3.org/1999/xlink" version="1.1">
<metadata>
Created by FontForge 20170731 at Fri May  9 22:42:39 2014
 By Aleksey,,,
Copyright (c)2014 Commercial Type.
</metadata>
<defs>
<font id="DrukWide-Medium" horiz-adv-x="700" >
  <font-face 
    font-family="Druk Wide Medium"
    font-weight="500"
    font-stretch="normal"
    units-per-em="1000"
    panose-1="0 0 0 0 0 0 0 0 0 0"
    ascent="812"
    descent="-188"
    x-height="538"
    cap-height="744"
    bbox="-114 -283 2497 1197"
    underline-thickness="131"
    underline-position="-280"
    unicode-range="U+0020-FB02"
  />
<missing-glyph horiz-adv-x="500" 
 />
    <glyph glyph-name="f_f" unicode="ff" horiz-adv-x="891" 
d="M334 0h-220v390h-103v148h103v64q0 142 187 142h161v-132h-86q-24 0 -33 -10t-9 -34v-30h189v64q0 142 187 142h162v-132h-87q-24 0 -33 -10t-9 -34v-30h129v-148h-129v-390h-220v390h-189v-390z" />
    <glyph glyph-name="f_i" unicode="fi" horiz-adv-x="790" 
d="M460 744v-132h-84q-24 0 -33 -10t-9 -34v-30h126v-148h-126v-390h-220v390h-103v148h103v64q0 142 187 142h159zM746 744v-154h-223v154h223zM746 538v-538h-223v538h223z" />
    <glyph glyph-name="f_l" unicode="fl" horiz-adv-x="790" 
d="M460 744v-132h-84q-24 0 -33 -10t-9 -34v-30h126v-148h-126v-390h-220v390h-103v148h103v64q0 142 187 142h159zM746 744v-744h-223v744h223z" />
    <glyph glyph-name="emdash.alt" unicode="&#x2014;&#x2014;" horiz-adv-x="2532" 
d="M2497 364v-130h-2462v130h2462z" />
    <glyph glyph-name=".notdef" horiz-adv-x="500" 
 />
    <glyph glyph-name=".null" horiz-adv-x="0" 
 />
    <glyph glyph-name="nonmarkingreturn" horiz-adv-x="333" 
 />
    <glyph glyph-name="space" unicode=" " horiz-adv-x="308" 
 />
    <glyph glyph-name="exclam" unicode="!" horiz-adv-x="314" 
d="M21 744h272l-69 -518h-134zM278 175v-175h-242v175h242z" />
    <glyph glyph-name="quotedbl" unicode="&#x22;" horiz-adv-x="479" 
d="M447 744v-247h-182v247h182zM214 744v-247h-182v247h182z" />
    <glyph glyph-name="numbersign" unicode="#" horiz-adv-x="772" 
d="M438 326l34 125h-140l-34 -125h140zM348 0l59 215h-140l-59 -215h-143l59 215h-124l30 111h124l35 125h-125l31 111h124l50 182h144l-50 -182h140l50 182h144l-50 -182h125l-31 -111h-125l-35 -125h127l-31 -111h-126l-60 -215h-143z" />
    <glyph glyph-name="dollar" unicode="$" horiz-adv-x="942" 
d="M256 538q0 -18 9.5 -30t46 -23t100.5 -14v135q-53 -1 -86.5 -7.5t-47.5 -17t-18 -19.5t-4 -23v-1zM689 227q0 35 -37.5 53.5t-146.5 21.5v-164q59 2 98.5 10.5t56.5 22t23 25.5t6 27v4zM505 -75h-93v62q-398 8 -398 266v11h235q0 -19 7 -36t23 -36t50 -33t83 -19v165
l-39 1q-349 12 -349 217v9q0 36 9 66t35 59.5t68 50t112.5 33t163.5 12.5v60h93v-60q114 -2 195 -22t123 -54.5t59.5 -72t17.5 -82.5v-10h-234q-5 82 -161 92v-137l44 -1q203 -7 289.5 -56t86.5 -160v-14q0 -41 -9 -74t-36.5 -67t-72.5 -56.5t-122 -37t-180 -14.5v-62z" />
    <glyph glyph-name="percent" unicode="%" horiz-adv-x="1404" 
d="M307 321q-69 0 -122 15t-82.5 37t-48 52t-24 55t-5.5 50v17q0 33 11 64.5t38.5 65.5t87.5 55t145 21h24q69 0 121.5 -14.5t82 -36t48 -51t24 -54t5.5 -50.5v-17q0 -33 -10.5 -64.5t-38 -66.5t-87 -56.5t-145.5 -21.5h-24zM1003 744h198l-802 -744h-197zM318 444
q69 0 101 26.5t32 63.5v8q0 88 -133 88q-131 0 -131 -88v-6q0 -39 31.5 -65.5t99.5 -26.5zM1098 -8h-25q-69 0 -121.5 15t-82 37.5t-48 52.5t-24.5 55t-6 50v17q0 25 6 50t24.5 54t48 51t82 36.5t121.5 14.5h25q85 0 144.5 -21t87 -55t38.5 -65.5t11 -64.5v-17
q0 -25 -5.5 -50t-24 -55t-47.5 -52.5t-82 -37.5t-122 -15zM1085 116q69 0 101 26.5t32 63.5v8q0 39 -31.5 63.5t-101.5 24.5q-132 0 -132 -88v-6q0 -39 31.5 -65.5t100.5 -26.5z" />
    <glyph glyph-name="ampersand" unicode="&#x26;" horiz-adv-x="1090" 
d="M367 577q0 -26 24.5 -49t88.5 -67q136 42 136 100q0 36 -28.5 54.5t-105.5 18.5q-66 0 -90.5 -14.5t-24.5 -42.5zM467 132q97 0 164 18l-300 195q-80 -30 -80 -95v-3q0 -48 53 -81.5t163 -33.5zM1038 -11q-140 0 -247 59q-132 -61 -317 -61q-461 0 -461 225v11
q0 146 230 180q-99 74 -99 167v8q0 29 6.5 52.5t26.5 48.5t53.5 42t91.5 28t137 11h53q308 0 308 -177v-5q0 -64 -55.5 -111t-187.5 -72l203 -137q50 81 50 193h219q-4 -163 -104 -282q59 -17 155 -17z" />
    <glyph glyph-name="quotesingle" unicode="'" horiz-adv-x="246" 
d="M214 744v-247h-182v247h182z" />
    <glyph glyph-name="parenleft" unicode="(" horiz-adv-x="330" 
d="M32 339q0 257 182 469h122q-124 -210 -124 -469q0 -260 124 -470h-122q-182 202 -182 470z" />
    <glyph glyph-name="parenright" unicode=")" horiz-adv-x="330" 
d="M-6 -131q124 210 124 470q0 259 -124 469h122q182 -212 182 -469q0 -268 -182 -470h-122z" />
    <glyph glyph-name="asterisk" unicode="*" horiz-adv-x="445" 
d="M268 629l98 82l61 -112l-130 -37l130 -38l-61 -111l-98 81l29 -116h-149l30 116l-97 -81l-63 111l128 38l-128 37l63 112l97 -82l-30 115h149z" />
    <glyph glyph-name="plus" unicode="+" horiz-adv-x="617" 
d="M582 239h-190v-176h-168v176h-189v138h189v176h168v-176h190v-138z" />
    <glyph glyph-name="comma" unicode="," horiz-adv-x="305" 
d="M226 -98h-127q31 59 37 98h-104v175h241v-145q0 -28 -14.5 -64.5t-32.5 -63.5z" />
    <glyph glyph-name="hyphen" unicode="-" horiz-adv-x="391" 
d="M35 383h321v-172h-321v172z" />
    <glyph glyph-name="period" unicode="." horiz-adv-x="305" 
d="M273 175v-175h-241v175h241z" />
    <glyph glyph-name="slash" unicode="/" horiz-adv-x="464" 
d="M477 808l-348 -939h-169l347 939h170z" />
    <glyph glyph-name="zero" unicode="0" horiz-adv-x="1096" 
d="M1072 389v-30q0 -46 -9 -89.5t-41 -97t-84 -92.5t-147 -66t-221 -27h-44q-126 0 -220.5 27t-146.5 66t-84 92.5t-41.5 97t-9.5 89.5v30q0 46 9.5 89.5t41.5 96.5t84 91t146.5 64.5t220.5 26.5h44q126 0 221 -26.5t147 -64.5t84 -91t41 -96.5t9 -89.5zM828 368v14
q0 35 -12.5 66.5t-41.5 61.5t-87 48t-139 18q-83 0 -141 -17.5t-86.5 -48t-40.5 -61.5t-12 -67v-12q0 -35 12.5 -67.5t41.5 -64t87 -50.5t139 -19t139 18.5t87 49.5t41.5 63t12.5 68z" />
    <glyph glyph-name="one" unicode="1" horiz-adv-x="479" 
d="M190 461h-173v140q91 6 142.5 42.5t79.5 100.5h182v-744h-231v461z" />
    <glyph glyph-name="two" unicode="2" horiz-adv-x="965" 
d="M934 0h-908v84q0 28 2 50.5t10 54t22.5 56.5t42 54t65 52t94.5 44.5t129 36.5l174 36q70 14 90 27t20 35q0 17 -11.5 28t-55 19.5t-120.5 8.5q-200 0 -206 -105h-243v8q0 32 6 61.5t31.5 69.5t68.5 68t124 48.5t191 20.5h40q102 0 178 -13t121.5 -33.5t73.5 -51t38 -62
t10 -69.5v-2q0 -46 -11 -77t-41 -60.5t-87.5 -50t-147.5 -35.5l-204 -34q-196 -35 -196 -93h471v96h229v-272z" />
    <glyph glyph-name="three" unicode="3" horiz-adv-x="966" 
d="M503 -13h-47q-83 0 -151.5 11.5t-113.5 30t-79 44t-52.5 50.5t-29.5 53.5t-14 48t-3 39.5v8h245q1 -10 3.5 -19t16 -28t34.5 -32t64.5 -23.5t100.5 -10.5q61 0 104.5 6t66 14.5t35.5 21t15.5 21t2.5 20.5q0 58 -104 58h-263v173h251q97 0 97 49q0 10 -3 17.5t-16 17
t-35.5 15.5t-64.5 10.5t-101 4.5q-53 0 -92.5 -7t-59 -15t-32 -22t-15 -20.5t-4.5 -16.5q-1 -3 -1 -4h-243v10q0 18 2.5 35t13 42.5t27.5 47t49.5 44.5t75.5 39t109.5 26.5t147.5 10.5h42q114 0 198.5 -12.5t130.5 -31.5t73 -46.5t34.5 -50.5t7.5 -51v-6q0 -53 -37 -85.5
t-82 -43.5q56 -15 99 -59.5t43 -122.5v-7q0 -254 -446 -254z" />
    <glyph glyph-name="four" unicode="4" horiz-adv-x="948" 
d="M10 295l524 452h251v-420h151v-173h-151v-154h-230v154h-545v141zM555 327v234l-273 -234h273z" />
    <glyph glyph-name="five" unicode="5" horiz-adv-x="930" 
d="M500 -13h-47q-77 0 -141 9.5t-106.5 25t-75.5 37t-51 43t-29.5 45.5t-15 42.5t-3.5 36.5v7h246q20 -74 199 -74q114 0 153 25.5t39 65.5v6q0 40 -39 65.5t-153 25.5q-172 0 -202 -60h-227v457h813v-173h-584v-133q8 8 23 16.5t45.5 22t82.5 22t114 8.5h9q107 0 180.5 -19
t112 -55.5t54 -78.5t15.5 -97v-6q0 -40 -10 -74.5t-37.5 -70.5t-72 -61.5t-119.5 -41.5t-173 -16z" />
    <glyph glyph-name="six" unicode="6" horiz-adv-x="986" 
d="M530 -15h-44q-110 0 -194 23t-133.5 59t-80.5 87t-41.5 100t-10.5 105v24q0 55 12 105t44 100.5t81 86.5t129.5 59t184.5 23h40q97 0 172.5 -15t120.5 -38.5t74 -55.5t40 -62t11 -62v-4h-240q-13 21 -28 31q-53 34 -170 34q-61 0 -107 -13.5t-70 -33t-38.5 -45
t-18.5 -44.5t-4 -38v-4q44 31 85 44q86 28 224 28h13q386 0 386 -230v-9q0 -37 -9 -69t-37.5 -67.5t-74.5 -60.5t-127 -41.5t-189 -16.5zM289 240q0 -15 9 -28.5t30.5 -27.5t67.5 -22t111 -8q216 0 216 83v4q0 16 -7.5 28.5t-28.5 26t-66.5 20.5t-113.5 7q-218 0 -218 -80
v-3z" />
    <glyph glyph-name="seven" unicode="7" horiz-adv-x="939" 
d="M32 744h889v-157q-4 -4 -31 -34t-46 -51.5t-50.5 -59t-57.5 -72.5q-78 -104 -99.5 -179.5t-21.5 -181.5v-9h-267v94q0 88 40 156t154 177q141 133 146 149h-420v-153h-236v321z" />
    <glyph glyph-name="eight" unicode="8" horiz-adv-x="962" 
d="M925 556v-10q0 -65 -49 -106t-103 -48q67 -11 119 -54.5t52 -112.5v-13q0 -30 -7.5 -56t-34.5 -59t-72.5 -56.5t-129.5 -39.5t-197 -16h-44q-442 0 -442 227v13q0 66 52.5 109.5t119.5 57.5q-59 10 -106.5 49.5t-47.5 104.5v10q0 18 2.5 33t12.5 36.5t27 38.5t49 35
t75.5 30.5t109.5 20t148 7.5h44q113 0 195 -15t124.5 -35.5t67 -50.5t30 -52t5.5 -48zM684 535v3q0 10 -2.5 18t-14.5 18.5t-32.5 17t-60 11.5t-94.5 5t-94.5 -5t-60 -11.5t-32 -17t-14 -18t-2.5 -18.5v-3q0 -11 3 -19t14.5 -18.5t32.5 -17.5t60 -12t93 -5t93.5 5t60.5 12
t33 17.5t14.5 18.5t2.5 19zM704 226v3q0 16 -6.5 27t-27.5 23t-69 18.5t-121 6.5q-74 0 -121.5 -6.5t-68 -18.5t-27 -23t-6.5 -27v-3q0 -11 3.5 -20.5t16.5 -20.5t36 -19t66 -13t101 -5q59 0 102 5.5t66 13t36 18.5t16.5 20t3.5 21z" />
    <glyph glyph-name="nine" unicode="9" horiz-adv-x="986" 
d="M697 505q0 82 -218 82q-215 0 -215 -82v-3q0 -84 215 -84q218 0 218 84v3zM475 -15q-95 0 -170.5 15t-122 39t-77 55.5t-42.5 62t-12 61.5v4h241q24 -65 198 -65q61 0 106.5 13.5t69.5 33t38.5 45t18.5 44.5t4 38v3q-15 -11 -19.5 -14t-33 -17t-56 -20.5t-78 -13.5
t-109.5 -7h-13q-91 0 -161.5 13t-114.5 34t-72.5 51.5t-39.5 63t-11 69.5v9q0 38 7.5 69.5t34.5 67.5t72.5 60.5t127 41t192.5 16.5h44q464 0 464 -374v-24q0 -57 -11 -106.5t-42 -100t-79.5 -86.5t-128.5 -58.5t-185 -22.5h-40z" />
    <glyph glyph-name="colon" unicode=":" horiz-adv-x="307" 
d="M274 484v-175h-241v175h241zM274 175v-175h-241v175h241z" />
    <glyph glyph-name="semicolon" unicode=";" horiz-adv-x="307" 
d="M274 484v-175h-241v175h241zM227 -98h-127q31 59 37 98h-104v175h241v-145q0 -28 -14.5 -64.5t-32.5 -63.5z" />
    <glyph glyph-name="less" unicode="&#x3c;" horiz-adv-x="539" 
d="M501 68l-466 155v159l466 157v-152l-316 -85l316 -83v-151z" />
    <glyph glyph-name="equal" unicode="=" horiz-adv-x="586" 
d="M40 472h506v-128h-506v128zM40 274h506v-127h-506v127z" />
    <glyph glyph-name="greater" unicode="&#x3e;" horiz-adv-x="539" 
d="M38 68v151l316 83l-316 85v152l466 -157v-159z" />
    <glyph glyph-name="question" unicode="?" horiz-adv-x="845" 
d="M487 241h-228v75q0 57 31.5 88t129.5 56l84 21q57 15 75 29t18 34q0 16 -7 25.5t-46.5 18t-114.5 8.5q-43 0 -76 -4.5t-52 -13.5t-31 -17t-17 -21.5t-6 -19t-2 -17.5h-228v12q0 25 1.5 42.5t9.5 44.5t22.5 46t43 40t68 34.5t101 22t138.5 8.5h56q371 0 371 -207v-7
q0 -74 -45 -123.5t-147 -75.5l-83 -22q-44 -11 -55 -25t-11 -45v-7zM497 175v-175h-241v175h241z" />
    <glyph glyph-name="at" unicode="@" horiz-adv-x="1323" 
d="M672 -161q-154 0 -271.5 26t-187.5 67.5t-114 102.5t-59.5 122t-15.5 134v12q0 76 18 139t62.5 120t114.5 96t180.5 62t253.5 23h13q100 0 184 -9t144.5 -23t109 -37t80 -45t54 -53t34 -55.5t18 -58.5t8 -55.5t1.5 -51.5v-11q0 -57 -16 -107.5t-51.5 -97t-102.5 -74
t-159 -27.5h-17q-130 0 -170 77q-77 -77 -218 -77h-15q-73 0 -127 23.5t-81.5 61.5t-38 81.5t-4.5 89.5l7 50q9 82 69.5 140t171.5 58h15q155 0 243 -81l9 69h220l-45 -356q-4 -39 35 -39q58 0 96 57.5t38 156.5v3q0 37 -1.5 59t-11.5 56t-28 54.5t-54 45.5t-87.5 38.5
t-130 23t-179.5 9.5h-13q-116 0 -201.5 -17t-138 -45.5t-84.5 -72.5t-43.5 -92t-11.5 -110v-12q0 -72 21 -129t73 -107.5t154 -78.5t250 -28q329 0 488 81l38 -108q-157 -80 -526 -80zM785 282l2 19q5 47 -32 76.5t-108 29.5q-117 0 -128 -97l-2 -18q-6 -46 22.5 -81.5
t96.5 -35.5q136 0 149 107z" />
    <glyph glyph-name="A" unicode="A" horiz-adv-x="1038" 
d="M650 304l-144 279l-138 -279h282zM806 0l-70 136h-451l-67 -136h-237l376 744h302l398 -744h-251z" />
    <glyph glyph-name="B" unicode="B" horiz-adv-x="1019" 
d="M54 0v744h637q148 0 210 -47.5t62 -122.5v-14q0 -34 -13 -61.5t-33 -44t-37.5 -25.5t-34.5 -14q24 -6 47.5 -17t51 -32t44.5 -56.5t17 -81.5v-14q0 -214 -308 -214h-643zM651 587h-364v-121h364q81 0 81 60v2q0 59 -81 59zM671 308h-384v-146h384q92 0 92 73v4
q0 69 -92 69z" />
    <glyph glyph-name="C" unicode="C" horiz-adv-x="1083" 
d="M563 -13h-41q-89 0 -163 14t-124.5 36.5t-89.5 54.5t-61 65t-36.5 71t-19 69t-4.5 63v29q0 47 9 90.5t40.5 96.5t83 91t146 64t219.5 26h41q103 0 186 -15.5t135 -41.5t89 -56.5t55 -65.5t25.5 -62t7.5 -52v-11h-247q-4 12 -8 21.5t-22.5 30.5t-45 35t-78 25.5
t-118.5 11.5q-80 0 -136.5 -16.5t-85 -45.5t-40.5 -61t-12 -70v-12q0 -36 13.5 -69t42.5 -65t86 -51t134 -19q232 0 271 132h247v-11q0 -27 -8 -55.5t-26.5 -64.5t-56 -67t-89.5 -57.5t-134.5 -42t-184.5 -15.5z" />
    <glyph glyph-name="D" unicode="D" horiz-adv-x="1092" 
d="M54 0v744h493q104 0 188 -14t140 -40.5t96 -59t61 -73.5t30.5 -80.5t9.5 -84.5v-30q0 -53 -12 -100t-47.5 -96.5t-91.5 -85t-152 -58t-221 -22.5h-494zM287 568v-389h242q299 0 299 192v6q0 191 -299 191h-242z" />
    <glyph glyph-name="E" unicode="E" horiz-adv-x="885" 
d="M54 744h784v-169h-554v-110h541v-170h-541v-122h564v-173h-794v744z" />
    <glyph glyph-name="F" unicode="F" horiz-adv-x="861" 
d="M54 744h769v-169h-537v-110h524v-170h-524v-295h-232v744z" />
    <glyph glyph-name="G" unicode="G" horiz-adv-x="1115" 
d="M541 -13h-21q-116 0 -206 25t-143.5 63.5t-87.5 90t-46.5 99t-12.5 96.5v28q0 49 10.5 94.5t44 97t86.5 89t146.5 62.5t216.5 25h43q119 0 210.5 -20t142.5 -49.5t84 -70t43.5 -74t12.5 -68.5v-1h-248q-37 106 -265 106q-283 0 -283 -201v-11q0 -82 69.5 -141t211.5 -59
q63 0 115 9t83 22.5t52.5 29t29.5 27t8 18.5v2h-292v141h524v-417h-140q-7 60 -30 116q-15 -19 -38 -37t-64.5 -41t-108 -37t-147.5 -14z" />
    <glyph glyph-name="H" unicode="H" horiz-adv-x="1074" 
d="M54 0v744h233v-271h500v271h233v-744h-233v293h-500v-293h-233z" />
    <glyph glyph-name="I" unicode="I" horiz-adv-x="341" 
d="M287 744v-744h-233v744h233z" />
    <glyph glyph-name="J" unicode="J" horiz-adv-x="890" 
d="M399 -11q-89 0 -159.5 20t-114 52.5t-71.5 75.5t-39 86t-11 88v6h236q1 -15 4 -28t14.5 -36t29 -39t52 -28t80.5 -12h12q89 0 134 48.5t45 135.5v386h234v-392q0 -50 -9.5 -97t-36.5 -97t-69 -86t-113 -59.5t-162 -23.5h-56z" />
    <glyph glyph-name="K" unicode="K" horiz-adv-x="962" 
d="M287 0h-233v744h233v-310l381 310h296l-428 -340l448 -404h-304l-393 351v-351z" />
    <glyph glyph-name="L" unicode="L" horiz-adv-x="830" 
d="M54 744h233v-559h517v-185h-750v744z" />
    <glyph glyph-name="M" unicode="M" horiz-adv-x="1273" 
d="M54 0v744h331l257 -463l258 463h319v-744h-230v515l-293 -515h-125l-293 515v-515h-224z" />
    <glyph glyph-name="N" unicode="N" horiz-adv-x="1073" 
d="M54 744h260l475 -468v468h230v-744h-230l-505 493v-493h-230v744z" />
    <glyph glyph-name="O" unicode="O" horiz-adv-x="1138" 
d="M548 757h43q97 0 176 -13.5t132.5 -35.5t93.5 -54t62.5 -64t36.5 -70t18 -68t4 -63v-30q0 -32 -4 -62t-18 -68.5t-36 -71t-62.5 -65t-93.5 -55t-132.5 -36.5t-176.5 -14h-43q-97 0 -177 14t-133 36.5t-93.5 55t-63 65t-36 71t-17.5 68.5t-4 62v30q0 33 4 62.5t17.5 68
t36 70.5t62.5 64t93.5 54t133.5 35.5t177 13.5zM870 382q0 28 -7 53.5t-27 52t-52 45.5t-87.5 31.5t-127.5 12.5q-301 0 -301 -195v-12q0 -36 12.5 -68t43 -64t93.5 -51t152 -19t151.5 18.5t93.5 50t43.5 63.5t12.5 68v14z" />
    <glyph glyph-name="P" unicode="P" horiz-adv-x="976" 
d="M612 248h-325v-248h-233v744h558q347 0 347 -242v-10q0 -244 -347 -244zM287 575v-160h321q108 0 108 78v3q0 79 -108 79h-321z" />
    <glyph glyph-name="Q" unicode="Q" horiz-adv-x="1137" 
d="M480 -155v144q-115 6 -201.5 35.5t-133.5 67.5t-76 89.5t-37 92.5t-8 85v30q0 33 4 63t18 68.5t36.5 70.5t62.5 63.5t93.5 53.5t133 35.5t176.5 13.5h43q133 0 232 -26t153 -64t87 -91t42 -96t9 -91v-30q0 -43 -7.5 -82.5t-33.5 -89t-68.5 -87t-120.5 -68t-182 -40.5
l116 -147h-338zM870 382q0 37 -12.5 68.5t-43 61.5t-93 47.5t-152.5 17.5q-301 0 -301 -195v-12q0 -37 12.5 -69.5t43 -64t93.5 -50t152 -18.5t151.5 18t93.5 49.5t43.5 63.5t12.5 69v14z" />
    <glyph glyph-name="R" unicode="R" horiz-adv-x="1012" 
d="M287 575v-146h353q47 0 70.5 20t23.5 53v1q0 32 -23 52t-71 20h-353zM287 264v-264h-233v744h600q323 0 323 -193v-12q0 -37 -14 -67.5t-37.5 -49t-44 -29t-42.5 -17.5q62 -16 101.5 -60t39.5 -111v-109q0 -63 14 -91v-5h-237q-11 14 -11 47v86q0 69 -35 100t-120 31
h-304z" />
    <glyph glyph-name="S" unicode="S" horiz-adv-x="975" 
d="M451 -13q-111 0 -194 19t-128 46t-71.5 65.5t-34 69.5t-7.5 66v11h243q8 -118 221 -118h14q70 0 116 6.5t67 18.5t28 24.5t7 29.5q0 24 -12 38t-56 24.5t-127 12.5l-128 3q-363 10 -363 218v9q0 46 16.5 83t58 71.5t125.5 53.5t205 19h69q102 0 180 -14t124.5 -36t76 -54
t40.5 -63.5t11 -67.5v-10h-242q-12 89 -215 89h-16q-84 0 -129 -10.5t-54.5 -22.5t-9.5 -31q0 -18 10 -30.5t50 -22.5t112 -11l125 -2q209 -4 301 -56.5t92 -164.5v-14q0 -41 -9 -73.5t-37 -66.5t-74.5 -57t-127 -37.5t-188.5 -14.5h-69z" />
    <glyph glyph-name="T" unicode="T" horiz-adv-x="926" 
d="M345 0v568h-320v176h876v-176h-321v-568h-235z" />
    <glyph glyph-name="U" unicode="U" horiz-adv-x="1047" 
d="M545 -11h-36q-83 0 -151.5 14.5t-115.5 38.5t-83 58t-57 69t-34.5 75t-18 73t-4.5 66v361h234v-347q0 -40 10.5 -74.5t35.5 -68t76.5 -53t123.5 -19.5q71 0 121.5 19.5t76 53t36 68t10.5 74.5v347h233v-361q0 -48 -10.5 -95.5t-41 -103t-79 -97.5t-133 -70t-193.5 -28z
" />
    <glyph glyph-name="V" unicode="V" horiz-adv-x="1007" 
d="M662 0h-290l-387 744h264l274 -547l257 547h242z" />
    <glyph glyph-name="W" unicode="W" horiz-adv-x="1417" 
d="M548 0h-257l-306 744h254l192 -512l166 512h248l170 -497l188 497h229l-301 -744h-235l-179 498z" />
    <glyph glyph-name="X" unicode="X" horiz-adv-x="1008" 
d="M274 0h-287l370 376l-362 368h312l210 -218l210 218h286l-357 -363l365 -381h-293l-228 231z" />
    <glyph glyph-name="Y" unicode="Y" horiz-adv-x="968" 
d="M373 0v288l-398 456h289l231 -274l235 274h263l-387 -456v-288h-233z" />
    <glyph glyph-name="Z" unicode="Z" horiz-adv-x="907" 
d="M39 744h830v-136l-510 -432h517v-176h-845v137l497 435h-489v172z" />
    <glyph glyph-name="bracketleft" unicode="[" horiz-adv-x="344" 
d="M54 -131v939h279v-110h-107v-718h107v-111h-279z" />
    <glyph glyph-name="backslash" unicode="\" horiz-adv-x="464" 
d="M336 -131l-349 939h171l346 -939h-168z" />
    <glyph glyph-name="bracketright" unicode="]" horiz-adv-x="344" 
d="M11 -131v111h107v718h-107v110h279v-939h-279z" />
    <glyph glyph-name="asciicircum" unicode="^" horiz-adv-x="696" 
d="M494 428l-145 189l-145 -189h-204l240 316h216l240 -316h-202z" />
    <glyph glyph-name="underscore" unicode="_" horiz-adv-x="815" 
d="M0 -151v131h815v-131h-815z" />
    <glyph glyph-name="grave" unicode="`" 
d="M511 590h-215l-107 154h232z" />
    <glyph glyph-name="a" unicode="a" horiz-adv-x="794" 
d="M519 239v17l-213 -33q-44 -7 -62.5 -17.5t-18.5 -32.5v-1q0 -25 23 -43t75 -18q86 0 141 38.5t55 89.5zM525 74q-75 -84 -249 -84h-13q-127 0 -188.5 50t-61.5 126v7q0 74 52.5 112t173.5 49l246 23q34 3 34 28q0 13 -7 21t-40 15.5t-93 7.5h-5q-47 0 -77.5 -6.5
t-43 -17.5t-16 -18.5t-4.5 -17.5h-207v2q0 26 4 46.5t23 47.5t51 45t94.5 30.5t148.5 12.5h55q90 0 154 -11t98 -27t53 -41.5t23 -45.5t4 -49v-206q0 -27 28 -27h29v-146h-181q-33 0 -56 19t-29 55z" />
    <glyph glyph-name="b" unicode="b" horiz-adv-x="906" 
d="M44 744h223v-281q107 88 269 88h18q172 0 250.5 -74.5t78.5 -195.5v-19q0 -119 -83.5 -197t-252.5 -78h-17q-70 0 -132 19t-89.5 36.5t-44.5 33.5q-10 -31 -14 -76h-206v744zM267 273v-4q0 -55 51.5 -97.5t142.5 -42.5h6q99 0 143.5 41.5t44.5 98.5v4q0 60 -44 99.5
t-144 39.5h-6q-94 0 -144 -41t-50 -98z" />
    <glyph glyph-name="c" unicode="c" horiz-adv-x="844" 
d="M449 -15h-55q-88 0 -156.5 17.5t-108.5 45t-66 65.5t-35 74t-9 75v20q0 39 9 74.5t34.5 72.5t66 63.5t108.5 43.5t156 17h57q80 0 144 -12t103.5 -33t67 -45t40.5 -52t18 -50t5 -43v-3h-229q-23 97 -178 97h-3q-90 0 -130.5 -37.5t-40.5 -95.5v-7q0 -61 40.5 -102.5
t130.5 -41.5h3q52 0 89.5 11.5t55 30.5t24.5 32t9 25h229v-2q0 -28 -6 -54.5t-29 -62t-61.5 -61t-111.5 -44t-171 -18.5z" />
    <glyph glyph-name="d" unicode="d" horiz-adv-x="903" 
d="M635 268v4q0 56 -55 97t-149 41h-5q-97 0 -138 -39t-41 -99v-4q0 -56 45 -97.5t136 -41.5h5q94 0 148 41.5t54 97.5zM635 744h224v-744h-222v82q-8 -11 -24.5 -24t-48 -30.5t-82.5 -29t-111 -11.5h-13q-170 0 -254.5 77.5t-84.5 199.5v19q0 118 80 193t250 75h16
q173 0 270 -85v278z" />
    <glyph glyph-name="e" unicode="e" horiz-adv-x="845" 
d="M421 428q-152 0 -179 -91h360q-22 91 -180 91h-1zM824 189q0 -25 -7 -49.5t-31 -53.5t-62 -50.5t-107.5 -36t-161.5 -14.5h-57q-104 0 -180 22.5t-118 62.5t-61.5 87t-19.5 103v22q0 55 18 101t58.5 85.5t116 62t180.5 22.5h61q374 0 374 -290v-37h-589q22 -105 190 -105
h1q42 0 74.5 6t50.5 14t29.5 18.5t15.5 17.5t5 13h220v-1z" />
    <glyph glyph-name="f" unicode="f" horiz-adv-x="482" 
d="M463 744v-132h-87q-24 0 -33 -10t-9 -34v-30h129v-148h-129v-390h-220v390h-103v148h103v64q0 142 187 142h162z" />
    <glyph glyph-name="g" unicode="g" horiz-adv-x="911" 
d="M436 411h-6q-100 0 -142 -34t-42 -86v-5q0 -52 44.5 -88.5t139.5 -36.5h6q100 0 151.5 36.5t51.5 87.5v4q0 52 -52 87t-151 35zM489 -195h-71q-96 0 -167.5 16.5t-108 38.5t-58.5 51.5t-27 48.5t-5 37v3h225q7 -50 172 -50h3q192 0 192 155q-88 -81 -262 -81h-12
q-179 0 -265 72t-86 185v20q0 108 78 179t245 71h21q189 0 280 -85v72h224v-440q0 -35 -7 -69t-31.5 -76t-63.5 -73.5t-110.5 -53t-165.5 -21.5z" />
    <glyph glyph-name="h" unicode="h" horiz-adv-x="843" 
d="M44 0v744h223v-296q106 102 265 102h7q130 0 196 -61.5t66 -148.5v-340h-225v266q0 63 -36 98.5t-108 35.5q-75 0 -120 -40t-45 -106v-254h-223z" />
    <glyph glyph-name="i" unicode="i" horiz-adv-x="311" 
d="M267 744v-154h-223v154h223zM267 538v-538h-223v538h223z" />
    <glyph glyph-name="j" unicode="j" horiz-adv-x="311" 
d="M267 744v-154h-223v154h223zM-29 -31h41q17 0 24.5 8t7.5 30v531h223v-587q0 -71 -28 -105t-74 -34h-194v157z" />
    <glyph glyph-name="k" unicode="k" horiz-adv-x="745" 
d="M267 0h-223v744h223v-421l218 215h247l-254 -243l285 -295h-262l-234 247v-247z" />
    <glyph glyph-name="l" unicode="l" horiz-adv-x="311" 
d="M267 744v-744h-223v744h223z" />
    <glyph glyph-name="m" unicode="m" horiz-adv-x="1312" 
d="M267 0h-223v538h221v-93q97 105 256 105h7q156 0 215 -107q112 107 271 107h8q124 0 186 -62t62 -148v-340h-225v266q0 134 -122 134q-70 0 -112 -41t-42 -105v-254h-225v266q0 62 -30 98t-93 36q-70 0 -112 -41t-42 -105v-254z" />
    <glyph glyph-name="n" unicode="n" horiz-adv-x="843" 
d="M44 0v538h221v-92q108 104 267 104h7q131 0 196.5 -61.5t65.5 -148.5v-340h-225v266q0 63 -36 98.5t-108 35.5q-75 0 -120 -40t-45 -106v-254h-223z" />
    <glyph glyph-name="o" unicode="o" horiz-adv-x="880" 
d="M406 -15q-90 0 -159.5 17t-111.5 44.5t-69 65t-37 74t-10 77.5v18q0 40 10 76t36.5 73t68.5 63.5t111.5 43t159.5 16.5h71q385 0 385 -272v-18q0 -42 -7.5 -77t-32.5 -74t-65.5 -65.5t-112 -44t-167.5 -17.5h-70zM441 130q104 0 149 41t45 98v5q0 58 -45 97t-148 39h-1
q-105 0 -149.5 -38.5t-44.5 -97.5v-5q0 -57 45 -98t149 -41z" />
    <glyph glyph-name="p" unicode="p" horiz-adv-x="902" 
d="M267 273v-4q0 -56 51.5 -98t147.5 -42h5q99 0 141.5 41t42.5 99v4q0 61 -42 100t-142 39h-5q-98 0 -148.5 -40.5t-50.5 -98.5zM44 538h223v-77q13 12 31 23.5t51.5 28.5t83.5 27.5t107 10.5h18q89 0 153.5 -21t101 -59t53.5 -85t17 -105v-19q0 -118 -80 -196.5
t-252 -78.5h-16q-73 0 -136 19.5t-90.5 37t-41.5 32.5v-264h-223v726z" />
    <glyph glyph-name="q" unicode="q" horiz-adv-x="902" 
d="M656 538h202v-726h-223v262q-15 -17 -39.5 -34t-85.5 -35t-138 -18h-8q-177 0 -261 77.5t-84 199.5v19q0 118 81 193t252 75h14q169 0 271 -86q15 33 19 73zM635 269v4q0 56 -54.5 96.5t-149.5 40.5h-5q-97 0 -138 -39t-41 -99v-4q0 -57 43.5 -98.5t137.5 -41.5h5
q95 0 148.5 42.5t53.5 98.5z" />
    <glyph glyph-name="r" unicode="r" horiz-adv-x="729" 
d="M267 278v-278h-223v538h221v-95q10 15 24.5 30t40.5 34t66 31t87 12h11q112 0 165.5 -65t53.5 -175v-31h-215q0 57 -27.5 93t-86.5 36h-1q-54 0 -85 -37.5t-31 -92.5z" />
    <glyph glyph-name="s" unicode="s" horiz-adv-x="773" 
d="M360 -15q-346 0 -346 191v6h230q4 -73 138 -73h2q58 0 90.5 8t40.5 18t8 25v2q0 23 -22.5 34.5t-95.5 12.5l-96 2q-290 7 -290 168v6q0 27 6.5 49t28.5 45t58 38.5t99 25.5t148 10h40q337 0 337 -169v-7h-227q-5 55 -133 55h-1q-76 0 -102 -9.5t-26 -30.5v-2
q0 -20 23.5 -31t89.5 -12l96 -2q121 -2 188 -23t89.5 -54.5t22.5 -91.5v-6q0 -41 -14.5 -71.5t-51 -57.5t-109.5 -41.5t-180 -14.5h-41z" />
    <glyph glyph-name="t" unicode="t" horiz-adv-x="468" 
d="M442 0h-193q-133 0 -133 153v237h-105v148h105v157h220v-157h106v-148h-106v-195q0 -24 9 -35.5t36 -11.5h61v-148z" />
    <glyph glyph-name="u" unicode="u" horiz-adv-x="832" 
d="M788 538v-538h-221v93q-17 -16 -23 -21.5t-34.5 -25.5t-53 -29.5t-65.5 -19t-85 -9.5h-8q-128 0 -192 64.5t-64 150.5v335h225v-266q0 -62 35 -98t103 -36q72 0 116 40t44 106v254h223z" />
    <glyph glyph-name="v" unicode="v" horiz-adv-x="777" 
d="M260 0l-274 538h240l173 -368l168 368h224l-263 -538h-268z" />
    <glyph glyph-name="w" unicode="w" horiz-adv-x="1136" 
d="M441 0h-231l-223 538h232l123 -344l121 344h234l125 -344l119 344h208l-208 -538h-236l-132 356z" />
    <glyph glyph-name="x" unicode="x" horiz-adv-x="785" 
d="M234 0h-248l281 273l-272 265h263l141 -141l141 141h250l-270 -261l279 -277h-252l-158 154z" />
    <glyph glyph-name="y" unicode="y" horiz-adv-x="777" 
d="M116 -188v160h126q26 0 26 17q0 9 -25 57l-257 492h240l173 -364l168 364h224l-282 -574q-39 -80 -83.5 -116t-114.5 -36h-195z" />
    <glyph glyph-name="z" unicode="z" horiz-adv-x="718" 
d="M697 0h-676v130l365 263h-365v145h674v-125l-382 -264h384v-149z" />
    <glyph glyph-name="braceleft" unicode="{" horiz-adv-x="359" 
d="M348 -131h-125q-176 0 -176 114q0 45 42.5 139.5t42.5 116.5q0 46 -45 46h-63v112h63q45 0 45 38q0 24 -42.5 116t-42.5 136q0 121 176 121h125v-110h-77q-44 0 -44 -39q0 -22 32.5 -102.5t32.5 -111.5q0 -42 -22 -66.5t-73 -36.5q51 -11 73 -32.5t22 -57.5
q0 -34 -32.5 -119t-32.5 -106q0 -47 52 -47h69v-111z" />
    <glyph glyph-name="bar" unicode="|" horiz-adv-x="375" 
d="M268 808v-939h-161v939h161z" />
    <glyph glyph-name="braceright" unicode="}" horiz-adv-x="359" 
d="M11 -131v111h69q52 0 52 47q0 21 -32 106t-32 119q0 36 21.5 57.5t72.5 32.5q-51 12 -72.5 36.5t-21.5 66.5q0 31 32 111.5t32 102.5q0 39 -44 39h-77v110h125q176 0 176 -121q0 -44 -42.5 -136t-42.5 -116q0 -38 45 -38h63v-112h-63q-45 0 -45 -46q0 -22 42.5 -116.5
t42.5 -139.5q0 -114 -176 -114h-125z" />
    <glyph glyph-name="asciitilde" unicode="~" horiz-adv-x="666" 
d="M501 258q-36 0 -69 9t-53.5 18.5t-72.5 36.5q-66 35 -88 35q-27 0 -27 -33v-86h-167v130q0 66 33.5 112.5t111.5 46.5q35 0 70 -10t51.5 -18t68.5 -35q75 -39 91 -39q25 0 25 32v92h167v-153q0 -57 -34 -97.5t-107 -40.5z" />
    <glyph glyph-name="exclamdown" unicode="&#xa1;" horiz-adv-x="314" 
d="M293 -206h-272l69 518h134zM36 363v175h242v-175h-242z" />
    <glyph glyph-name="cent" unicode="&#xa2;" horiz-adv-x="851" 
d="M474 -77h-100v62q-83 2 -147.5 20.5t-103 46t-63 65t-33 72.5t-8.5 73v20q0 38 8.5 72.5t33 71t62.5 63.5t102.5 44.5t148.5 19.5v62h100v-62q91 -1 160 -19.5t106 -44t59.5 -59.5t29 -60t6.5 -52v-3h-228q-21 81 -133 94v-278q38 5 66 17t41 29t18.5 28t7.5 22h228v-2
q0 -19 -2.5 -36.5t-12 -42t-24.5 -45.5t-42.5 -42.5t-64.5 -37t-92 -25.5t-123 -11v-62zM247 272q0 -53 30.5 -92t96.5 -49v278q-67 -9 -97 -44.5t-30 -85.5v-7z" />
    <glyph glyph-name="sterling" unicode="&#xa3;" horiz-adv-x="902" 
d="M874 258v-258h-859v157h51q104 0 104 73v3q0 29 -20 85h-135v107h96q-16 55 -16 94v7q0 43 16 80.5t53 72t110.5 54.5t176.5 20h41q72 0 130 -10t95.5 -25t65 -38.5t41.5 -44.5t22.5 -49.5t10 -47.5t1.5 -44v-8h-231q-9 110 -150 110q-155 0 -155 -116q0 -21 8 -55h348
v-107h-325q5 -28 5 -48q0 -75 -69 -113h348v101h237z" />
    <glyph glyph-name="yen" unicode="&#xa5;" horiz-adv-x="943" 
d="M359 0v154h-267v88h267v55h-267v88h201l-318 359h287l220 -259l224 259h262l-308 -359h201v-88h-267v-55h267v-88h-267v-154h-235z" />
    <glyph glyph-name="brokenbar" unicode="&#xa6;" horiz-adv-x="375" 
d="M268 808v-422h-161v422h161zM268 326v-457h-161v457h161z" />
    <glyph glyph-name="section" unicode="&#xa7;" horiz-adv-x="906" 
d="M624 188q38 22 38 63q0 29 -21.5 48t-75.5 27q-239 37 -288 50q-37 -18 -37 -63q0 -29 21.5 -48t77.5 -28q255 -41 285 -49zM477 -209h-42q-390 0 -390 226v3h229q1 -17 6.5 -29.5t22 -29t55.5 -26t97 -9.5h7q139 0 139 54v2q0 25 -20.5 40t-94.5 27l-195 30
q-153 23 -215.5 74t-62.5 126v9q0 55 38.5 89t99.5 48q-80 44 -80 141v10q0 59 30.5 97.5t113.5 62t222 23.5h41q94 0 163.5 -13.5t107 -33t59.5 -49.5t28 -55.5t6 -57.5v-3h-228q-7 80 -158 80h-8q-64 0 -99 -7t-43.5 -17t-8.5 -26v-2q0 -23 22 -36.5t96 -25.5l199 -28
q156 -22 215.5 -68t59.5 -124v-10q0 -106 -136 -144q77 -44 77 -137v-10q0 -201 -353 -201z" />
    <glyph glyph-name="dieresis" unicode="&#xa8;" 
d="M590 744v-154h-216v154h216zM324 744v-154h-215v154h215z" />
    <glyph glyph-name="copyright" unicode="&#xa9;" horiz-adv-x="1159" 
d="M595 -11h-31q-540 0 -540 370v28q0 60 14.5 111t52 99.5t97 82.5t156 54.5t221.5 20.5h29q125 0 221.5 -20.5t156 -54.5t97 -82.5t52 -99.5t14.5 -111v-28q0 -370 -540 -370zM148 366q0 -59 20.5 -107.5t66 -90t130 -65t202.5 -23.5h25q118 0 202.5 23.5t130 65t66 90
t20.5 107.5v12q0 65 -20 114t-66 89.5t-130 61.5t-203 21h-25q-119 0 -203 -21t-130 -61.5t-66 -89.5t-20 -114v-12zM596 147h-26q-68 0 -122 10.5t-88 28.5t-58 39.5t-35.5 48t-16.5 48.5t-5 45v17q0 24 4.5 45.5t16 47.5t35 46.5t57.5 38.5t88.5 28t123.5 10h26
q84 0 147 -14t95.5 -34t52 -47.5t24 -47t4.5 -40.5v-5h-191q-19 70 -146 70q-86 0 -118.5 -27t-32.5 -74v-8q0 -45 34 -76.5t118 -31.5q127 0 145 77h192v-6q0 -22 -5 -42.5t-25 -48.5t-52.5 -48.5t-95 -35t-146.5 -14.5z" />
    <glyph glyph-name="ordfeminine" unicode="&#xaa;" horiz-adv-x="563" 
d="M232 466q55 0 87.5 24.5t32.5 57.5v6l-129 -20q-50 -8 -50 -34q0 -34 59 -34zM366 440q-53 -61 -170 -61h-9q-90 0 -131 33t-41 84v5q0 94 166 109l152 14q19 1 19 16q0 26 -84 26h-8q-37 0 -56.5 -7t-22.5 -13t-4 -16h-153v2q0 23 5.5 39.5t25 37t67.5 31.5t122 11h39
q74 0 122.5 -10t69.5 -28t28 -35t7 -40v-132q0 -18 18 -18h20v-102h-125q-51 0 -57 54z" />
    <glyph glyph-name="guillemotleft" unicode="&#xab;" horiz-adv-x="534" 
d="M177 287l119 -170h-161l-124 170l125 168h163zM401 287l114 -170h-161l-119 170l123 168h163z" />
    <glyph glyph-name="registered" unicode="&#xae;" horiz-adv-x="644" 
d="M307 754h34q69 0 121.5 -12.5t83 -32.5t50 -47.5t26.5 -53.5t7 -55v-14q0 -37 -15.5 -70.5t-47.5 -63.5t-90.5 -48t-136.5 -18h-32q-84 0 -144 18t-90.5 48.5t-44 63t-13.5 70.5v15q0 28 7 54t27 53.5t51.5 47.5t84.5 32.5t122 12.5zM325 396q59 0 102.5 9.5t67.5 24.5
t38 36.5t18 41t4 43.5q0 29 -7.5 51.5t-29.5 45.5t-71 36t-122 13h-2q-75 0 -124.5 -12.5t-72 -36t-30 -46.5t-7.5 -55q0 -31 8 -54t30 -47t71.5 -37t124.5 -13h2zM270 565h88q27 0 27 19q0 18 -27 18h-88v-37zM270 510v-69h-94v213h206q95 0 95 -53v-2q0 -20 -14.5 -32
t-32.5 -15q24 -4 37 -17.5t13 -30.5v-39q0 -13 6 -21v-3h-94q-7 5 -7 17v21q0 17 -7 24t-24 7h-84z" />
    <glyph glyph-name="macron" unicode="&#xaf;" 
d="M139 601v122h422v-122h-422z" />
    <glyph glyph-name="degree" unicode="&#xb0;" horiz-adv-x="404" 
d="M202 383q-84 0 -140 52t-56 134t56 134t140 52t140 -52t56 -134t-56 -134t-140 -52zM202 488q37 0 60 23t23 59t-23 59t-60 23q-36 0 -59.5 -23t-23.5 -59t23.5 -59t59.5 -23z" />
    <glyph glyph-name="acute" unicode="&#xb4;" 
d="M190 590l90 154h230l-107 -154h-213z" />
    <glyph glyph-name="paragraph" unicode="&#xb6;" horiz-adv-x="772" 
d="M308 0v328h-55q-125 0 -183.5 53.5t-58.5 145.5v19q0 95 53 146.5t191 51.5h507v-109h-78v-635h-138v635h-100v-635h-138z" />
    <glyph glyph-name="periodcentered" unicode="&#xb7;" horiz-adv-x="305" 
d="M273 385v-175h-241v175h241z" />
    <glyph glyph-name="cedilla" unicode="&#xb8;" 
d="M178 -258v90h106q40 0 40 22q0 23 -40 23h-71v123h127v-50q106 0 144 -25t38 -76v-3q0 -48 -39.5 -76t-143.5 -28h-161z" />
    <glyph glyph-name="ordmasculine" unicode="&#xba;" horiz-adv-x="595" 
d="M321 376h-46q-76 0 -130 16.5t-81.5 45t-39 58.5t-11.5 64v11q0 34 11.5 63.5t39 57t81.5 43.5t130 16h46q261 0 261 -180v-11q0 -184 -261 -184zM297 478q62 0 89.5 25t27.5 61v3q0 37 -27.5 60.5t-88.5 23.5h-1q-116 0 -116 -84v-3q0 -36 27.5 -61t88.5 -25z" />
    <glyph glyph-name="guillemotright" unicode="&#xbb;" horiz-adv-x="534" 
d="M133 287l-120 168h163l123 -168l-119 -170h-161zM399 117h-161l119 170l-122 168h163l125 -168z" />
    <glyph glyph-name="onequarter" unicode="&#xbc;" horiz-adv-x="925" 
d="M716 744h172l-781 -744h-167zM107 587h-95v82q94 6 122 75h120v-368h-147v211zM420 151l245 217h169v-201h79v-99h-79v-69h-149v69h-265v83zM557 167h128v112z" />
    <glyph glyph-name="onehalf" unicode="&#xbd;" horiz-adv-x="991" 
d="M716 744h172l-781 -744h-167zM107 587h-95v82q94 6 122 75h120v-368h-147v211zM974 0h-480v43q0 30 7.5 52.5t30.5 48t73 45.5t126 34q53 10 70.5 17.5t17.5 18.5q0 23 -78 23q-87 0 -90 -47h-151v4q0 135 227 135h19q70 0 117 -9t70 -26t32 -36.5t9 -46.5v-4
q0 -53 -47.5 -75t-164.5 -40q-8 -1 -23 -3q-97 -15 -110 -27q-1 -2 -2 -3h347v-104z" />
    <glyph glyph-name="threequarters" unicode="&#xbe;" horiz-adv-x="1122" 
d="M913 744h172l-781 -744h-167zM617 151l245 217h169v-201h79v-99h-79v-69h-149v69h-265v83zM754 167h128v112zM271 372h-33q-61 0 -106 11t-68.5 26.5t-37.5 36.5t-17 36t-3 30v5h156q0 -46 95 -46q97 0 97 31v2q0 22 -45 22h-122v88h116q44 0 44 19v2q0 23 -95 23
q-92 0 -92 -35h-149v5q0 11 2 21t9 25.5t22.5 28t38.5 24t62 18t89 6.5h31q76 0 127 -8.5t73 -24.5t29.5 -30t7.5 -33v-3q0 -23 -19 -40.5t-51 -21.5q37 -6 60 -28.5t23 -58.5v-4q0 -127 -244 -127z" />
    <glyph glyph-name="questiondown" unicode="&#xbf;" horiz-adv-x="832" 
d="M351 297h228v-75q0 -57 -31.5 -88t-129.5 -56l-84 -21q-57 -15 -75 -29t-18 -34q0 -16 7 -25.5t46.5 -18t114.5 -8.5q43 0 76 4.5t52 13.5t31 17t17 21.5t6 19t2 17.5h228v-12q0 -25 -1.5 -42.5t-9.5 -44.5t-22.5 -46t-43 -40t-68 -34.5t-101 -22t-138.5 -8.5h-56
q-371 0 -371 207v7q0 74 45 123.5t147 75.5l83 22q44 11 55 25t11 45v7zM341 363v175h241v-175h-241z" />
    <glyph glyph-name="Agrave" unicode="&#xc0;" horiz-adv-x="1038" 
d="M650 304l-144 279l-138 -279h282zM806 0l-70 136h-451l-67 -136h-237l376 744h302l398 -744h-251zM528 946l90 -150h-225l-105 150h240z" />
    <glyph glyph-name="Aacute" unicode="&#xc1;" horiz-adv-x="1038" 
d="M650 304l-144 279l-138 -279h282zM806 0l-70 136h-451l-67 -136h-237l376 744h302l398 -744h-251zM399 796l90 150h240l-105 -150h-225z" />
    <glyph glyph-name="Acircumflex" unicode="&#xc2;" horiz-adv-x="1038" 
d="M650 304l-144 279l-138 -279h282zM806 0l-70 136h-451l-67 -136h-237l376 744h302l398 -744h-251zM633 946l160 -150h-220l-66 58l-65 -58h-217l157 150h251z" />
    <glyph glyph-name="Atilde" unicode="&#xc3;" horiz-adv-x="1038" 
d="M650 304l-144 279l-138 -279h282zM806 0l-70 136h-451l-67 -136h-237l376 744h302l398 -744h-251zM631 802q-44 0 -128 29q-42 15 -61 15q-18 0 -18 -21v-31h-146v81q0 40 22.5 69t77.5 29h6q42 0 128 -29q45 -15 61 -15q18 0 18 21v30h146v-80q0 -40 -22 -69t-78 -29h-6
z" />
    <glyph glyph-name="Adieresis" unicode="&#xc4;" horiz-adv-x="1038" 
d="M650 304l-144 279l-138 -279h282zM806 0l-70 136h-451l-67 -136h-237l376 744h302l398 -744h-251zM756 946v-150h-222v150h222zM482 946v-150h-222v150h222z" />
    <glyph glyph-name="Aring" unicode="&#xc5;" horiz-adv-x="1038" 
d="M650 304l-144 279l-138 -279h282zM806 0l-70 136h-451l-67 -136h-237l376 744h302l398 -744h-251zM317 902q0 116 193 116q189 0 189 -116q0 -118 -189 -118q-193 0 -193 118zM432 902q0 -47 78 -47q75 0 75 47q0 45 -75 45q-78 0 -78 -45z" />
    <glyph glyph-name="AE" unicode="&#xc6;" horiz-adv-x="1467" 
d="M646 298v278l-213 -278h213zM646 0v130h-341l-100 -130h-239l567 744h887v-169h-544v-110h531v-170h-531v-122h554v-173h-784z" />
    <glyph glyph-name="Ccedilla" unicode="&#xc7;" horiz-adv-x="1083" 
d="M371 -258v90h106q40 0 40 22q0 23 -40 23h-71v117q-94 11 -165.5 42t-111.5 69t-64.5 86t-32.5 88t-8 81v29q0 47 9 90.5t40.5 96.5t83 91t146 64t219.5 26h41q103 0 186 -15.5t135 -41.5t89 -56.5t55 -65.5t25.5 -62t7.5 -52v-11h-247q-4 12 -8 21.5t-22.5 30.5t-45 35
t-78 25.5t-118.5 11.5q-80 0 -136.5 -16.5t-85 -45.5t-40.5 -61t-12 -70v-12q0 -36 13.5 -69t42.5 -65t86 -51t134 -19q232 0 271 132h247v-11q0 -27 -8 -55.5t-26.5 -64.5t-56 -67t-89.5 -57.5t-134.5 -42t-184.5 -15.5h-30v-37q106 0 144 -25t38 -76v-3q0 -48 -39.5 -76
t-143.5 -28h-161z" />
    <glyph glyph-name="Egrave" unicode="&#xc8;" horiz-adv-x="885" 
d="M54 744h784v-169h-554v-110h541v-170h-541v-122h564v-173h-794v744zM504 946l90 -150h-225l-105 150h240z" />
    <glyph glyph-name="Eacute" unicode="&#xc9;" horiz-adv-x="885" 
d="M331 796l90 150h240l-105 -150h-225zM54 744h784v-169h-554v-110h541v-170h-541v-122h564v-173h-794v744z" />
    <glyph glyph-name="Ecircumflex" unicode="&#xca;" horiz-adv-x="885" 
d="M54 744h784v-169h-554v-110h541v-170h-541v-122h564v-173h-794v744zM580 946l160 -150h-220l-66 58l-65 -58h-217l157 150h251z" />
    <glyph glyph-name="Edieresis" unicode="&#xcb;" horiz-adv-x="885" 
d="M54 744h784v-169h-554v-110h541v-170h-541v-122h564v-173h-794v744zM704 946v-150h-222v150h222zM430 946v-150h-222v150h222z" />
    <glyph glyph-name="Igrave" unicode="&#xcc;" horiz-adv-x="341" 
d="M287 744v-744h-233v744h233zM193 946l90 -150h-225l-105 150h240z" />
    <glyph glyph-name="Iacute" unicode="&#xcd;" horiz-adv-x="341" 
d="M287 744v-744h-233v744h233zM61 796l90 150h240l-105 -150h-225z" />
    <glyph glyph-name="Icircumflex" unicode="&#xce;" horiz-adv-x="341" 
d="M287 744v-744h-233v744h233zM294 946l160 -150h-220l-66 58l-65 -58h-217l157 150h251z" />
    <glyph glyph-name="Idieresis" unicode="&#xcf;" horiz-adv-x="341" 
d="M287 744v-744h-233v744h233zM418 946v-150h-222v150h222zM144 946v-150h-222v150h222z" />
    <glyph glyph-name="Eth" unicode="&#xd0;" horiz-adv-x="1098" 
d="M60 0v300h-62v149h62v295h493q104 0 188 -14t140 -40.5t96 -59t61 -73.5t30.5 -80.5t9.5 -84.5v-30q0 -53 -12 -100t-47.5 -96.5t-91.5 -85t-152 -58t-221 -22.5h-494zM293 568v-119h331v-149h-331v-121h242q299 0 299 192v6q0 191 -299 191h-242z" />
    <glyph glyph-name="Ntilde" unicode="&#xd1;" horiz-adv-x="1073" 
d="M54 744h260l475 -468v468h230v-744h-230l-505 493v-493h-230v744zM668 802q-44 0 -128 29q-42 15 -61 15q-18 0 -18 -21v-31h-146v81q0 40 22.5 69t77.5 29h6q42 0 128 -29q45 -15 61 -15q18 0 18 21v30h146v-80q0 -40 -22 -69t-78 -29h-6z" />
    <glyph glyph-name="Ograve" unicode="&#xd2;" horiz-adv-x="1138" 
d="M593 946l90 -150h-225l-105 150h240zM548 757h43q97 0 176 -13.5t132.5 -35.5t93.5 -54t62.5 -64t36.5 -70t18 -68t4 -63v-30q0 -32 -4 -62t-18 -68.5t-36 -71t-62.5 -65t-93.5 -55t-132.5 -36.5t-176.5 -14h-43q-97 0 -177 14t-133 36.5t-93.5 55t-63 65t-36 71
t-17.5 68.5t-4 62v30q0 33 4 62.5t17.5 68t36 70.5t62.5 64t93.5 54t133.5 35.5t177 13.5zM870 382q0 28 -7 53.5t-27 52t-52 45.5t-87.5 31.5t-127.5 12.5q-301 0 -301 -195v-12q0 -36 12.5 -68t43 -64t93.5 -51t152 -19t151.5 18.5t93.5 50t43.5 63.5t12.5 68v14z" />
    <glyph glyph-name="Oacute" unicode="&#xd3;" horiz-adv-x="1138" 
d="M460 796l90 150h240l-105 -150h-225zM548 757h43q97 0 176 -13.5t132.5 -35.5t93.5 -54t62.5 -64t36.5 -70t18 -68t4 -63v-30q0 -32 -4 -62t-18 -68.5t-36 -71t-62.5 -65t-93.5 -55t-132.5 -36.5t-176.5 -14h-43q-97 0 -177 14t-133 36.5t-93.5 55t-63 65t-36 71
t-17.5 68.5t-4 62v30q0 33 4 62.5t17.5 68t36 70.5t62.5 64t93.5 54t133.5 35.5t177 13.5zM870 382q0 28 -7 53.5t-27 52t-52 45.5t-87.5 31.5t-127.5 12.5q-301 0 -301 -195v-12q0 -36 12.5 -68t43 -64t93.5 -51t152 -19t151.5 18.5t93.5 50t43.5 63.5t12.5 68v14z" />
    <glyph glyph-name="Ocircumflex" unicode="&#xd4;" horiz-adv-x="1138" 
d="M693 946l160 -150h-220l-66 58l-65 -58h-217l157 150h251zM548 757h43q97 0 176 -13.5t132.5 -35.5t93.5 -54t62.5 -64t36.5 -70t18 -68t4 -63v-30q0 -32 -4 -62t-18 -68.5t-36 -71t-62.5 -65t-93.5 -55t-132.5 -36.5t-176.5 -14h-43q-97 0 -177 14t-133 36.5t-93.5 55
t-63 65t-36 71t-17.5 68.5t-4 62v30q0 33 4 62.5t17.5 68t36 70.5t62.5 64t93.5 54t133.5 35.5t177 13.5zM870 382q0 28 -7 53.5t-27 52t-52 45.5t-87.5 31.5t-127.5 12.5q-301 0 -301 -195v-12q0 -36 12.5 -68t43 -64t93.5 -51t152 -19t151.5 18.5t93.5 50t43.5 63.5
t12.5 68v14z" />
    <glyph glyph-name="Otilde" unicode="&#xd5;" horiz-adv-x="1138" 
d="M548 757h43q97 0 176 -13.5t132.5 -35.5t93.5 -54t62.5 -64t36.5 -70t18 -68t4 -63v-30q0 -32 -4 -62t-18 -68.5t-36 -71t-62.5 -65t-93.5 -55t-132.5 -36.5t-176.5 -14h-43q-97 0 -177 14t-133 36.5t-93.5 55t-63 65t-36 71t-17.5 68.5t-4 62v30q0 33 4 62.5t17.5 68
t36 70.5t62.5 64t93.5 54t133.5 35.5t177 13.5zM870 382q0 28 -7 53.5t-27 52t-52 45.5t-87.5 31.5t-127.5 12.5q-301 0 -301 -195v-12q0 -36 12.5 -68t43 -64t93.5 -51t152 -19t151.5 18.5t93.5 50t43.5 63.5t12.5 68v14zM692 802q-44 0 -128 29q-42 15 -61 15
q-18 0 -18 -21v-31h-146v81q0 40 22.5 69t77.5 29h6q42 0 128 -29q45 -15 61 -15q18 0 18 21v30h146v-80q0 -40 -22 -69t-78 -29h-6z" />
    <glyph glyph-name="Odieresis" unicode="&#xd6;" horiz-adv-x="1138" 
d="M817 946v-150h-222v150h222zM543 946v-150h-222v150h222zM548 757h43q97 0 176 -13.5t132.5 -35.5t93.5 -54t62.5 -64t36.5 -70t18 -68t4 -63v-30q0 -32 -4 -62t-18 -68.5t-36 -71t-62.5 -65t-93.5 -55t-132.5 -36.5t-176.5 -14h-43q-97 0 -177 14t-133 36.5t-93.5 55
t-63 65t-36 71t-17.5 68.5t-4 62v30q0 33 4 62.5t17.5 68t36 70.5t62.5 64t93.5 54t133.5 35.5t177 13.5zM870 382q0 28 -7 53.5t-27 52t-52 45.5t-87.5 31.5t-127.5 12.5q-301 0 -301 -195v-12q0 -36 12.5 -68t43 -64t93.5 -51t152 -19t151.5 18.5t93.5 50t43.5 63.5
t12.5 68v14z" />
    <glyph glyph-name="multiply" unicode="&#xd7;" horiz-adv-x="531" 
d="M415 74l-150 134l-150 -134l-101 108l140 125l-140 125l102 108l150 -133l149 133l101 -108l-140 -125l141 -125z" />
    <glyph glyph-name="Oslash" unicode="&#xd8;" horiz-adv-x="1138" 
d="M548 -13q-178 0 -297 50l-47 -37h-213q55 44 139 110q-106 95 -106 249v30q0 33 4 63t17.5 68.5t36 70.5t62.5 63.5t93.5 53.5t133 35.5t177.5 13.5h44q174 0 293 -49l47 36h214l-139 -109q107 -94 107 -246v-30q0 -33 -4 -63t-18 -68.5t-36.5 -71t-62.5 -64.5t-93 -54.5
t-132 -36.5t-176 -14h-44zM268 370q0 -71 39 -119l398 315q-62 10 -136 10q-301 0 -301 -194v-12zM569 169q89 0 151.5 18t93.5 49t43.5 63t12.5 69v14q0 73 -37 115l-401 -317q58 -11 137 -11z" />
    <glyph glyph-name="Ugrave" unicode="&#xd9;" horiz-adv-x="1047" 
d="M545 -11h-36q-83 0 -151.5 14.5t-115.5 38.5t-83 58t-57 69t-34.5 75t-18 73t-4.5 66v361h234v-347q0 -40 10.5 -74.5t35.5 -68t76.5 -53t123.5 -19.5q71 0 121.5 19.5t76 53t36 68t10.5 74.5v347h233v-361q0 -48 -10.5 -95.5t-41 -103t-79 -97.5t-133 -70t-193.5 -28z
M562 944l90 -150h-225l-105 150h240z" />
    <glyph glyph-name="Uacute" unicode="&#xda;" horiz-adv-x="1047" 
d="M545 -11h-36q-83 0 -151.5 14.5t-115.5 38.5t-83 58t-57 69t-34.5 75t-18 73t-4.5 66v361h234v-347q0 -40 10.5 -74.5t35.5 -68t76.5 -53t123.5 -19.5q71 0 121.5 19.5t76 53t36 68t10.5 74.5v347h233v-361q0 -48 -10.5 -95.5t-41 -103t-79 -97.5t-133 -70t-193.5 -28z
M396 796l90 150h240l-105 -150h-225z" />
    <glyph glyph-name="Ucircumflex" unicode="&#xdb;" horiz-adv-x="1047" 
d="M545 -11h-36q-83 0 -151.5 14.5t-115.5 38.5t-83 58t-57 69t-34.5 75t-18 73t-4.5 66v361h234v-347q0 -40 10.5 -74.5t35.5 -68t76.5 -53t123.5 -19.5q71 0 121.5 19.5t76 53t36 68t10.5 74.5v347h233v-361q0 -48 -10.5 -95.5t-41 -103t-79 -97.5t-133 -70t-193.5 -28z
M647 946l160 -150h-220l-66 58l-65 -58h-217l157 150h251z" />
    <glyph glyph-name="Udieresis" unicode="&#xdc;" horiz-adv-x="1047" 
d="M545 -11h-36q-83 0 -151.5 14.5t-115.5 38.5t-83 58t-57 69t-34.5 75t-18 73t-4.5 66v361h234v-347q0 -40 10.5 -74.5t35.5 -68t76.5 -53t123.5 -19.5q71 0 121.5 19.5t76 53t36 68t10.5 74.5v347h233v-361q0 -48 -10.5 -95.5t-41 -103t-79 -97.5t-133 -70t-193.5 -28z
M771 946v-150h-222v150h222zM497 946v-150h-222v150h222z" />
    <glyph glyph-name="Yacute" unicode="&#xdd;" horiz-adv-x="968" 
d="M373 0v288l-398 456h289l231 -274l235 274h263l-387 -456v-288h-233zM377 796l90 150h240l-105 -150h-225z" />
    <glyph glyph-name="Thorn" unicode="&#xde;" horiz-adv-x="978" 
d="M614 129h-327v-129h-233v744h233v-121h327q187 0 267.5 -63.5t80.5 -178.5v-10q0 -110 -81.5 -176t-266.5 -66zM287 456v-160h323q51 0 79.5 20.5t28.5 57.5v3q0 79 -108 79h-323z" />
    <glyph glyph-name="germandbls" unicode="&#xdf;" horiz-adv-x="865" 
d="M667 431q181 -37 181 -192v-12q0 -227 -331 -227h-183v158h140q78 0 107 19.5t29 57.5v1q0 38 -29 57t-107 19h-140v158h126q62 0 84.5 16.5t22.5 44.5v1q0 14 -4 23.5t-17.5 20t-44.5 15.5t-80 5h-13q-79 0 -110 -22t-31 -70v-504h-223v522q0 32 5.5 59t26 58.5t55 53.5
t97 36.5t147.5 14.5h60q94 0 162 -11.5t104 -27.5t57 -41.5t26 -46t5 -48.5v-6q0 -52 -35 -87.5t-87 -44.5z" />
    <glyph glyph-name="agrave" unicode="&#xe0;" horiz-adv-x="794" 
d="M486 590h-215l-107 154h232zM519 239v17l-213 -33q-44 -7 -62.5 -17.5t-18.5 -32.5v-1q0 -25 23 -43t75 -18q86 0 141 38.5t55 89.5zM525 74q-75 -84 -249 -84h-13q-127 0 -188.5 50t-61.5 126v7q0 74 52.5 112t173.5 49l246 23q34 3 34 28q0 13 -7 21t-40 15.5t-93 7.5
h-5q-47 0 -77.5 -6.5t-43 -17.5t-16 -18.5t-4.5 -17.5h-207v2q0 26 4 46.5t23 47.5t51 45t94.5 30.5t148.5 12.5h55q90 0 154 -11t98 -27t53 -41.5t23 -45.5t4 -49v-206q0 -27 28 -27h29v-146h-181q-33 0 -56 19t-29 55z" />
    <glyph glyph-name="aacute" unicode="&#xe1;" horiz-adv-x="794" 
d="M269 590l90 154h230l-107 -154h-213zM519 239v17l-213 -33q-44 -7 -62.5 -17.5t-18.5 -32.5v-1q0 -25 23 -43t75 -18q86 0 141 38.5t55 89.5zM525 74q-75 -84 -249 -84h-13q-127 0 -188.5 50t-61.5 126v7q0 74 52.5 112t173.5 49l246 23q34 3 34 28q0 13 -7 21t-40 15.5
t-93 7.5h-5q-47 0 -77.5 -6.5t-43 -17.5t-16 -18.5t-4.5 -17.5h-207v2q0 26 4 46.5t23 47.5t51 45t94.5 30.5t148.5 12.5h55q90 0 154 -11t98 -27t53 -41.5t23 -45.5t4 -49v-206q0 -27 28 -27h29v-146h-181q-33 0 -56 19t-29 55z" />
    <glyph glyph-name="acircumflex" unicode="&#xe2;" horiz-adv-x="794" 
d="M498 744l152 -155h-215l-61 64l-61 -64h-212l150 155h247zM519 239v17l-213 -33q-44 -7 -62.5 -17.5t-18.5 -32.5v-1q0 -25 23 -43t75 -18q86 0 141 38.5t55 89.5zM525 74q-75 -84 -249 -84h-13q-127 0 -188.5 50t-61.5 126v7q0 74 52.5 112t173.5 49l246 23q34 3 34 28
q0 13 -7 21t-40 15.5t-93 7.5h-5q-47 0 -77.5 -6.5t-43 -17.5t-16 -18.5t-4.5 -17.5h-207v2q0 26 4 46.5t23 47.5t51 45t94.5 30.5t148.5 12.5h55q90 0 154 -11t98 -27t53 -41.5t23 -45.5t4 -49v-206q0 -27 28 -27h29v-146h-181q-33 0 -56 19t-29 55z" />
    <glyph glyph-name="atilde" unicode="&#xe3;" horiz-adv-x="794" 
d="M519 239v17l-213 -33q-44 -7 -62.5 -17.5t-18.5 -32.5v-1q0 -25 23 -43t75 -18q86 0 141 38.5t55 89.5zM525 74q-75 -84 -249 -84h-13q-127 0 -188.5 50t-61.5 126v7q0 74 52.5 112t173.5 49l246 23q34 3 34 28q0 13 -7 21t-40 15.5t-93 7.5h-5q-47 0 -77.5 -6.5
t-43 -17.5t-16 -18.5t-4.5 -17.5h-207v2q0 26 4 46.5t23 47.5t51 45t94.5 30.5t148.5 12.5h55q90 0 154 -11t98 -27t53 -41.5t23 -45.5t4 -49v-206q0 -27 28 -27h29v-146h-181q-33 0 -56 19t-29 55zM493 594q-39 0 -124 28q-45 15 -57 15q-16 0 -16 -21v-29h-144v76
q0 39 21.5 68t75.5 29h5q44 0 124 -28q43 -15 57 -15q16 0 16 22v29h144v-76q0 -98 -96 -98h-6z" />
    <glyph glyph-name="adieresis" unicode="&#xe4;" horiz-adv-x="794" 
d="M616 744v-154h-216v154h216zM350 744v-154h-215v154h215zM519 239v17l-213 -33q-44 -7 -62.5 -17.5t-18.5 -32.5v-1q0 -25 23 -43t75 -18q86 0 141 38.5t55 89.5zM525 74q-75 -84 -249 -84h-13q-127 0 -188.5 50t-61.5 126v7q0 74 52.5 112t173.5 49l246 23q34 3 34 28
q0 13 -7 21t-40 15.5t-93 7.5h-5q-47 0 -77.5 -6.5t-43 -17.5t-16 -18.5t-4.5 -17.5h-207v2q0 26 4 46.5t23 47.5t51 45t94.5 30.5t148.5 12.5h55q90 0 154 -11t98 -27t53 -41.5t23 -45.5t4 -49v-206q0 -27 28 -27h29v-146h-181q-33 0 -56 19t-29 55z" />
    <glyph glyph-name="aring" unicode="&#xe5;" horiz-adv-x="794" 
d="M519 239v17l-213 -33q-44 -7 -62.5 -17.5t-18.5 -32.5v-1q0 -25 23 -43t75 -18q86 0 141 38.5t55 89.5zM525 74q-75 -84 -249 -84h-13q-127 0 -188.5 50t-61.5 126v7q0 74 52.5 112t173.5 49l246 23q34 3 34 28q0 13 -7 21t-40 15.5t-93 7.5h-5q-47 0 -77.5 -6.5
t-43 -17.5t-16 -18.5t-4.5 -17.5h-207v2q0 26 4 46.5t23 47.5t51 45t94.5 30.5t148.5 12.5h55q90 0 154 -11t98 -27t53 -41.5t23 -45.5t4 -49v-206q0 -27 28 -27h29v-146h-181q-33 0 -56 19t-29 55zM185 699q0 116 191 116q187 0 187 -116q0 -118 -187 -118q-191 0 -191 118
zM300 699q0 -47 76 -47q73 0 73 47q0 45 -73 45q-76 0 -76 -45z" />
    <glyph glyph-name="ae" unicode="&#xe6;" horiz-adv-x="1331" 
d="M911 428q-151 0 -178 -91h358q-21 91 -178 91h-2zM322 110q83 0 137 39t54 90v17l-211 -32q-42 -6 -60 -17t-18 -32v-1q0 -26 23.5 -45t74.5 -19zM1311 189q0 -26 -6.5 -49.5t-29.5 -53t-60.5 -51t-107 -36t-161.5 -14.5h-59q-233 0 -327 121q-10 -15 -28 -31.5
t-49.5 -37t-81.5 -34t-109 -13.5h-13q-139 0 -202.5 50t-63.5 126v7q0 74 53.5 113.5t170.5 49.5l253 23q23 3 23 28q0 12 -7 20t-39.5 14.5t-91.5 6.5h-7q-46 0 -75.5 -6t-41.5 -17.5t-15 -18t-4 -17.5h-206v2q0 27 3.5 47t21.5 47.5t50 45t94 30t148 12.5h55
q188 0 252 -51q75 51 231 51h64q368 0 368 -290v-37h-584q20 -105 189 -105h1q42 0 75 6t50.5 14.5t29.5 19t15.5 17.5t3.5 12h218v-1z" />
    <glyph glyph-name="ccedilla" unicode="&#xe7;" horiz-adv-x="844" 
d="M250 -258v90h106q40 0 40 22q0 23 -40 23h-71v116q-77 11 -131.5 40t-82.5 68t-40 78.5t-12 82.5v20q0 39 9 74.5t34.5 72.5t66 63.5t108.5 43.5t156 17h57q80 0 144 -12t103.5 -33t67 -45t40.5 -52t18 -50t5 -43v-3h-229q-23 97 -178 97h-3q-90 0 -130.5 -37.5
t-40.5 -95.5v-7q0 -61 40.5 -102.5t130.5 -41.5h3q52 0 89.5 11.5t55 30.5t24.5 32t9 25h229v-2q0 -28 -6 -54.5t-29 -62t-61.5 -61t-111.5 -44t-171 -18.5h-37v-35q106 0 144 -25t38 -76v-3q0 -48 -39.5 -76t-143.5 -28h-161z" />
    <glyph glyph-name="egrave" unicode="&#xe8;" horiz-adv-x="845" 
d="M527 590h-215l-107 154h232zM421 428q-152 0 -179 -91h360q-22 91 -180 91h-1zM824 189q0 -25 -7 -49.5t-31 -53.5t-62 -50.5t-107.5 -36t-161.5 -14.5h-57q-104 0 -180 22.5t-118 62.5t-61.5 87t-19.5 103v22q0 55 18 101t58.5 85.5t116 62t180.5 22.5h61
q374 0 374 -290v-37h-589q22 -105 190 -105h1q42 0 74.5 6t50.5 14t29.5 18.5t15.5 17.5t5 13h220v-1z" />
    <glyph glyph-name="eacute" unicode="&#xe9;" horiz-adv-x="845" 
d="M317 590l90 154h230l-107 -154h-213zM421 428q-152 0 -179 -91h360q-22 91 -180 91h-1zM824 189q0 -25 -7 -49.5t-31 -53.5t-62 -50.5t-107.5 -36t-161.5 -14.5h-57q-104 0 -180 22.5t-118 62.5t-61.5 87t-19.5 103v22q0 55 18 101t58.5 85.5t116 62t180.5 22.5h61
q374 0 374 -290v-37h-589q22 -105 190 -105h1q42 0 74.5 6t50.5 14t29.5 18.5t15.5 17.5t5 13h220v-1z" />
    <glyph glyph-name="ecircumflex" unicode="&#xea;" horiz-adv-x="845" 
d="M546 744l152 -155h-215l-61 64l-61 -64h-212l150 155h247zM421 428q-152 0 -179 -91h360q-22 91 -180 91h-1zM824 189q0 -25 -7 -49.5t-31 -53.5t-62 -50.5t-107.5 -36t-161.5 -14.5h-57q-104 0 -180 22.5t-118 62.5t-61.5 87t-19.5 103v22q0 55 18 101t58.5 85.5t116 62
t180.5 22.5h61q374 0 374 -290v-37h-589q22 -105 190 -105h1q42 0 74.5 6t50.5 14t29.5 18.5t15.5 17.5t5 13h220v-1z" />
    <glyph glyph-name="edieresis" unicode="&#xeb;" horiz-adv-x="845" 
d="M664 744v-154h-216v154h216zM398 744v-154h-215v154h215zM421 428q-152 0 -179 -91h360q-22 91 -180 91h-1zM824 189q0 -25 -7 -49.5t-31 -53.5t-62 -50.5t-107.5 -36t-161.5 -14.5h-57q-104 0 -180 22.5t-118 62.5t-61.5 87t-19.5 103v22q0 55 18 101t58.5 85.5t116 62
t180.5 22.5h61q374 0 374 -290v-37h-589q22 -105 190 -105h1q42 0 74.5 6t50.5 14t29.5 18.5t15.5 17.5t5 13h220v-1z" />
    <glyph glyph-name="igrave" unicode="&#xec;" horiz-adv-x="311" 
d="M267 538v-538h-223v538h223zM262 590h-215l-107 154h232z" />
    <glyph glyph-name="iacute" unicode="&#xed;" horiz-adv-x="311" 
d="M267 538v-538h-223v538h223zM51 590l90 154h230l-107 -154h-213z" />
    <glyph glyph-name="icircumflex" unicode="&#xee;" horiz-adv-x="311" 
d="M268 744l108 -154h-177l-45 64l-45 -64h-174l106 154h227zM267 538v-538h-223v538h223z" />
    <glyph glyph-name="idieresis" unicode="&#xef;" horiz-adv-x="311" 
d="M351 744v-154h-175v154h175zM134 744v-154h-174v154h174zM267 538v-538h-223v538h223z" />
    <glyph glyph-name="eth" unicode="&#xf0;" horiz-adv-x="880" 
d="M410 -15q-89 0 -159 16t-112.5 42t-70.5 62t-38.5 72t-10.5 76v24q0 54 16.5 99.5t52 83t98.5 58.5t148 21h17q124 0 223 -57l-144 106l-272 -31v90l164 18l-108 79h278l72 -51l208 23v-90l-99 -11q100 -72 144 -147t44 -166v-20q0 -30 -2.5 -54t-11.5 -56.5t-25 -57
t-46 -50t-70.5 -42t-102.5 -27t-139 -10.5h-54zM439 130q105 0 150 39t45 97v5q0 58 -45 96.5t-149 38.5h-1q-194 0 -194 -135v-5q0 -58 45 -97t149 -39z" />
    <glyph glyph-name="ntilde" unicode="&#xf1;" horiz-adv-x="843" 
d="M37 0v538h221v-92q108 104 267 104h7q131 0 196.5 -61.5t65.5 -148.5v-340h-225v266q0 63 -36 98.5t-108 35.5q-75 0 -120 -40t-45 -106v-254h-223zM534 594q-39 0 -124 28q-45 15 -57 15q-16 0 -16 -21v-29h-144v76q0 39 21.5 68t75.5 29h5q44 0 124 -28q43 -15 57 -15
q16 0 16 22v29h144v-76q0 -98 -96 -98h-6z" />
    <glyph glyph-name="ograve" unicode="&#xf2;" horiz-adv-x="880" 
d="M548 590h-215l-107 154h232zM406 -15q-90 0 -159.5 17t-111.5 44.5t-69 65t-37 74t-10 77.5v18q0 40 10 76t36.5 73t68.5 63.5t111.5 43t159.5 16.5h71q385 0 385 -272v-18q0 -42 -7.5 -77t-32.5 -74t-65.5 -65.5t-112 -44t-167.5 -17.5h-70zM441 130q104 0 149 41t45 98
v5q0 58 -45 97t-148 39h-1q-105 0 -149.5 -38.5t-44.5 -97.5v-5q0 -57 45 -98t149 -41z" />
    <glyph glyph-name="oacute" unicode="&#xf3;" horiz-adv-x="880" 
d="M334 590l90 154h230l-107 -154h-213zM406 -15q-90 0 -159.5 17t-111.5 44.5t-69 65t-37 74t-10 77.5v18q0 40 10 76t36.5 73t68.5 63.5t111.5 43t159.5 16.5h71q385 0 385 -272v-18q0 -42 -7.5 -77t-32.5 -74t-65.5 -65.5t-112 -44t-167.5 -17.5h-70zM441 130
q104 0 149 41t45 98v5q0 58 -45 97t-148 39h-1q-105 0 -149.5 -38.5t-44.5 -97.5v-5q0 -57 45 -98t149 -41z" />
    <glyph glyph-name="ocircumflex" unicode="&#xf4;" horiz-adv-x="880" 
d="M563 744l152 -155h-215l-61 64l-61 -64h-212l150 155h247zM406 -15q-90 0 -159.5 17t-111.5 44.5t-69 65t-37 74t-10 77.5v18q0 40 10 76t36.5 73t68.5 63.5t111.5 43t159.5 16.5h71q385 0 385 -272v-18q0 -42 -7.5 -77t-32.5 -74t-65.5 -65.5t-112 -44t-167.5 -17.5h-70
zM441 130q104 0 149 41t45 98v5q0 58 -45 97t-148 39h-1q-105 0 -149.5 -38.5t-44.5 -97.5v-5q0 -57 45 -98t149 -41z" />
    <glyph glyph-name="otilde" unicode="&#xf5;" horiz-adv-x="880" 
d="M406 -15q-90 0 -159.5 17t-111.5 44.5t-69 65t-37 74t-10 77.5v18q0 40 10 76t36.5 73t68.5 63.5t111.5 43t159.5 16.5h71q385 0 385 -272v-18q0 -42 -7.5 -77t-32.5 -74t-65.5 -65.5t-112 -44t-167.5 -17.5h-70zM441 130q104 0 149 41t45 98v5q0 58 -45 97t-148 39h-1
q-105 0 -149.5 -38.5t-44.5 -97.5v-5q0 -57 45 -98t149 -41zM559 594q-39 0 -124 28q-45 15 -57 15q-16 0 -16 -21v-29h-144v76q0 39 21.5 68t75.5 29h5q44 0 124 -28q43 -15 57 -15q16 0 16 22v29h144v-76q0 -98 -96 -98h-6z" />
    <glyph glyph-name="odieresis" unicode="&#xf6;" horiz-adv-x="880" 
d="M681 744v-154h-216v154h216zM415 744v-154h-215v154h215zM406 -15q-90 0 -159.5 17t-111.5 44.5t-69 65t-37 74t-10 77.5v18q0 40 10 76t36.5 73t68.5 63.5t111.5 43t159.5 16.5h71q385 0 385 -272v-18q0 -42 -7.5 -77t-32.5 -74t-65.5 -65.5t-112 -44t-167.5 -17.5h-70z
M441 130q104 0 149 41t45 98v5q0 58 -45 97t-148 39h-1q-105 0 -149.5 -38.5t-44.5 -97.5v-5q0 -57 45 -98t149 -41z" />
    <glyph glyph-name="divide" unicode="&#xf7;" horiz-adv-x="618" 
d="M405 585v-152h-192v152h192zM35 377h548v-138h-548v138zM405 182v-152h-192v152h192z" />
    <glyph glyph-name="oslash" unicode="&#xf8;" horiz-adv-x="880" 
d="M406 -15q-131 0 -218 42l-38 -27h-171l119 86q-79 72 -79 177v18q0 40 10 76t36.5 73t68.5 63.5t111.5 43t159.5 16.5h70q125 0 218 -40l36 25h173l-118 -84q77 -68 77 -173v-18q0 -278 -385 -278h-70zM243 269q0 -39 18 -68l277 197q-39 12 -96 12h-1
q-107 0 -152.5 -38.5t-45.5 -97.5v-5zM441 130q106 0 151.5 41t45.5 98v5q0 37 -15 63l-273 -196q39 -11 91 -11z" />
    <glyph glyph-name="ugrave" unicode="&#xf9;" horiz-adv-x="832" 
d="M788 538v-538h-221v93q-17 -16 -23 -21.5t-34.5 -25.5t-53 -29.5t-65.5 -19t-85 -9.5h-8q-128 0 -192 64.5t-64 150.5v335h225v-266q0 -62 35 -98t103 -36q72 0 116 40t44 106v254h223zM525 590h-215l-107 154h232z" />
    <glyph glyph-name="uacute" unicode="&#xfa;" horiz-adv-x="832" 
d="M788 538v-538h-221v93q-17 -16 -23 -21.5t-34.5 -25.5t-53 -29.5t-65.5 -19t-85 -9.5h-8q-128 0 -192 64.5t-64 150.5v335h225v-266q0 -62 35 -98t103 -36q72 0 116 40t44 106v254h223zM304 590l90 154h230l-107 -154h-213z" />
    <glyph glyph-name="ucircumflex" unicode="&#xfb;" horiz-adv-x="832" 
d="M788 538v-538h-221v93q-17 -16 -23 -21.5t-34.5 -25.5t-53 -29.5t-65.5 -19t-85 -9.5h-8q-128 0 -192 64.5t-64 150.5v335h225v-266q0 -62 35 -98t103 -36q72 0 116 40t44 106v254h223zM538 744l152 -155h-215l-61 64l-61 -64h-212l150 155h247z" />
    <glyph glyph-name="udieresis" unicode="&#xfc;" horiz-adv-x="832" 
d="M788 538v-538h-221v93q-17 -16 -23 -21.5t-34.5 -25.5t-53 -29.5t-65.5 -19t-85 -9.5h-8q-128 0 -192 64.5t-64 150.5v335h225v-266q0 -62 35 -98t103 -36q72 0 116 40t44 106v254h223zM656 744v-154h-216v154h216zM390 744v-154h-215v154h215z" />
    <glyph glyph-name="yacute" unicode="&#xfd;" horiz-adv-x="777" 
d="M116 -188v160h126q26 0 26 17q0 9 -25 57l-257 492h240l173 -364l168 364h224l-282 -574q-39 -80 -83.5 -116t-114.5 -36h-195zM280 590l90 154h230l-107 -154h-213z" />
    <glyph glyph-name="thorn" unicode="&#xfe;" horiz-adv-x="902" 
d="M267 273v-4q0 -56 51.5 -98t147.5 -42h5q99 0 141.5 41t42.5 99v4q0 61 -42 100t-142 39h-5q-98 0 -148.5 -40.5t-50.5 -98.5zM44 744h223v-283q13 12 31 23.5t51.5 28.5t83.5 27.5t107 10.5h18q89 0 153.5 -21t101 -59t53.5 -85t17 -105v-19q0 -56 -17.5 -103.5
t-54.5 -87t-102.5 -62t-154.5 -22.5h-16q-74 0 -137.5 19t-91.5 36.5t-42 33.5v-264h-223v932z" />
    <glyph glyph-name="ydieresis" unicode="&#xff;" horiz-adv-x="777" 
d="M116 -188v160h126q26 0 26 17q0 9 -25 57l-257 492h240l173 -364l168 364h224l-282 -574q-39 -80 -83.5 -116t-114.5 -36h-195zM639 744v-154h-216v154h216zM373 744v-154h-215v154h215z" />
    <glyph glyph-name="Amacron" unicode="&#x100;" horiz-adv-x="1038" 
d="M650 304l-144 279l-138 -279h282zM806 0l-70 136h-451l-67 -136h-237l376 744h302l398 -744h-251zM288 804v126h441v-126h-441z" />
    <glyph glyph-name="amacron" unicode="&#x101;" horiz-adv-x="794" 
d="M519 239v17l-213 -33q-44 -7 -62.5 -17.5t-18.5 -32.5v-1q0 -25 23 -43t75 -18q86 0 141 38.5t55 89.5zM525 74q-75 -84 -249 -84h-13q-127 0 -188.5 50t-61.5 126v7q0 74 52.5 112t173.5 49l246 23q34 3 34 28q0 13 -7 21t-40 15.5t-93 7.5h-5q-47 0 -77.5 -6.5
t-43 -17.5t-16 -18.5t-4.5 -17.5h-207v2q0 26 4 46.5t23 47.5t51 45t94.5 30.5t148.5 12.5h55q90 0 154 -11t98 -27t53 -41.5t23 -45.5t4 -49v-206q0 -27 28 -27h29v-146h-181q-33 0 -56 19t-29 55zM164 601v122h422v-122h-422z" />
    <glyph glyph-name="Abreve" unicode="&#x102;" horiz-adv-x="1038" 
d="M650 304l-144 279l-138 -279h282zM806 0l-70 136h-451l-67 -136h-237l376 744h302l398 -744h-251zM493 787q-64 0 -110 17.5t-67.5 45.5t-30.5 52t-9 47v2h172q4 -48 63 -48q24 0 39 10t18.5 19t4.5 19h168v-2q0 -21 -10.5 -46.5t-33.5 -52.5t-67.5 -45t-102.5 -18h-34z
" />
    <glyph glyph-name="abreve" unicode="&#x103;" horiz-adv-x="794" 
d="M363 582q-64 0 -109.5 17t-67 44.5t-30 51.5t-8.5 47v2h170q4 -49 62 -49q34 0 47 16t14 33h166v-2q0 -22 -10.5 -47t-32.5 -51.5t-66.5 -44t-102.5 -17.5h-32zM519 239v17l-213 -33q-44 -7 -62.5 -17.5t-18.5 -32.5v-1q0 -25 23 -43t75 -18q86 0 141 38.5t55 89.5z
M525 74q-75 -84 -249 -84h-13q-127 0 -188.5 50t-61.5 126v7q0 74 52.5 112t173.5 49l246 23q34 3 34 28q0 13 -7 21t-40 15.5t-93 7.5h-5q-47 0 -77.5 -6.5t-43 -17.5t-16 -18.5t-4.5 -17.5h-207v2q0 26 4 46.5t23 47.5t51 45t94.5 30.5t148.5 12.5h55q90 0 154 -11t98 -27
t53 -41.5t23 -45.5t4 -49v-206q0 -27 28 -27h29v-146h-181q-33 0 -56 19t-29 55z" />
    <glyph glyph-name="Aogonek" unicode="&#x104;" horiz-adv-x="1038" 
d="M650 304l-144 279l-138 -279h282zM806 0l-70 136h-451l-67 -136h-237l376 744h302l398 -744h-251zM1057 -188h-135q-130 0 -130 71v2q0 38 41.5 64t127.5 51h96q-30 -22 -44.5 -35.5t-14.5 -27.5q0 -23 38 -23h21v-102z" />
    <glyph glyph-name="aogonek" unicode="&#x105;" horiz-adv-x="794" 
d="M791 -188h-135q-130 0 -130 71v2q0 38 41.5 64t127.5 51h-85q-33 0 -56 19t-29 55q-75 -84 -249 -84h-13q-127 0 -188.5 50t-61.5 126v7q0 74 52.5 112t173.5 49l246 23q34 3 34 28q0 13 -7 21t-40 15.5t-93 7.5h-5q-47 0 -77.5 -6.5t-43 -17.5t-16 -18.5t-4.5 -17.5
h-207v2q0 26 4 46.5t23 47.5t51 45t94.5 30.5t148.5 12.5h55q90 0 154 -11t98 -27t53 -41.5t23 -45.5t4 -49v-206q0 -27 28 -27h29v-146q-30 -22 -44.5 -35.5t-14.5 -27.5q0 -23 38 -23h21v-102zM519 239v17l-213 -33q-44 -7 -62.5 -17.5t-18.5 -32.5v-1q0 -25 23 -43
t75 -18q86 0 141 38.5t55 89.5z" />
    <glyph glyph-name="Cacute" unicode="&#x106;" horiz-adv-x="1083" 
d="M434 796l90 150h240l-105 -150h-225zM563 -13h-41q-89 0 -163 14t-124.5 36.5t-89.5 54.5t-61 65t-36.5 71t-19 69t-4.5 63v29q0 47 9 90.5t40.5 96.5t83 91t146 64t219.5 26h41q103 0 186 -15.5t135 -41.5t89 -56.5t55 -65.5t25.5 -62t7.5 -52v-11h-247q-4 12 -8 21.5
t-22.5 30.5t-45 35t-78 25.5t-118.5 11.5q-80 0 -136.5 -16.5t-85 -45.5t-40.5 -61t-12 -70v-12q0 -36 13.5 -69t42.5 -65t86 -51t134 -19q232 0 271 132h247v-11q0 -27 -8 -55.5t-26.5 -64.5t-56 -67t-89.5 -57.5t-134.5 -42t-184.5 -15.5z" />
    <glyph glyph-name="cacute" unicode="&#x107;" horiz-adv-x="844" 
d="M317 590l90 154h230l-107 -154h-213zM449 -15h-55q-88 0 -156.5 17.5t-108.5 45t-66 65.5t-35 74t-9 75v20q0 39 9 74.5t34.5 72.5t66 63.5t108.5 43.5t156 17h57q80 0 144 -12t103.5 -33t67 -45t40.5 -52t18 -50t5 -43v-3h-229q-23 97 -178 97h-3q-90 0 -130.5 -37.5
t-40.5 -95.5v-7q0 -61 40.5 -102.5t130.5 -41.5h3q52 0 89.5 11.5t55 30.5t24.5 32t9 25h229v-2q0 -28 -6 -54.5t-29 -62t-61.5 -61t-111.5 -44t-171 -18.5z" />
    <glyph glyph-name="Ccircumflex" unicode="&#x108;" horiz-adv-x="1083" 
d="M667 946l160 -150h-220l-66 58l-65 -58h-217l157 150h251zM563 -13h-41q-89 0 -163 14t-124.5 36.5t-89.5 54.5t-61 65t-36.5 71t-19 69t-4.5 63v29q0 47 9 90.5t40.5 96.5t83 91t146 64t219.5 26h41q103 0 186 -15.5t135 -41.5t89 -56.5t55 -65.5t25.5 -62t7.5 -52v-11
h-247q-4 12 -8 21.5t-22.5 30.5t-45 35t-78 25.5t-118.5 11.5q-80 0 -136.5 -16.5t-85 -45.5t-40.5 -61t-12 -70v-12q0 -36 13.5 -69t42.5 -65t86 -51t134 -19q232 0 271 132h247v-11q0 -27 -8 -55.5t-26.5 -64.5t-56 -67t-89.5 -57.5t-134.5 -42t-184.5 -15.5z" />
    <glyph glyph-name="ccircumflex" unicode="&#x109;" horiz-adv-x="844" 
d="M546 744l152 -155h-215l-61 64l-61 -64h-212l150 155h247zM449 -15h-55q-88 0 -156.5 17.5t-108.5 45t-66 65.5t-35 74t-9 75v20q0 39 9 74.5t34.5 72.5t66 63.5t108.5 43.5t156 17h57q80 0 144 -12t103.5 -33t67 -45t40.5 -52t18 -50t5 -43v-3h-229q-23 97 -178 97h-3
q-90 0 -130.5 -37.5t-40.5 -95.5v-7q0 -61 40.5 -102.5t130.5 -41.5h3q52 0 89.5 11.5t55 30.5t24.5 32t9 25h229v-2q0 -28 -6 -54.5t-29 -62t-61.5 -61t-111.5 -44t-171 -18.5z" />
    <glyph glyph-name="Cdotaccent" unicode="&#x10a;" horiz-adv-x="1083" 
d="M655 950v-154h-223v154h223zM563 -13h-41q-89 0 -163 14t-124.5 36.5t-89.5 54.5t-61 65t-36.5 71t-19 69t-4.5 63v29q0 47 9 90.5t40.5 96.5t83 91t146 64t219.5 26h41q103 0 186 -15.5t135 -41.5t89 -56.5t55 -65.5t25.5 -62t7.5 -52v-11h-247q-4 12 -8 21.5
t-22.5 30.5t-45 35t-78 25.5t-118.5 11.5q-80 0 -136.5 -16.5t-85 -45.5t-40.5 -61t-12 -70v-12q0 -36 13.5 -69t42.5 -65t86 -51t134 -19q232 0 271 132h247v-11q0 -27 -8 -55.5t-26.5 -64.5t-56 -67t-89.5 -57.5t-134.5 -42t-184.5 -15.5z" />
    <glyph glyph-name="cdotaccent" unicode="&#x10b;" horiz-adv-x="844" 
d="M535 744v-154h-223v154h223zM449 -15h-55q-88 0 -156.5 17.5t-108.5 45t-66 65.5t-35 74t-9 75v20q0 39 9 74.5t34.5 72.5t66 63.5t108.5 43.5t156 17h57q80 0 144 -12t103.5 -33t67 -45t40.5 -52t18 -50t5 -43v-3h-229q-23 97 -178 97h-3q-90 0 -130.5 -37.5
t-40.5 -95.5v-7q0 -61 40.5 -102.5t130.5 -41.5h3q52 0 89.5 11.5t55 30.5t24.5 32t9 25h229v-2q0 -28 -6 -54.5t-29 -62t-61.5 -61t-111.5 -44t-171 -18.5z" />
    <glyph glyph-name="Ccaron" unicode="&#x10c;" horiz-adv-x="1083" 
d="M419 796l-160 150h220l66 -58l65 58h217l-157 -150h-251zM563 -13h-41q-89 0 -163 14t-124.5 36.5t-89.5 54.5t-61 65t-36.5 71t-19 69t-4.5 63v29q0 47 9 90.5t40.5 96.5t83 91t146 64t219.5 26h41q103 0 186 -15.5t135 -41.5t89 -56.5t55 -65.5t25.5 -62t7.5 -52v-11
h-247q-4 12 -8 21.5t-22.5 30.5t-45 35t-78 25.5t-118.5 11.5q-80 0 -136.5 -16.5t-85 -45.5t-40.5 -61t-12 -70v-12q0 -36 13.5 -69t42.5 -65t86 -51t134 -19q232 0 271 132h247v-11q0 -27 -8 -55.5t-26.5 -64.5t-56 -67t-89.5 -57.5t-134.5 -42t-184.5 -15.5z" />
    <glyph glyph-name="ccaron" unicode="&#x10d;" horiz-adv-x="844" 
d="M301 590l-152 154h215l61 -63l61 63h212l-150 -154h-247zM449 -15h-55q-88 0 -156.5 17.5t-108.5 45t-66 65.5t-35 74t-9 75v20q0 39 9 74.5t34.5 72.5t66 63.5t108.5 43.5t156 17h57q80 0 144 -12t103.5 -33t67 -45t40.5 -52t18 -50t5 -43v-3h-229q-23 97 -178 97h-3
q-90 0 -130.5 -37.5t-40.5 -95.5v-7q0 -61 40.5 -102.5t130.5 -41.5h3q52 0 89.5 11.5t55 30.5t24.5 32t9 25h229v-2q0 -28 -6 -54.5t-29 -62t-61.5 -61t-111.5 -44t-171 -18.5z" />
    <glyph glyph-name="Dcaron" unicode="&#x10e;" horiz-adv-x="1092" 
d="M54 0v744h493q104 0 188 -14t140 -40.5t96 -59t61 -73.5t30.5 -80.5t9.5 -84.5v-30q0 -53 -12 -100t-47.5 -96.5t-91.5 -85t-152 -58t-221 -22.5h-494zM287 568v-389h242q299 0 299 192v6q0 191 -299 191h-242zM340 796l-160 150h220l66 -58l65 58h217l-157 -150h-251z
" />
    <glyph glyph-name="dcaron" unicode="&#x10f;" horiz-adv-x="903" 
d="M635 268v4q0 56 -55 97t-149 41h-5q-97 0 -138 -39t-41 -99v-4q0 -56 45 -97.5t136 -41.5h5q94 0 148 41.5t54 97.5zM635 744h224v-744h-222v82q-8 -11 -24.5 -24t-48 -30.5t-82.5 -29t-111 -11.5h-13q-170 0 -254.5 77.5t-84.5 199.5v19q0 118 80 193t250 75h16
q173 0 270 -85v278zM890 578l15 166h179l-30 -166h-164z" />
    <glyph glyph-name="Dcroat" unicode="&#x110;" horiz-adv-x="1098" 
d="M60 0v300h-62v149h62v295h493q104 0 188 -14t140 -40.5t96 -59t61 -73.5t30.5 -80.5t9.5 -84.5v-30q0 -53 -12 -100t-47.5 -96.5t-91.5 -85t-152 -58t-221 -22.5h-494zM293 568v-119h331v-149h-331v-121h242q299 0 299 192v6q0 191 -299 191h-242z" />
    <glyph glyph-name="dcroat" unicode="&#x111;" horiz-adv-x="903" 
d="M635 744h224v-50h77v-103h-77v-591h-222v82q-8 -11 -24.5 -24t-48 -30.5t-82.5 -29t-111 -11.5h-13q-170 0 -254.5 77.5t-84.5 199.5v19q0 118 80 193t250 75h16q173 0 270 -85v125h-286v103h286v50zM635 268v4q0 56 -55 97t-149 41h-5q-97 0 -138 -39t-41 -99v-4
q0 -56 45 -97.5t136 -41.5h5q94 0 148 41.5t54 97.5z" />
    <glyph glyph-name="Emacron" unicode="&#x112;" horiz-adv-x="885" 
d="M54 744h784v-169h-554v-110h541v-170h-541v-122h564v-173h-794v744zM235 804v126h441v-126h-441z" />
    <glyph glyph-name="emacron" unicode="&#x113;" horiz-adv-x="845" 
d="M421 428q-152 0 -179 -91h360q-22 91 -180 91h-1zM824 189q0 -25 -7 -49.5t-31 -53.5t-62 -50.5t-107.5 -36t-161.5 -14.5h-57q-104 0 -180 22.5t-118 62.5t-61.5 87t-19.5 103v22q0 55 18 101t58.5 85.5t116 62t180.5 22.5h61q374 0 374 -290v-37h-589q22 -105 190 -105
h1q42 0 74.5 6t50.5 14t29.5 18.5t15.5 17.5t5 13h220v-1zM212 601v122h422v-122h-422z" />
    <glyph glyph-name="Ebreve" unicode="&#x114;" horiz-adv-x="885" 
d="M54 744h784v-169h-554v-110h541v-170h-541v-122h564v-173h-794v744zM441 787q-64 0 -110 17.5t-67.5 45.5t-30.5 52t-9 47v2h172q4 -48 63 -48q24 0 39 10t18.5 19t4.5 19h168v-2q0 -21 -10.5 -46.5t-33.5 -52.5t-67.5 -45t-102.5 -18h-34z" />
    <glyph glyph-name="ebreve" unicode="&#x115;" horiz-adv-x="845" 
d="M409 582q-64 0 -109.5 17t-67 44.5t-30 51.5t-8.5 47v2h170q4 -49 62 -49q34 0 47 16t14 33h166v-2q0 -22 -10.5 -47t-32.5 -51.5t-66.5 -44t-102.5 -17.5h-32zM421 428q-152 0 -179 -91h360q-22 91 -180 91h-1zM824 189q0 -25 -7 -49.5t-31 -53.5t-62 -50.5t-107.5 -36
t-161.5 -14.5h-57q-104 0 -180 22.5t-118 62.5t-61.5 87t-19.5 103v22q0 55 18 101t58.5 85.5t116 62t180.5 22.5h61q374 0 374 -290v-37h-589q22 -105 190 -105h1q42 0 74.5 6t50.5 14t29.5 18.5t15.5 17.5t5 13h220v-1z" />
    <glyph glyph-name="Edotaccent" unicode="&#x116;" horiz-adv-x="885" 
d="M54 744h784v-169h-554v-110h541v-170h-541v-122h564v-173h-794v744zM567 950v-154h-223v154h223z" />
    <glyph glyph-name="edotaccent" unicode="&#x117;" horiz-adv-x="845" 
d="M535 744v-154h-223v154h223zM421 428q-152 0 -179 -91h360q-22 91 -180 91h-1zM824 189q0 -25 -7 -49.5t-31 -53.5t-62 -50.5t-107.5 -36t-161.5 -14.5h-57q-104 0 -180 22.5t-118 62.5t-61.5 87t-19.5 103v22q0 55 18 101t58.5 85.5t116 62t180.5 22.5h61
q374 0 374 -290v-37h-589q22 -105 190 -105h1q42 0 74.5 6t50.5 14t29.5 18.5t15.5 17.5t5 13h220v-1z" />
    <glyph glyph-name="Eogonek" unicode="&#x118;" horiz-adv-x="885" 
d="M54 744h784v-169h-554v-110h541v-170h-541v-122h564v-173h-114q-30 -22 -44.5 -35.5t-14.5 -27.5q0 -23 38 -23h25v-102h-139q-130 0 -130 71v2q0 38 41.5 64t127.5 51h-584v744z" />
    <glyph glyph-name="eogonek" unicode="&#x119;" horiz-adv-x="845" 
d="M421 428q-152 0 -179 -91h360q-22 91 -180 91h-1zM693 -86v-102h-139q-130 0 -130 71v2q0 35 36.5 59t115.5 49q-56 -8 -121 -8h-57q-104 0 -180 22.5t-118 62.5t-61.5 87t-19.5 103v22q0 55 18 101t58.5 85.5t116 62t180.5 22.5h61q374 0 374 -290v-37h-589
q22 -105 190 -105h1q42 0 74.5 6t50.5 14t29.5 18.5t15.5 17.5t5 13h220v-1q0 -56 -33.5 -99t-101.5 -90q-30 -22 -44.5 -35.5t-14.5 -27.5q0 -23 38 -23h25z" />
    <glyph glyph-name="Ecaron" unicode="&#x11a;" horiz-adv-x="885" 
d="M54 744h784v-169h-554v-110h541v-170h-541v-122h564v-173h-794v744zM332 796l-160 150h220l66 -58l65 58h217l-157 -150h-251z" />
    <glyph glyph-name="ecaron" unicode="&#x11b;" horiz-adv-x="845" 
d="M301 590l-152 154h215l61 -63l61 63h212l-150 -154h-247zM421 428q-152 0 -179 -91h360q-22 91 -180 91h-1zM824 189q0 -25 -7 -49.5t-31 -53.5t-62 -50.5t-107.5 -36t-161.5 -14.5h-57q-104 0 -180 22.5t-118 62.5t-61.5 87t-19.5 103v22q0 55 18 101t58.5 85.5t116 62
t180.5 22.5h61q374 0 374 -290v-37h-589q22 -105 190 -105h1q42 0 74.5 6t50.5 14t29.5 18.5t15.5 17.5t5 13h220v-1z" />
    <glyph glyph-name="Gcircumflex" unicode="&#x11c;" horiz-adv-x="1115" 
d="M673 946l160 -150h-220l-66 58l-65 -58h-217l157 150h251zM541 -13h-21q-116 0 -206 25t-143.5 63.5t-87.5 90t-46.5 99t-12.5 96.5v28q0 49 10.5 94.5t44 97t86.5 89t146.5 62.5t216.5 25h43q119 0 210.5 -20t142.5 -49.5t84 -70t43.5 -74t12.5 -68.5v-1h-248
q-37 106 -265 106q-283 0 -283 -201v-11q0 -82 69.5 -141t211.5 -59q63 0 115 9t83 22.5t52.5 29t29.5 27t8 18.5v2h-292v141h524v-417h-140q-7 60 -30 116q-15 -19 -38 -37t-64.5 -41t-108 -37t-147.5 -14z" />
    <glyph glyph-name="gcircumflex" unicode="&#x11d;" horiz-adv-x="911" 
d="M436 411h-6q-100 0 -142 -34t-42 -86v-5q0 -52 44.5 -88.5t139.5 -36.5h6q100 0 151.5 36.5t51.5 87.5v4q0 52 -52 87t-151 35zM489 -195h-71q-96 0 -167.5 16.5t-108 38.5t-58.5 51.5t-27 48.5t-5 37v3h225q7 -50 172 -50h3q192 0 192 155q-88 -81 -262 -81h-12
q-179 0 -265 72t-86 185v20q0 108 78 179t245 71h21q189 0 280 -85v72h224v-440q0 -35 -7 -69t-31.5 -76t-63.5 -73.5t-110.5 -53t-165.5 -21.5zM549 744l152 -155h-215l-61 64l-61 -64h-212l150 155h247z" />
    <glyph glyph-name="Gbreve" unicode="&#x11e;" horiz-adv-x="1115" 
d="M541 -13h-21q-116 0 -206 25t-143.5 63.5t-87.5 90t-46.5 99t-12.5 96.5v28q0 49 10.5 94.5t44 97t86.5 89t146.5 62.5t216.5 25h43q119 0 210.5 -20t142.5 -49.5t84 -70t43.5 -74t12.5 -68.5v-1h-248q-37 106 -265 106q-283 0 -283 -201v-11q0 -82 69.5 -141t211.5 -59
q63 0 115 9t83 22.5t52.5 29t29.5 27t8 18.5v2h-292v141h524v-417h-140q-7 60 -30 116q-15 -19 -38 -37t-64.5 -41t-108 -37t-147.5 -14zM534 787q-64 0 -110 17.5t-67.5 45.5t-30.5 52t-9 47v2h172q4 -48 63 -48q24 0 39 10t18.5 19t4.5 19h168v-2q0 -21 -10.5 -46.5
t-33.5 -52.5t-67.5 -45t-102.5 -18h-34z" />
    <glyph glyph-name="gbreve" unicode="&#x11f;" horiz-adv-x="911" 
d="M436 411h-6q-100 0 -142 -34t-42 -86v-5q0 -52 44.5 -88.5t139.5 -36.5h6q100 0 151.5 36.5t51.5 87.5v4q0 52 -52 87t-151 35zM489 -195h-71q-96 0 -167.5 16.5t-108 38.5t-58.5 51.5t-27 48.5t-5 37v3h225q7 -50 172 -50h3q192 0 192 155q-88 -81 -262 -81h-12
q-179 0 -265 72t-86 185v20q0 108 78 179t245 71h21q189 0 280 -85v72h224v-440q0 -35 -7 -69t-31.5 -76t-63.5 -73.5t-110.5 -53t-165.5 -21.5zM413 582q-64 0 -109.5 17t-67 44.5t-30 51.5t-8.5 47v2h170q4 -49 62 -49q34 0 47 16t14 33h166v-2q0 -22 -10.5 -47
t-32.5 -51.5t-66.5 -44t-102.5 -17.5h-32z" />
    <glyph glyph-name="Gdotaccent" unicode="&#x120;" horiz-adv-x="1115" 
d="M661 950v-154h-223v154h223zM541 -13h-21q-116 0 -206 25t-143.5 63.5t-87.5 90t-46.5 99t-12.5 96.5v28q0 49 10.5 94.5t44 97t86.5 89t146.5 62.5t216.5 25h43q119 0 210.5 -20t142.5 -49.5t84 -70t43.5 -74t12.5 -68.5v-1h-248q-37 106 -265 106q-283 0 -283 -201v-11
q0 -82 69.5 -141t211.5 -59q63 0 115 9t83 22.5t52.5 29t29.5 27t8 18.5v2h-292v141h524v-417h-140q-7 60 -30 116q-15 -19 -38 -37t-64.5 -41t-108 -37t-147.5 -14z" />
    <glyph glyph-name="gdotaccent" unicode="&#x121;" horiz-adv-x="911" 
d="M437 411h-6q-100 0 -142 -34t-42 -86v-5q0 -52 44.5 -88.5t139.5 -36.5h6q100 0 151.5 36.5t51.5 87.5v4q0 52 -52 87t-151 35zM490 -195h-71q-96 0 -167.5 16.5t-108 38.5t-58.5 51.5t-27 48.5t-5 37v3h225q7 -50 172 -50h3q192 0 192 155q-88 -81 -262 -81h-12
q-179 0 -265 72t-86 185v20q0 108 78 179t245 71h21q189 0 280 -85v72h224v-440q0 -35 -7 -69t-31.5 -76t-63.5 -73.5t-110.5 -53t-165.5 -21.5zM535 744v-154h-223v154h223z" />
    <glyph glyph-name="uni0122" unicode="&#x122;" horiz-adv-x="1115" 
d="M541 -13h-21q-116 0 -206 25t-143.5 63.5t-87.5 90t-46.5 99t-12.5 96.5v28q0 49 10.5 94.5t44 97t86.5 89t146.5 62.5t216.5 25h43q119 0 210.5 -20t142.5 -49.5t84 -70t43.5 -74t12.5 -68.5v-1h-248q-37 106 -265 106q-283 0 -283 -201v-11q0 -82 69.5 -141t211.5 -59
q63 0 115 9t83 22.5t52.5 29t29.5 27t8 18.5v2h-292v141h524v-417h-140q-7 60 -30 116q-15 -19 -38 -37t-64.5 -41t-108 -37t-147.5 -14zM599 -283h-113q22 49 29 81h-100v150h223v-120q0 -51 -39 -111z" />
    <glyph glyph-name="uni0123" unicode="&#x123;" horiz-adv-x="911" 
d="M436 411h-6q-100 0 -142 -34t-42 -86v-5q0 -52 44.5 -88.5t139.5 -36.5h6q100 0 151.5 36.5t51.5 87.5v4q0 52 -52 87t-151 35zM489 -195h-71q-96 0 -167.5 16.5t-108 38.5t-58.5 51.5t-27 48.5t-5 37v3h225q7 -50 172 -50h3q192 0 192 155q-88 -81 -262 -81h-12
q-179 0 -265 72t-86 185v20q0 108 78 179t245 71h21q189 0 280 -85v72h224v-440q0 -35 -7 -69t-31.5 -76t-63.5 -73.5t-110.5 -53t-165.5 -21.5zM351 821h113q-22 -49 -29 -81h100v-150h-223v120q0 51 39 111z" />
    <glyph glyph-name="Hcircumflex" unicode="&#x124;" horiz-adv-x="1074" 
d="M54 0v744h233v-271h500v271h233v-744h-233v293h-500v-293h-233zM661 946l160 -150h-220l-66 58l-65 -58h-217l157 150h251z" />
    <glyph glyph-name="hcircumflex" unicode="&#x125;" horiz-adv-x="843" 
d="M44 0v744h223v-296q106 102 265 102h7q130 0 196 -61.5t66 -148.5v-340h-225v266q0 63 -36 98.5t-108 35.5q-75 0 -120 -40t-45 -106v-254h-223zM526 946l160 -150h-220l-66 58l-65 -58h-217l157 150h251z" />
    <glyph glyph-name="Hbar" unicode="&#x126;" horiz-adv-x="1098" 
d="M-8 552v122h74v70h233v-70h500v70h233v-70h74v-122h-74v-552h-233v293h-500v-293h-233v552h-74zM299 473h500v79h-500v-79z" />
    <glyph glyph-name="hbar" unicode="&#x127;" horiz-adv-x="843" 
d="M44 0v591h-77v103h77v50h223v-50h257v-103h-257v-143q106 102 265 102h7q130 0 196 -61.5t66 -148.5v-340h-225v266q0 63 -36 98.5t-108 35.5q-75 0 -120 -40t-45 -106v-254h-223z" />
    <glyph glyph-name="Itilde" unicode="&#x128;" horiz-adv-x="341" 
d="M287 744v-744h-233v744h233zM293 802q-44 0 -128 29q-42 15 -61 15q-18 0 -18 -21v-31h-146v81q0 40 22.5 69t77.5 29h6q42 0 128 -29q45 -15 61 -15q18 0 18 21v30h146v-80q0 -40 -22 -69t-78 -29h-6z" />
    <glyph glyph-name="itilde" unicode="&#x129;" horiz-adv-x="311" 
d="M253 594q-28 0 -101 29q-34 14 -45 14q-13 0 -13 -21v-29h-122v72q0 39 18.5 68t62.5 29h4q35 0 102 -29q33 -14 44 -14q13 0 13 22v29h122v-72q0 -98 -80 -98h-5zM267 538v-538h-223v538h223z" />
    <glyph glyph-name="Imacron" unicode="&#x12a;" horiz-adv-x="341" 
d="M-24 804v126h389v-126h-389zM287 744v-744h-233v744h233z" />
    <glyph glyph-name="imacron" unicode="&#x12b;" horiz-adv-x="311" 
d="M-19 601v122h349v-122h-349zM267 538v-538h-223v538h223z" />
    <glyph glyph-name="Ibreve" unicode="&#x12c;" horiz-adv-x="341" 
d="M287 744v-744h-233v744h233zM155 787q-64 0 -110 17.5t-67.5 45.5t-30.5 52t-9 47v2h172q4 -48 63 -48q24 0 39 10t18.5 19t4.5 19h168v-2q0 -21 -10.5 -46.5t-33.5 -52.5t-67.5 -45t-102.5 -18h-34z" />
    <glyph glyph-name="ibreve" unicode="&#x12d;" horiz-adv-x="311" 
d="M149 583q-53 0 -91.5 15.5t-57.5 41.5t-27 51t-8 51v2h144q3 -43 47 -43q43 0 46 43h144v-2q0 -26 -8.5 -51t-27 -50.5t-57 -41.5t-90.5 -16h-14zM267 538v-538h-223v538h223z" />
    <glyph glyph-name="Iogonek" unicode="&#x12e;" horiz-adv-x="341" 
d="M287 -188h-135q-130 0 -130 71v2q0 38 41.5 64t127.5 51h-137v744h233v-744q-30 -22 -44.5 -35.5t-14.5 -27.5q0 -23 38 -23h21v-102z" />
    <glyph glyph-name="iogonek" unicode="&#x12f;" horiz-adv-x="311" 
d="M267 -188h-135q-130 0 -130 71v2q0 38 41.5 64t127.5 51h-127v538h223v-538q-30 -22 -44.5 -35.5t-14.5 -27.5q0 -23 38 -23h21v-102zM267 744v-154h-223v154h223z" />
    <glyph glyph-name="Idotaccent" unicode="&#x130;" horiz-adv-x="341" 
d="M287 744v-744h-233v744h233zM282 950v-154h-223v154h223z" />
    <glyph glyph-name="dotlessi" unicode="&#x131;" horiz-adv-x="311" 
d="M267 538v-538h-223v538h223z" />
    <glyph glyph-name="IJ" unicode="&#x132;" horiz-adv-x="1231" 
d="M287 744v-744h-233v744h233zM740 -11q-89 0 -159.5 20t-114 52.5t-71.5 75.5t-39 86t-11 88v6h236q1 -15 4 -28t14.5 -36t29 -39t52 -28t80.5 -12h12q89 0 134 48.5t45 135.5v386h234v-392q0 -50 -9.5 -97t-36.5 -97t-69 -86t-113 -59.5t-162 -23.5h-56z" />
    <glyph glyph-name="ij" unicode="&#x133;" horiz-adv-x="622" 
d="M267 744v-154h-223v154h223zM267 538v-538h-223v538h223zM578 744v-154h-223v154h223zM282 -31h41q17 0 24.5 8t7.5 30v531h223v-587q0 -71 -28 -105t-74 -34h-194v157z" />
    <glyph glyph-name="Jcircumflex" unicode="&#x134;" horiz-adv-x="890" 
d="M399 -11q-89 0 -159.5 20t-114 52.5t-71.5 75.5t-39 86t-11 88v6h236q1 -15 4 -28t14.5 -36t29 -39t52 -28t80.5 -12h12q89 0 134 48.5t45 135.5v386h234v-392q0 -50 -9.5 -97t-36.5 -97t-69 -86t-113 -59.5t-162 -23.5h-56zM851 946l160 -150h-220l-66 58l-65 -58h-217
l157 150h251z" />
    <glyph glyph-name="jcircumflex" unicode="&#x135;" horiz-adv-x="311" 
d="M268 744l108 -154h-177l-45 64l-45 -64h-174l106 154h227zM-29 -31h41q17 0 24.5 8t7.5 30v531h223v-587q0 -71 -28 -105t-74 -34h-194v157z" />
    <glyph glyph-name="uni0136" unicode="&#x136;" horiz-adv-x="962" 
d="M287 0h-233v744h233v-310l381 310h296l-428 -340l448 -404h-304l-393 351v-351zM539 -283h-113q22 49 29 81h-100v150h223v-120q0 -51 -39 -111z" />
    <glyph glyph-name="uni0137" unicode="&#x137;" horiz-adv-x="745" 
d="M267 0h-223v744h223v-421l218 215h247l-254 -243l285 -295h-262l-234 247v-247zM455 -283h-113q22 49 29 81h-100v150h223v-120q0 -51 -39 -111z" />
    <glyph glyph-name="Lacute" unicode="&#x139;" horiz-adv-x="830" 
d="M54 744h233v-559h517v-185h-750v744zM64 796l90 150h240l-105 -150h-225z" />
    <glyph glyph-name="lacute" unicode="&#x13a;" horiz-adv-x="311" 
d="M53 796l85 145h230l-102 -145h-213zM267 744v-744h-223v744h223z" />
    <glyph glyph-name="uni013B" unicode="&#x13b;" horiz-adv-x="830" 
d="M54 744h233v-559h517v-185h-750v744zM506 -283h-113q22 49 29 81h-100v150h223v-120q0 -51 -39 -111z" />
    <glyph glyph-name="uni013C" unicode="&#x13c;" horiz-adv-x="311" 
d="M267 744v-744h-223v744h223zM228 -283h-113q22 49 29 81h-100v150h223v-120q0 -51 -39 -111z" />
    <glyph glyph-name="Lcaron" unicode="&#x13d;" horiz-adv-x="830" 
d="M54 744h233v-559h517v-185h-750v744zM318 578l15 166h179l-30 -166h-164z" />
    <glyph glyph-name="lcaron" unicode="&#x13e;" horiz-adv-x="311" 
d="M267 744v-744h-223v744h223zM298 578l15 166h179l-30 -166h-164z" />
    <glyph glyph-name="Ldot" unicode="&#x13f;" horiz-adv-x="825" 
d="M54 744h233v-559h517v-185h-750v744zM723 503v-175h-241v175h241z" />
    <glyph glyph-name="ldot" unicode="&#x140;" horiz-adv-x="548" 
d="M544 472v-175h-227v175h227zM267 744v-744h-223v744h223z" />
    <glyph glyph-name="Lslash" unicode="&#x141;" horiz-adv-x="843" 
d="M67 744h233v-314l311 114v-148l-311 -110v-101h517v-185h-750v204l-72 -25v140l72 26v399z" />
    <glyph glyph-name="lslash" unicode="&#x142;" horiz-adv-x="327" 
d="M275 744v-230l55 27v-139l-55 -27v-375h-223v268l-55 -26v134l55 27v341h223z" />
    <glyph glyph-name="Nacute" unicode="&#x143;" horiz-adv-x="1073" 
d="M54 744h260l475 -468v468h230v-744h-230l-505 493v-493h-230v744zM427 796l90 150h240l-105 -150h-225z" />
    <glyph glyph-name="nacute" unicode="&#x144;" horiz-adv-x="843" 
d="M44 0v538h221v-92q108 104 267 104h7q131 0 196.5 -61.5t65.5 -148.5v-340h-225v266q0 63 -36 98.5t-108 35.5q-75 0 -120 -40t-45 -106v-254h-223zM315 590l90 154h230l-107 -154h-213z" />
    <glyph glyph-name="uni0145" unicode="&#x145;" horiz-adv-x="1073" 
d="M54 744h260l475 -468v468h230v-744h-230l-505 493v-493h-230v744zM607 -283h-113q22 49 29 81h-100v150h223v-120q0 -51 -39 -111z" />
    <glyph glyph-name="uni0146" unicode="&#x146;" horiz-adv-x="843" 
d="M44 0v538h221v-92q108 104 267 104h7q131 0 196.5 -61.5t65.5 -148.5v-340h-225v266q0 63 -36 98.5t-108 35.5q-75 0 -120 -40t-45 -106v-254h-223zM494 -283h-113q22 49 29 81h-100v150h223v-120q0 -51 -39 -111z" />
    <glyph glyph-name="Ncaron" unicode="&#x147;" horiz-adv-x="1073" 
d="M54 744h260l475 -468v468h230v-744h-230l-505 493v-493h-230v744zM412 796l-160 150h220l66 -58l65 58h217l-157 -150h-251z" />
    <glyph glyph-name="ncaron" unicode="&#x148;" horiz-adv-x="843" 
d="M44 0v538h221v-92q108 104 267 104h7q131 0 196.5 -61.5t65.5 -148.5v-340h-225v266q0 63 -36 98.5t-108 35.5q-75 0 -120 -40t-45 -106v-254h-223zM297 590l-152 154h215l61 -63l61 63h212l-150 -154h-247z" />
    <glyph glyph-name="napostrophe" unicode="&#x149;" horiz-adv-x="1059" 
d="M260 0v538h221v-92q108 104 267 104h7q131 0 196.5 -61.5t65.5 -148.5v-340h-225v266q0 63 -36 98.5t-108 35.5q-75 0 -120 -40t-45 -106v-254h-223zM186 498h-122q30 52 36 94h-100v152h232v-125q0 -27 -14 -61.5t-32 -59.5z" />
    <glyph glyph-name="Eng" unicode="&#x14a;" horiz-adv-x="1073" 
d="M1019 25q0 -107 -47.5 -160t-127.5 -53h-160v167h80q22 0 22 14q0 9 -33 42l-469 458v-493h-230v744h260l475 -468v468h230v-719z" />
    <glyph glyph-name="eng" unicode="&#x14b;" horiz-adv-x="843" 
d="M801 340v-389q0 -71 -28 -105t-74 -34h-223v162h65q19 0 27 9t8 32v251q0 63 -36 98.5t-108 35.5q-75 0 -120 -40t-45 -106v-254h-223v538h221v-92q108 104 267 104h7q131 0 196.5 -61.5t65.5 -148.5z" />
    <glyph glyph-name="Omacron" unicode="&#x14c;" horiz-adv-x="1138" 
d="M548 757h43q97 0 176 -13.5t132.5 -35.5t93.5 -54t62.5 -64t36.5 -70t18 -68t4 -63v-30q0 -32 -4 -62t-18 -68.5t-36 -71t-62.5 -65t-93.5 -55t-132.5 -36.5t-176.5 -14h-43q-97 0 -177 14t-133 36.5t-93.5 55t-63 65t-36 71t-17.5 68.5t-4 62v30q0 33 4 62.5t17.5 68
t36 70.5t62.5 64t93.5 54t133.5 35.5t177 13.5zM870 382q0 28 -7 53.5t-27 52t-52 45.5t-87.5 31.5t-127.5 12.5q-301 0 -301 -195v-12q0 -36 12.5 -68t43 -64t93.5 -51t152 -19t151.5 18.5t93.5 50t43.5 63.5t12.5 68v14zM349 804v126h441v-126h-441z" />
    <glyph glyph-name="omacron" unicode="&#x14d;" horiz-adv-x="880" 
d="M406 -15q-90 0 -159.5 17t-111.5 44.5t-69 65t-37 74t-10 77.5v18q0 40 10 76t36.5 73t68.5 63.5t111.5 43t159.5 16.5h71q385 0 385 -272v-18q0 -42 -7.5 -77t-32.5 -74t-65.5 -65.5t-112 -44t-167.5 -17.5h-70zM441 130q104 0 149 41t45 98v5q0 58 -45 97t-148 39h-1
q-105 0 -149.5 -38.5t-44.5 -97.5v-5q0 -57 45 -98t149 -41zM229 601v122h422v-122h-422z" />
    <glyph glyph-name="Obreve" unicode="&#x14e;" horiz-adv-x="1138" 
d="M548 757h43q97 0 176 -13.5t132.5 -35.5t93.5 -54t62.5 -64t36.5 -70t18 -68t4 -63v-30q0 -32 -4 -62t-18 -68.5t-36 -71t-62.5 -65t-93.5 -55t-132.5 -36.5t-176.5 -14h-43q-97 0 -177 14t-133 36.5t-93.5 55t-63 65t-36 71t-17.5 68.5t-4 62v30q0 33 4 62.5t17.5 68
t36 70.5t62.5 64t93.5 54t133.5 35.5t177 13.5zM870 382q0 28 -7 53.5t-27 52t-52 45.5t-87.5 31.5t-127.5 12.5q-301 0 -301 -195v-12q0 -36 12.5 -68t43 -64t93.5 -51t152 -19t151.5 18.5t93.5 50t43.5 63.5t12.5 68v14zM554 787q-64 0 -110 17.5t-67.5 45.5t-30.5 52
t-9 47v2h172q4 -48 63 -48q24 0 39 10t18.5 19t4.5 19h168v-2q0 -21 -10.5 -46.5t-33.5 -52.5t-67.5 -45t-102.5 -18h-34z" />
    <glyph glyph-name="obreve" unicode="&#x14f;" horiz-adv-x="880" 
d="M426 582q-64 0 -109.5 17t-67 44.5t-30 51.5t-8.5 47v2h170q4 -49 62 -49q34 0 47 16t14 33h166v-2q0 -22 -10.5 -47t-32.5 -51.5t-66.5 -44t-102.5 -17.5h-32zM406 -15q-90 0 -159.5 17t-111.5 44.5t-69 65t-37 74t-10 77.5v18q0 40 10 76t36.5 73t68.5 63.5t111.5 43
t159.5 16.5h71q385 0 385 -272v-18q0 -42 -7.5 -77t-32.5 -74t-65.5 -65.5t-112 -44t-167.5 -17.5h-70zM441 130q104 0 149 41t45 98v5q0 58 -45 97t-148 39h-1q-105 0 -149.5 -38.5t-44.5 -97.5v-5q0 -57 45 -98t149 -41z" />
    <glyph glyph-name="Ohungarumlaut" unicode="&#x150;" horiz-adv-x="1138" 
d="M599 796l60 150h219l-67 -150h-212zM341 796l53 150h219l-60 -150h-212zM548 757h43q97 0 176 -13.5t132.5 -35.5t93.5 -54t62.5 -64t36.5 -70t18 -68t4 -63v-30q0 -32 -4 -62t-18 -68.5t-36 -71t-62.5 -65t-93.5 -55t-132.5 -36.5t-176.5 -14h-43q-97 0 -177 14
t-133 36.5t-93.5 55t-63 65t-36 71t-17.5 68.5t-4 62v30q0 33 4 62.5t17.5 68t36 70.5t62.5 64t93.5 54t133.5 35.5t177 13.5zM870 382q0 28 -7 53.5t-27 52t-52 45.5t-87.5 31.5t-127.5 12.5q-301 0 -301 -195v-12q0 -36 12.5 -68t43 -64t93.5 -51t152 -19t151.5 18.5
t93.5 50t43.5 63.5t12.5 68v14z" />
    <glyph glyph-name="ohungarumlaut" unicode="&#x151;" horiz-adv-x="880" 
d="M472 590l60 154h212l-67 -154h-205zM221 590l53 154h212l-60 -154h-205zM406 -15q-90 0 -159.5 17t-111.5 44.5t-69 65t-37 74t-10 77.5v18q0 40 10 76t36.5 73t68.5 63.5t111.5 43t159.5 16.5h71q385 0 385 -272v-18q0 -42 -7.5 -77t-32.5 -74t-65.5 -65.5t-112 -44
t-167.5 -17.5h-70zM441 130q104 0 149 41t45 98v5q0 58 -45 97t-148 39h-1q-105 0 -149.5 -38.5t-44.5 -97.5v-5q0 -57 45 -98t149 -41z" />
    <glyph glyph-name="OE" unicode="&#x152;" horiz-adv-x="1683" 
d="M565 576q-297 0 -297 -194v-12q0 -37 12.5 -69t42.5 -63.5t92 -50t150 -18.5q87 0 149 18t92.5 49t43 63t12.5 69v14q0 29 -7 54.5t-27 52t-51.5 45t-86 30.5t-125.5 12zM883 0v74q-39 -33 -122.5 -60t-200.5 -27h-39q-125 0 -219 26.5t-145.5 65.5t-83 92.5t-40.5 97
t-9 90.5v30q0 48 9 91t40 96t82.5 91t145.5 64t220 26h39q210 0 323 -75v62h753v-169h-544v-110h531v-170h-531v-122h554v-173h-763z" />
    <glyph glyph-name="oe" unicode="&#x153;" horiz-adv-x="1460" 
d="M1042 428q-151 0 -178 -91h357q-22 91 -178 91h-1zM438 130q104 0 148 41t44 98v5q0 58 -43.5 97t-146.5 39h-2q-104 0 -147.5 -38.5t-43.5 -97.5v-5q0 -57 44.5 -98t146.5 -41zM753 74q-85 -89 -302 -89h-49q-89 0 -158.5 17t-111 44.5t-68 65t-36 74t-9.5 77.5v18
q0 40 9.5 76t36 73t68 63.5t110.5 43t158 16.5h50q214 0 299 -87q85 87 284 87h42q366 0 366 -290v-37h-582q22 -105 188 -105h1q41 0 73.5 6t50.5 14t30 18.5t15.5 17.5t4.5 13h217v-1q0 -26 -6.5 -49.5t-29 -53t-60 -51t-106.5 -36t-161 -14.5h-37q-200 0 -287 89z" />
    <glyph glyph-name="Racute" unicode="&#x154;" horiz-adv-x="1012" 
d="M287 575v-146h353q47 0 70.5 20t23.5 53v1q0 32 -23 52t-71 20h-353zM287 264v-264h-233v744h600q323 0 323 -193v-12q0 -37 -14 -67.5t-37.5 -49t-44 -29t-42.5 -17.5q62 -16 101.5 -60t39.5 -111v-109q0 -63 14 -91v-5h-237q-11 14 -11 47v86q0 69 -35 100t-120 31
h-304zM383 796l90 150h240l-105 -150h-225z" />
    <glyph glyph-name="racute" unicode="&#x155;" horiz-adv-x="729" 
d="M267 278v-278h-223v538h221v-95q10 15 24.5 30t40.5 34t66 31t87 12h11q112 0 165.5 -65t53.5 -175v-31h-215q0 57 -27.5 93t-86.5 36h-1q-54 0 -85 -37.5t-31 -92.5zM250 590l90 154h230l-107 -154h-213z" />
    <glyph glyph-name="uni0156" unicode="&#x156;" horiz-adv-x="1012" 
d="M287 575v-146h353q47 0 70.5 20t23.5 53v1q0 32 -23 52t-71 20h-353zM287 264v-264h-233v744h600q323 0 323 -193v-12q0 -37 -14 -67.5t-37.5 -49t-44 -29t-42.5 -17.5q62 -16 101.5 -60t39.5 -111v-109q0 -63 14 -91v-5h-237q-11 14 -11 47v86q0 69 -35 100t-120 31
h-304zM591 -283h-113q22 49 29 81h-100v150h223v-120q0 -51 -39 -111z" />
    <glyph glyph-name="uni0157" unicode="&#x157;" horiz-adv-x="729" 
d="M267 278v-278h-223v538h221v-95q10 15 24.5 30t40.5 34t66 31t87 12h11q112 0 165.5 -65t53.5 -175v-31h-215q0 57 -27.5 93t-86.5 36h-1q-54 0 -85 -37.5t-31 -92.5zM228 -283h-113q22 49 29 81h-100v150h223v-120q0 -51 -39 -111z" />
    <glyph glyph-name="Rcaron" unicode="&#x158;" horiz-adv-x="1012" 
d="M287 575v-146h353q47 0 70.5 20t23.5 53v1q0 32 -23 52t-71 20h-353zM287 264v-264h-233v744h600q323 0 323 -193v-12q0 -37 -14 -67.5t-37.5 -49t-44 -29t-42.5 -17.5q62 -16 101.5 -60t39.5 -111v-109q0 -63 14 -91v-5h-237q-11 14 -11 47v86q0 69 -35 100t-120 31
h-304zM369 796l-160 150h220l66 -58l65 58h217l-157 -150h-251z" />
    <glyph glyph-name="rcaron" unicode="&#x159;" horiz-adv-x="729" 
d="M267 278v-278h-223v538h221v-95q10 15 24.5 30t40.5 34t66 31t87 12h11q112 0 165.5 -65t53.5 -175v-31h-215q0 57 -27.5 93t-86.5 36h-1q-54 0 -85 -37.5t-31 -92.5zM228 590l-152 154h215l61 -63l61 63h212l-150 -154h-247z" />
    <glyph glyph-name="Sacute" unicode="&#x15a;" horiz-adv-x="975" 
d="M366 796l90 150h240l-105 -150h-225zM451 -13q-111 0 -194 19t-128 46t-71.5 65.5t-34 69.5t-7.5 66v11h243q8 -118 221 -118h14q70 0 116 6.5t67 18.5t28 24.5t7 29.5q0 24 -12 38t-56 24.5t-127 12.5l-128 3q-363 10 -363 218v9q0 46 16.5 83t58 71.5t125.5 53.5
t205 19h69q102 0 180 -14t124.5 -36t76 -54t40.5 -63.5t11 -67.5v-10h-242q-12 89 -215 89h-16q-84 0 -129 -10.5t-54.5 -22.5t-9.5 -31q0 -18 10 -30.5t50 -22.5t112 -11l125 -2q209 -4 301 -56.5t92 -164.5v-14q0 -41 -9 -73.5t-37 -66.5t-74.5 -57t-127 -37.5
t-188.5 -14.5h-69z" />
    <glyph glyph-name="sacute" unicode="&#x15b;" horiz-adv-x="773" 
d="M279 590l90 154h230l-107 -154h-213zM360 -15q-346 0 -346 191v6h230q4 -73 138 -73h2q58 0 90.5 8t40.5 18t8 25v2q0 23 -22.5 34.5t-95.5 12.5l-96 2q-290 7 -290 168v6q0 27 6.5 49t28.5 45t58 38.5t99 25.5t148 10h40q337 0 337 -169v-7h-227q-5 55 -133 55h-1
q-76 0 -102 -9.5t-26 -30.5v-2q0 -20 23.5 -31t89.5 -12l96 -2q121 -2 188 -23t89.5 -54.5t22.5 -91.5v-6q0 -41 -14.5 -71.5t-51 -57.5t-109.5 -41.5t-180 -14.5h-41z" />
    <glyph glyph-name="Scircumflex" unicode="&#x15c;" horiz-adv-x="975" 
d="M607 946l160 -150h-220l-66 58l-65 -58h-217l157 150h251zM451 -13q-111 0 -194 19t-128 46t-71.5 65.5t-34 69.5t-7.5 66v11h243q8 -118 221 -118h14q70 0 116 6.5t67 18.5t28 24.5t7 29.5q0 24 -12 38t-56 24.5t-127 12.5l-128 3q-363 10 -363 218v9q0 46 16.5 83
t58 71.5t125.5 53.5t205 19h69q102 0 180 -14t124.5 -36t76 -54t40.5 -63.5t11 -67.5v-10h-242q-12 89 -215 89h-16q-84 0 -129 -10.5t-54.5 -22.5t-9.5 -31q0 -18 10 -30.5t50 -22.5t112 -11l125 -2q209 -4 301 -56.5t92 -164.5v-14q0 -41 -9 -73.5t-37 -66.5t-74.5 -57
t-127 -37.5t-188.5 -14.5h-69z" />
    <glyph glyph-name="scircumflex" unicode="&#x15d;" horiz-adv-x="773" 
d="M505 744l152 -155h-215l-61 64l-61 -64h-212l150 155h247zM360 -15q-346 0 -346 191v6h230q4 -73 138 -73h2q58 0 90.5 8t40.5 18t8 25v2q0 23 -22.5 34.5t-95.5 12.5l-96 2q-290 7 -290 168v6q0 27 6.5 49t28.5 45t58 38.5t99 25.5t148 10h40q337 0 337 -169v-7h-227
q-5 55 -133 55h-1q-76 0 -102 -9.5t-26 -30.5v-2q0 -20 23.5 -31t89.5 -12l96 -2q121 -2 188 -23t89.5 -54.5t22.5 -91.5v-6q0 -41 -14.5 -71.5t-51 -57.5t-109.5 -41.5t-180 -14.5h-41z" />
    <glyph glyph-name="uni015E" unicode="&#x15e;" horiz-adv-x="975" 
d="M342 -258v90h106q40 0 40 22q0 23 -40 23h-71v112q-361 22 -361 264v11h243q8 -118 221 -118h14q70 0 116 6.5t67 18.5t28 24.5t7 29.5q0 24 -12 38t-56 24.5t-127 12.5l-128 3q-363 10 -363 218v9q0 46 16.5 83t58 71.5t125.5 53.5t205 19h69q102 0 180 -14t124.5 -36
t76 -54t40.5 -63.5t11 -67.5v-10h-242q-12 89 -215 89h-16q-84 0 -129 -10.5t-54.5 -22.5t-9.5 -31q0 -18 10 -30.5t50 -22.5t112 -11l125 -2q209 -4 301 -56.5t92 -164.5v-14q0 -41 -9 -73.5t-37 -66.5t-74.5 -57t-127 -37.5t-188.5 -14.5h-16v-37q106 0 144 -25t38 -76v-3
q0 -48 -39.5 -76t-143.5 -28h-161z" />
    <glyph glyph-name="uni015F" unicode="&#x15f;" horiz-adv-x="773" 
d="M212 -258v90h106q40 0 40 22q0 23 -40 23h-71v115q-233 28 -233 184v6h230q4 -73 138 -73h2q58 0 90.5 8t40.5 18t8 25v2q0 23 -22.5 34.5t-95.5 12.5l-96 2q-290 7 -290 168v6q0 27 6.5 49t28.5 45t58 38.5t99 25.5t148 10h40q337 0 337 -169v-7h-227q-5 55 -133 55h-1
q-76 0 -102 -9.5t-26 -30.5v-2q0 -20 23.5 -31t89.5 -12l96 -2q121 -2 188 -23t89.5 -54.5t22.5 -91.5v-6q0 -41 -14.5 -71.5t-51 -57.5t-109.5 -41.5t-180 -14.5h-27v-35q106 0 144 -25t38 -76v-3q0 -48 -39.5 -76t-143.5 -28h-161z" />
    <glyph glyph-name="Scaron" unicode="&#x160;" horiz-adv-x="975" 
d="M348 796l-160 150h220l66 -58l65 58h217l-157 -150h-251zM451 -13q-111 0 -194 19t-128 46t-71.5 65.5t-34 69.5t-7.5 66v11h243q8 -118 221 -118h14q70 0 116 6.5t67 18.5t28 24.5t7 29.5q0 24 -12 38t-56 24.5t-127 12.5l-128 3q-363 10 -363 218v9q0 46 16.5 83
t58 71.5t125.5 53.5t205 19h69q102 0 180 -14t124.5 -36t76 -54t40.5 -63.5t11 -67.5v-10h-242q-12 89 -215 89h-16q-84 0 -129 -10.5t-54.5 -22.5t-9.5 -31q0 -18 10 -30.5t50 -22.5t112 -11l125 -2q209 -4 301 -56.5t92 -164.5v-14q0 -41 -9 -73.5t-37 -66.5t-74.5 -57
t-127 -37.5t-188.5 -14.5h-69z" />
    <glyph glyph-name="scaron" unicode="&#x161;" horiz-adv-x="773" 
d="M254 590l-152 154h215l61 -63l61 63h212l-150 -154h-247zM360 -15q-346 0 -346 191v6h230q4 -73 138 -73h2q58 0 90.5 8t40.5 18t8 25v2q0 23 -22.5 34.5t-95.5 12.5l-96 2q-290 7 -290 168v6q0 27 6.5 49t28.5 45t58 38.5t99 25.5t148 10h40q337 0 337 -169v-7h-227
q-5 55 -133 55h-1q-76 0 -102 -9.5t-26 -30.5v-2q0 -20 23.5 -31t89.5 -12l96 -2q121 -2 188 -23t89.5 -54.5t22.5 -91.5v-6q0 -41 -14.5 -71.5t-51 -57.5t-109.5 -41.5t-180 -14.5h-41z" />
    <glyph glyph-name="Tcommaaccent" unicode="&#x162;" horiz-adv-x="926" 
d="M345 0v568h-320v176h876v-176h-321v-568h-235zM536 -283h-113q22 49 29 81h-100v150h223v-120q0 -51 -39 -111z" />
    <glyph glyph-name="tcommaaccent" unicode="&#x163;" horiz-adv-x="468" 
d="M442 0h-193q-133 0 -133 153v237h-105v148h105v157h220v-157h106v-148h-106v-195q0 -24 9 -35.5t36 -11.5h61v-148zM373 -283h-113q22 49 29 81h-100v150h223v-120q0 -51 -39 -111z" />
    <glyph glyph-name="Tcaron" unicode="&#x164;" horiz-adv-x="926" 
d="M345 0v568h-320v176h876v-176h-321v-568h-235zM339 796l-160 150h220l66 -58l65 58h217l-157 -150h-251z" />
    <glyph glyph-name="tcaron" unicode="&#x165;" horiz-adv-x="468" 
d="M442 0h-193q-133 0 -133 153v237h-105v148h105v157h220v-157h106v-148h-106v-195q0 -24 9 -35.5t36 -11.5h61v-148zM367 578l15 166h179l-30 -166h-164z" />
    <glyph glyph-name="Tbar" unicode="&#x166;" horiz-adv-x="926" 
d="M345 0v303h-243v134h243v131h-320v176h876v-176h-321v-131h243v-134h-243v-303h-235z" />
    <glyph glyph-name="tbar" unicode="&#x167;" horiz-adv-x="468" 
d="M442 148v-148h-193q-133 0 -133 153v68h-105v124h105v51h-105v142h105v157h220v-157h106v-142h-106v-51h106v-124h-106v-26q0 -24 9 -35.5t36 -11.5h61z" />
    <glyph glyph-name="Utilde" unicode="&#x168;" horiz-adv-x="1047" 
d="M545 -11h-36q-83 0 -151.5 14.5t-115.5 38.5t-83 58t-57 69t-34.5 75t-18 73t-4.5 66v361h234v-347q0 -40 10.5 -74.5t35.5 -68t76.5 -53t123.5 -19.5q71 0 121.5 19.5t76 53t36 68t10.5 74.5v347h233v-361q0 -48 -10.5 -95.5t-41 -103t-79 -97.5t-133 -70t-193.5 -28z
M646 802q-44 0 -128 29q-42 15 -61 15q-18 0 -18 -21v-31h-146v81q0 40 22.5 69t77.5 29h6q42 0 128 -29q45 -15 61 -15q18 0 18 21v30h146v-80q0 -40 -22 -69t-78 -29h-6z" />
    <glyph glyph-name="utilde" unicode="&#x169;" horiz-adv-x="832" 
d="M788 538v-538h-221v93q-17 -16 -23 -21.5t-34.5 -25.5t-53 -29.5t-65.5 -19t-85 -9.5h-8q-128 0 -192 64.5t-64 150.5v335h225v-266q0 -62 35 -98t103 -36q72 0 116 40t44 106v254h223zM534 594q-39 0 -124 28q-45 15 -57 15q-16 0 -16 -21v-29h-144v76q0 39 21.5 68
t75.5 29h5q44 0 124 -28q43 -15 57 -15q16 0 16 22v29h144v-76q0 -98 -96 -98h-6z" />
    <glyph glyph-name="Umacron" unicode="&#x16a;" horiz-adv-x="1047" 
d="M545 -11h-36q-83 0 -151.5 14.5t-115.5 38.5t-83 58t-57 69t-34.5 75t-18 73t-4.5 66v361h234v-347q0 -40 10.5 -74.5t35.5 -68t76.5 -53t123.5 -19.5q71 0 121.5 19.5t76 53t36 68t10.5 74.5v347h233v-361q0 -48 -10.5 -95.5t-41 -103t-79 -97.5t-133 -70t-193.5 -28z
M303 804v126h441v-126h-441z" />
    <glyph glyph-name="umacron" unicode="&#x16b;" horiz-adv-x="832" 
d="M788 538v-538h-221v93q-17 -16 -23 -21.5t-34.5 -25.5t-53 -29.5t-65.5 -19t-85 -9.5h-8q-128 0 -192 64.5t-64 150.5v335h225v-266q0 -62 35 -98t103 -36q72 0 116 40t44 106v254h223zM204 601v122h422v-122h-422z" />
    <glyph glyph-name="Ubreve" unicode="&#x16c;" horiz-adv-x="1047" 
d="M545 -11h-36q-83 0 -151.5 14.5t-115.5 38.5t-83 58t-57 69t-34.5 75t-18 73t-4.5 66v361h234v-347q0 -40 10.5 -74.5t35.5 -68t76.5 -53t123.5 -19.5q71 0 121.5 19.5t76 53t36 68t10.5 74.5v347h233v-361q0 -48 -10.5 -95.5t-41 -103t-79 -97.5t-133 -70t-193.5 -28z
M508 787q-64 0 -110 17.5t-67.5 45.5t-30.5 52t-9 47v2h172q4 -48 63 -48q24 0 39 10t18.5 19t4.5 19h168v-2q0 -21 -10.5 -46.5t-33.5 -52.5t-67.5 -45t-102.5 -18h-34z" />
    <glyph glyph-name="ubreve" unicode="&#x16d;" horiz-adv-x="832" 
d="M788 538v-538h-221v93q-17 -16 -23 -21.5t-34.5 -25.5t-53 -29.5t-65.5 -19t-85 -9.5h-8q-128 0 -192 64.5t-64 150.5v335h225v-266q0 -62 35 -98t103 -36q72 0 116 40t44 106v254h223zM401 582q-64 0 -109.5 17t-67 44.5t-30 51.5t-8.5 47v2h170q4 -49 62 -49
q34 0 47 16t14 33h166v-2q0 -22 -10.5 -47t-32.5 -51.5t-66.5 -44t-102.5 -17.5h-32z" />
    <glyph glyph-name="Uring" unicode="&#x16e;" horiz-adv-x="1047" 
d="M545 -11h-36q-83 0 -151.5 14.5t-115.5 38.5t-83 58t-57 69t-34.5 75t-18 73t-4.5 66v361h234v-347q0 -40 10.5 -74.5t35.5 -68t76.5 -53t123.5 -19.5q71 0 121.5 19.5t76 53t36 68t10.5 74.5v347h233v-361q0 -48 -10.5 -95.5t-41 -103t-79 -97.5t-133 -70t-193.5 -28z
M332 892q0 116 193 116q189 0 189 -116q0 -118 -189 -118q-193 0 -193 118zM447 892q0 -47 78 -47q75 0 75 47q0 45 -75 45q-78 0 -78 -45z" />
    <glyph glyph-name="uring" unicode="&#x16f;" horiz-adv-x="832" 
d="M788 538v-538h-221v93q-17 -16 -23 -21.5t-34.5 -25.5t-53 -29.5t-65.5 -19t-85 -9.5h-8q-128 0 -192 64.5t-64 150.5v335h225v-266q0 -62 35 -98t103 -36q72 0 116 40t44 106v254h223zM226 699q0 116 191 116q187 0 187 -116q0 -118 -187 -118q-191 0 -191 118zM341 699
q0 -47 76 -47q73 0 73 47q0 45 -73 45q-76 0 -76 -45z" />
    <glyph glyph-name="Uhungarumlaut" unicode="&#x170;" horiz-adv-x="1047" 
d="M545 -11h-36q-83 0 -151.5 14.5t-115.5 38.5t-83 58t-57 69t-34.5 75t-18 73t-4.5 66v361h234v-347q0 -40 10.5 -74.5t35.5 -68t76.5 -53t123.5 -19.5q71 0 121.5 19.5t76 53t36 68t10.5 74.5v347h233v-361q0 -48 -10.5 -95.5t-41 -103t-79 -97.5t-133 -70t-193.5 -28z
M544 796l60 150h219l-67 -150h-212zM286 796l53 150h219l-60 -150h-212z" />
    <glyph glyph-name="uhungarumlaut" unicode="&#x171;" horiz-adv-x="832" 
d="M788 538v-538h-221v93q-17 -16 -23 -21.5t-34.5 -25.5t-53 -29.5t-65.5 -19t-85 -9.5h-8q-128 0 -192 64.5t-64 150.5v335h225v-266q0 -62 35 -98t103 -36q72 0 116 40t44 106v254h223zM439 590l60 154h212l-67 -154h-205zM188 590l53 154h212l-60 -154h-205z" />
    <glyph glyph-name="Uogonek" unicode="&#x172;" horiz-adv-x="1047" 
d="M748 -188h-141q-130 0 -130 71v2q0 35 37 59.5t113 48.5q-35 -4 -82 -4h-36q-83 0 -151.5 14.5t-115.5 38.5t-83 58t-57 69t-34.5 75t-18 73t-4.5 66v361h234v-347q0 -40 10.5 -74.5t35.5 -68t76.5 -53t123.5 -19.5q71 0 121.5 19.5t76 53t36 68t10.5 74.5v347h233v-361
q0 -245 -245 -380q-26 -15 -39 -23t-24 -20t-11 -23q0 -23 38 -23h27v-102z" />
    <glyph glyph-name="uogonek" unicode="&#x173;" horiz-adv-x="832" 
d="M788 -188h-135q-130 0 -130 71v2q0 38 41.5 64t127.5 51h-125v93q-17 -16 -23 -21.5t-34.5 -25.5t-53 -29.5t-65.5 -19t-85 -9.5h-8q-128 0 -192 64.5t-64 150.5v335h225v-266q0 -62 35 -98t103 -36q72 0 116 40t44 106v254h223v-538q-30 -22 -44.5 -35.5t-14.5 -27.5
q0 -23 38 -23h21v-102z" />
    <glyph glyph-name="Wcircumflex" unicode="&#x174;" horiz-adv-x="1417" 
d="M548 0h-257l-306 744h254l192 -512l166 512h248l170 -497l188 497h229l-301 -744h-235l-179 498zM843 946l160 -150h-220l-66 58l-65 -58h-217l157 150h251z" />
    <glyph glyph-name="wcircumflex" unicode="&#x175;" horiz-adv-x="1136" 
d="M441 0h-231l-223 538h232l123 -344l121 344h234l125 -344l119 344h208l-208 -538h-236l-132 356zM704 744l152 -155h-215l-61 64l-61 -64h-212l150 155h247z" />
    <glyph glyph-name="Ycircumflex" unicode="&#x176;" horiz-adv-x="968" 
d="M373 0v288l-398 456h289l231 -274l235 274h263l-387 -456v-288h-233zM615 946l160 -150h-220l-66 58l-65 -58h-217l157 150h251z" />
    <glyph glyph-name="ycircumflex" unicode="&#x177;" horiz-adv-x="777" 
d="M116 -188v160h126q26 0 26 17q0 9 -25 57l-257 492h240l173 -364l168 364h224l-282 -574q-39 -80 -83.5 -116t-114.5 -36h-195zM521 744l152 -155h-215l-61 64l-61 -64h-212l150 155h247z" />
    <glyph glyph-name="Ydieresis" unicode="&#x178;" horiz-adv-x="968" 
d="M373 0v288l-398 456h289l231 -274l235 274h263l-387 -456v-288h-233zM742 946v-150h-222v150h222zM468 946v-150h-222v150h222z" />
    <glyph glyph-name="Zacute" unicode="&#x179;" horiz-adv-x="907" 
d="M39 744h830v-136l-510 -432h517v-176h-845v137l497 435h-489v172zM313 796l90 150h240l-105 -150h-225z" />
    <glyph glyph-name="zacute" unicode="&#x17a;" horiz-adv-x="718" 
d="M697 0h-676v130l365 263h-365v145h674v-125l-382 -264h384v-149zM241 590l90 154h230l-107 -154h-213z" />
    <glyph glyph-name="Zdotaccent" unicode="&#x17b;" horiz-adv-x="907" 
d="M39 744h830v-136l-510 -432h517v-176h-845v137l497 435h-489v172zM565 950v-154h-223v154h223z" />
    <glyph glyph-name="zdotaccent" unicode="&#x17c;" horiz-adv-x="718" 
d="M697 0h-676v130l365 263h-365v145h674v-125l-382 -264h384v-149zM470 744v-154h-223v154h223z" />
    <glyph glyph-name="Zcaron" unicode="&#x17d;" horiz-adv-x="907" 
d="M39 744h830v-136l-510 -432h517v-176h-845v137l497 435h-489v172zM329 796l-160 150h220l66 -58l65 58h217l-157 -150h-251z" />
    <glyph glyph-name="zcaron" unicode="&#x17e;" horiz-adv-x="718" 
d="M697 0h-676v130l365 263h-365v145h674v-125l-382 -264h384v-149zM237 590l-152 154h215l61 -63l61 63h212l-150 -154h-247z" />
    <glyph glyph-name="uni0192" unicode="&#x192;" horiz-adv-x="503" 
d="M471 329h-131l-28 -517h-217l27 517h-101v148h109l6 125q1 28 9 50.5t27 44.5t57.5 34.5t94.5 12.5h147v-148h-78q-24 0 -31.5 -10t-9.5 -34l-4 -75h123v-148z" />
    <glyph glyph-name="Aringacute" unicode="&#x1fa;" horiz-adv-x="1038" 
d="M410 1043l90 154h230l-107 -154h-213zM650 304l-144 279l-138 -279h282zM806 0l-70 136h-451l-67 -136h-237l376 744h302l398 -744h-251zM320 900q0 116 193 116q189 0 189 -116q0 -118 -189 -118q-193 0 -193 118zM435 900q0 -47 78 -47q75 0 75 47q0 45 -75 45
q-78 0 -78 -45z" />
    <glyph glyph-name="aringacute" unicode="&#x1fb;" horiz-adv-x="794" 
d="M519 239v17l-213 -33q-44 -7 -62.5 -17.5t-18.5 -32.5v-1q0 -25 23 -43t75 -18q86 0 141 38.5t55 89.5zM525 74q-75 -84 -249 -84h-13q-127 0 -188.5 50t-61.5 126v7q0 74 52.5 112t173.5 49l246 23q34 3 34 28q0 13 -7 21t-40 15.5t-93 7.5h-5q-47 0 -77.5 -6.5
t-43 -17.5t-16 -18.5t-4.5 -17.5h-207v2q0 26 4 46.5t23 47.5t51 45t94.5 30.5t148.5 12.5h55q90 0 154 -11t98 -27t53 -41.5t23 -45.5t4 -49v-206q0 -27 28 -27h29v-146h-181q-33 0 -56 19t-29 55zM185 699q0 116 191 116q187 0 187 -116q0 -118 -187 -118q-191 0 -191 118
zM300 699q0 -47 76 -47q73 0 73 47q0 45 -73 45q-76 0 -76 -45zM274 842l90 154h230l-107 -154h-213z" />
    <glyph glyph-name="AEacute" unicode="&#x1fc;" horiz-adv-x="1467" 
d="M646 298v278l-213 -278h213zM646 0v130h-341l-100 -130h-239l567 744h887v-169h-544v-110h531v-170h-531v-122h554v-173h-784zM864 796l90 150h240l-105 -150h-225z" />
    <glyph glyph-name="aeacute" unicode="&#x1fd;" horiz-adv-x="1331" 
d="M911 428q-151 0 -178 -91h358q-21 91 -178 91h-2zM322 110q83 0 137 39t54 90v17l-211 -32q-42 -6 -60 -17t-18 -32v-1q0 -26 23.5 -45t74.5 -19zM1311 189q0 -26 -6.5 -49.5t-29.5 -53t-60.5 -51t-107 -36t-161.5 -14.5h-59q-233 0 -327 121q-10 -15 -28 -31.5
t-49.5 -37t-81.5 -34t-109 -13.5h-13q-139 0 -202.5 50t-63.5 126v7q0 74 53.5 113.5t170.5 49.5l253 23q23 3 23 28q0 12 -7 20t-39.5 14.5t-91.5 6.5h-7q-46 0 -75.5 -6t-41.5 -17.5t-15 -18t-4 -17.5h-206v2q0 27 3.5 47t21.5 47.5t50 45t94 30t148 12.5h55
q188 0 252 -51q75 51 231 51h64q368 0 368 -290v-37h-584q20 -105 189 -105h1q42 0 75 6t50.5 14.5t29.5 19t15.5 17.5t3.5 12h218v-1zM546 590l90 154h230l-107 -154h-213z" />
    <glyph glyph-name="Oslashacute" unicode="&#x1fe;" horiz-adv-x="1138" 
d="M459 796l90 150h240l-105 -150h-225zM548 -13q-178 0 -297 50l-47 -37h-213q55 44 139 110q-106 95 -106 249v30q0 33 4 63t17.5 68.5t36 70.5t62.5 63.5t93.5 53.5t133 35.5t177.5 13.5h44q174 0 293 -49l47 36h214l-139 -109q107 -94 107 -246v-30q0 -33 -4 -63
t-18 -68.5t-36.5 -71t-62.5 -64.5t-93 -54.5t-132 -36.5t-176 -14h-44zM268 370q0 -71 39 -119l398 315q-62 10 -136 10q-301 0 -301 -194v-12zM569 169q89 0 151.5 18t93.5 49t43.5 63t12.5 69v14q0 73 -37 115l-401 -317q58 -11 137 -11z" />
    <glyph glyph-name="oslashacute" unicode="&#x1ff;" horiz-adv-x="880" 
d="M334 590l90 154h230l-107 -154h-213zM406 -15q-131 0 -218 42l-38 -27h-171l119 86q-79 72 -79 177v18q0 40 10 76t36.5 73t68.5 63.5t111.5 43t159.5 16.5h70q125 0 218 -40l36 25h173l-118 -84q77 -68 77 -173v-18q0 -278 -385 -278h-70zM243 269q0 -39 18 -68l277 197
q-39 12 -96 12h-1q-107 0 -152.5 -38.5t-45.5 -97.5v-5zM441 130q106 0 151.5 41t45.5 98v5q0 37 -15 63l-273 -196q39 -11 91 -11z" />
    <glyph glyph-name="uni0218" unicode="&#x218;" horiz-adv-x="975" 
d="M451 -13q-111 0 -194 19t-128 46t-71.5 65.5t-34 69.5t-7.5 66v11h243q8 -118 221 -118h14q70 0 116 6.5t67 18.5t28 24.5t7 29.5q0 24 -12 38t-56 24.5t-127 12.5l-128 3q-363 10 -363 218v9q0 46 16.5 83t58 71.5t125.5 53.5t205 19h69q102 0 180 -14t124.5 -36t76 -54
t40.5 -63.5t11 -67.5v-10h-242q-12 89 -215 89h-16q-84 0 -129 -10.5t-54.5 -22.5t-9.5 -31q0 -18 10 -30.5t50 -22.5t112 -11l125 -2q209 -4 301 -56.5t92 -164.5v-14q0 -41 -9 -73.5t-37 -66.5t-74.5 -57t-127 -37.5t-188.5 -14.5h-69zM556 -283h-113q22 49 29 81h-100
v150h223v-120q0 -51 -39 -111z" />
    <glyph glyph-name="uni0219" unicode="&#x219;" horiz-adv-x="773" 
d="M360 -15q-346 0 -346 191v6h230q4 -73 138 -73h2q58 0 90.5 8t40.5 18t8 25v2q0 23 -22.5 34.5t-95.5 12.5l-96 2q-290 7 -290 168v6q0 27 6.5 49t28.5 45t58 38.5t99 25.5t148 10h40q337 0 337 -169v-7h-227q-5 55 -133 55h-1q-76 0 -102 -9.5t-26 -30.5v-2
q0 -20 23.5 -31t89.5 -12l96 -2q121 -2 188 -23t89.5 -54.5t22.5 -91.5v-6q0 -41 -14.5 -71.5t-51 -57.5t-109.5 -41.5t-180 -14.5h-41zM458 -283h-113q22 49 29 81h-100v150h223v-120q0 -51 -39 -111z" />
    <glyph glyph-name="uni021A" unicode="&#x21a;" horiz-adv-x="926" 
d="M345 0v568h-320v176h876v-176h-321v-568h-235zM536 -283h-113q22 49 29 81h-100v150h223v-120q0 -51 -39 -111z" />
    <glyph glyph-name="uni021B" unicode="&#x21b;" horiz-adv-x="468" 
d="M442 0h-193q-133 0 -133 153v237h-105v148h105v157h220v-157h106v-148h-106v-195q0 -24 9 -35.5t36 -11.5h61v-148zM373 -283h-113q22 49 29 81h-100v150h223v-120q0 -51 -39 -111z" />
    <glyph glyph-name="uni0237" unicode="&#x237;" horiz-adv-x="311" 
d="M-29 -31h41q17 0 24.5 8t7.5 30v531h223v-587q0 -71 -28 -105t-74 -34h-194v157z" />
    <glyph glyph-name="circumflex" unicode="&#x2c6;" 
d="M472 744l152 -155h-215l-61 64l-61 -64h-212l150 155h247z" />
    <glyph glyph-name="caron" unicode="&#x2c7;" 
d="M227 590l-152 154h215l61 -63l61 63h212l-150 -154h-247z" />
    <glyph glyph-name="breve" unicode="&#x2d8;" 
d="M335 582q-64 0 -109.5 17t-67 44.5t-30 51.5t-8.5 47v2h170q4 -49 62 -49q34 0 47 16t14 33h166v-2q0 -22 -10.5 -47t-32.5 -51.5t-66.5 -44t-102.5 -17.5h-32z" />
    <glyph glyph-name="dotaccent" unicode="&#x2d9;" 
d="M461 744v-154h-223v154h223z" />
    <glyph glyph-name="ring" unicode="&#x2da;" 
d="M161 699q0 116 191 116q187 0 187 -116q0 -118 -187 -118q-191 0 -191 118zM276 699q0 -47 76 -47q73 0 73 47q0 45 -73 45q-76 0 -76 -45z" />
    <glyph glyph-name="ogonek" unicode="&#x2db;" 
d="M477 -188h-135q-130 0 -130 71v2q0 38 41.5 64t127.5 51h96q-30 -22 -44.5 -35.5t-14.5 -27.5q0 -23 38 -23h21v-102z" />
    <glyph glyph-name="tilde" unicode="&#x2dc;" 
d="M469 594q-39 0 -124 28q-45 15 -57 15q-16 0 -16 -21v-29h-144v76q0 39 21.5 68t75.5 29h5q44 0 124 -28q43 -15 57 -15q16 0 16 22v29h144v-76q0 -98 -96 -98h-6z" />
    <glyph glyph-name="hungarumlaut" unicode="&#x2dd;" 
d="M340 590l60 154h212l-67 -154h-205zM89 590l53 154h212l-60 -154h-205z" />
    <glyph glyph-name="Wgrave" unicode="&#x1e80;" horiz-adv-x="1417" 
d="M548 0h-257l-306 744h254l192 -512l166 512h248l170 -497l188 497h229l-301 -744h-235l-179 498zM737 946l90 -150h-225l-105 150h240z" />
    <glyph glyph-name="wgrave" unicode="&#x1e81;" horiz-adv-x="1136" 
d="M441 0h-231l-223 538h232l123 -344l121 344h234l125 -344l119 344h208l-208 -538h-236l-132 356zM682 590h-215l-107 154h232z" />
    <glyph glyph-name="Wacute" unicode="&#x1e82;" horiz-adv-x="1417" 
d="M548 0h-257l-306 744h254l192 -512l166 512h248l170 -497l188 497h229l-301 -744h-235l-179 498zM614 796l90 150h240l-105 -150h-225z" />
    <glyph glyph-name="wacute" unicode="&#x1e83;" horiz-adv-x="1136" 
d="M441 0h-231l-223 538h232l123 -344l121 344h234l125 -344l119 344h208l-208 -538h-236l-132 356zM479 590l90 154h230l-107 -154h-213z" />
    <glyph glyph-name="Wdieresis" unicode="&#x1e84;" horiz-adv-x="1417" 
d="M548 0h-257l-306 744h254l192 -512l166 512h248l170 -497l188 497h229l-301 -744h-235l-179 498zM967 946v-150h-222v150h222zM693 946v-150h-222v150h222z" />
    <glyph glyph-name="wdieresis" unicode="&#x1e85;" horiz-adv-x="1136" 
d="M441 0h-231l-223 538h232l123 -344l121 344h234l125 -344l119 344h208l-208 -538h-236l-132 356zM821 744v-154h-216v154h216zM555 744v-154h-215v154h215z" />
    <glyph glyph-name="Ygrave" unicode="&#x1ef2;" horiz-adv-x="968" 
d="M373 0v288l-398 456h289l231 -274l235 274h263l-387 -456v-288h-233zM525 946l90 -150h-225l-105 150h240z" />
    <glyph glyph-name="ygrave" unicode="&#x1ef3;" horiz-adv-x="777" 
d="M116 -188v160h126q26 0 26 17q0 9 -25 57l-257 492h240l173 -364l168 364h224l-282 -574q-39 -80 -83.5 -116t-114.5 -36h-195zM510 590h-215l-107 154h232z" />
    <glyph glyph-name="uni2009" unicode="&#x2009;" horiz-adv-x="30" 
 />
    <glyph glyph-name="endash" unicode="&#x2013;" horiz-adv-x="885" 
d="M35 364h815v-130h-815v130z" />
    <glyph glyph-name="emdash" unicode="&#x2014;" horiz-adv-x="1301" 
d="M35 364h1231v-130h-1231v130z" />
    <glyph glyph-name="quoteleft" unicode="&#x2018;" horiz-adv-x="294" 
d="M77 744h122q-30 -52 -36 -94h100v-152h-232v125q0 27 14 61.5t32 59.5z" />
    <glyph glyph-name="quoteright" unicode="&#x2019;" horiz-adv-x="294" 
d="M217 498h-122q30 52 36 94h-100v152h232v-125q0 -27 -14 -61.5t-32 -59.5z" />
    <glyph glyph-name="quotesinglbase" unicode="&#x201a;" horiz-adv-x="294" 
d="M217 -94h-122q30 52 36 94h-100v152h232v-125q0 -27 -14 -61.5t-32 -59.5z" />
    <glyph glyph-name="quotedblleft" unicode="&#x201c;" horiz-adv-x="565" 
d="M77 744h122q-30 -52 -36 -94h100v-152h-232v125q0 27 14 61.5t32 59.5zM348 744h122q-30 -52 -36 -94h100v-152h-232v125q0 27 14 61.5t32 59.5z" />
    <glyph glyph-name="quotedblright" unicode="&#x201d;" horiz-adv-x="565" 
d="M217 498h-122q30 52 36 94h-100v152h232v-125q0 -27 -14 -61.5t-32 -59.5zM488 498h-122q30 52 36 94h-100v152h232v-125q0 -27 -14 -61.5t-32 -59.5z" />
    <glyph glyph-name="quotedblbase" unicode="&#x201e;" horiz-adv-x="565" 
d="M488 -94h-122q30 52 36 94h-100v152h232v-125q0 -27 -14 -61.5t-32 -59.5zM217 -94h-122q30 52 36 94h-100v152h232v-125q0 -27 -14 -61.5t-32 -59.5z" />
    <glyph glyph-name="dagger" unicode="&#x2020;" horiz-adv-x="572" 
d="M180 0v427h-156v155h156v162h211v-162h157v-155h-157v-427h-211z" />
    <glyph glyph-name="daggerdbl" unicode="&#x2021;" horiz-adv-x="580" 
d="M187 150h-157v152h157v144h-157v152h157v146h206v-146h157v-152h-157v-144h157v-152h-157v-150h-206v150z" />
    <glyph glyph-name="bullet" unicode="&#x2022;" horiz-adv-x="424" 
d="M397 330q0 -79 -52 -129.5t-133 -50.5q-80 0 -132.5 50.5t-52.5 129.5t52.5 129t132.5 50q81 0 133 -50t52 -129z" />
    <glyph glyph-name="ellipsis" unicode="&#x2026;" horiz-adv-x="903" 
d="M273 175v-175h-241v175h241zM572 175v-175h-241v175h241zM871 175v-175h-241v175h241z" />
    <glyph glyph-name="perthousand" unicode="&#x2030;" horiz-adv-x="2025" 
d="M307 321q-69 0 -122 15t-82.5 37t-48 52t-24 55t-5.5 50v17q0 33 11 64.5t38.5 65.5t87.5 55t145 21h24q69 0 121.5 -14.5t82 -36t48 -51t24 -54t5.5 -50.5v-17q0 -33 -10.5 -64.5t-38 -66.5t-87 -56.5t-145.5 -21.5h-24zM1003 744h198l-802 -744h-197zM318 444
q69 0 101 26.5t32 63.5v8q0 88 -133 88q-131 0 -131 -88v-6q0 -39 31.5 -65.5t99.5 -26.5zM1098 -8h-25q-69 0 -121.5 15t-82 37.5t-48 52.5t-24.5 55t-6 50v17q0 25 6 50t24.5 54t48 51t82 36.5t121.5 14.5h25q85 0 144.5 -21t87 -55t38.5 -65.5t11 -64.5v-17
q0 -25 -5.5 -50t-24 -55t-47.5 -52.5t-82 -37.5t-122 -15zM1720 -8h-25q-69 0 -121.5 15t-82 37.5t-48 52.5t-24.5 55t-6 50v17q0 25 6 50t24.5 54t48 51t82 36.5t121.5 14.5h25q69 0 121.5 -14.5t81.5 -36t47.5 -51t24 -54t5.5 -50.5v-17q0 -25 -5.5 -50t-23.5 -55
t-47.5 -52.5t-82 -37.5t-121.5 -15zM1085 116q69 0 101 26.5t32 63.5v8q0 39 -31.5 63.5t-101.5 24.5q-132 0 -132 -88v-6q0 -39 31.5 -65.5t100.5 -26.5zM1707 116q68 0 100.5 26.5t32.5 63.5v8q0 39 -31.5 63.5t-101.5 24.5q-132 0 -132 -88v-6q0 -39 31.5 -65.5
t100.5 -26.5z" />
    <glyph glyph-name="uni2032" unicode="&#x2032;" horiz-adv-x="250" 
d="M236 744l-43 -247h-179l43 247h179z" />
    <glyph glyph-name="uni2033" unicode="&#x2033;" horiz-adv-x="470" 
d="M234 744l-43 -247h-177l43 247h177zM413 497h-177l43 247h177z" />
    <glyph glyph-name="guilsinglleft" unicode="&#x2039;" horiz-adv-x="330" 
d="M312 117h-168l-133 170l135 168h171l-132 -168z" />
    <glyph glyph-name="guilsinglright" unicode="&#x203a;" horiz-adv-x="330" 
d="M187 117h-169l127 170l-132 168h171l135 -168z" />
    <glyph glyph-name="fraction" unicode="&#x2044;" horiz-adv-x="948" 
d="M776 744h172l-781 -744h-167z" />
    <glyph glyph-name="Euro" unicode="&#x20ac;" horiz-adv-x="1122" 
d="M583 -13q-109 0 -194.5 24t-138.5 65.5t-84 87t-46 98.5h-112v87h98v55h-98v88h113q15 52 45.5 96t83 84t138 62.5t195.5 22.5h43q113 0 201.5 -22.5t138 -55t81.5 -74.5t42.5 -76t10.5 -65v-11h-248q-2 9 -7 21t-22.5 31.5t-42.5 34.5t-72 26.5t-106 11.5
q-170 0 -226 -86h307v-88h-333q-1 -7 -1 -20v-12q0 -15 1 -23h333v-87h-304q60 -95 225 -95q60 0 107 12.5t71.5 28t42 38t21.5 33t7 21.5h248v-11q0 -33 -10.5 -68.5t-42.5 -78.5t-82 -76.5t-138 -56t-202 -22.5h-43z" />
    <glyph glyph-name="trademark" unicode="&#x2122;" horiz-adv-x="1100" 
d="M438 636h-138v-250h-147v250h-138v108h423v-108zM480 386v358h210l88 -189l88 189h201v-358h-131v243l-114 -243h-98l-114 243v-243h-130z" />
    <glyph glyph-name="onethird" unicode="&#x2153;" horiz-adv-x="1015" 
d="M107 587h-95v82q94 6 122 75h120v-368h-147v211zM716 744h172l-781 -744h-167zM765 -5h-33q-61 0 -106 11t-68.5 26.5t-37.5 36.5t-17 36t-3 30v5h156q0 -46 95 -46q97 0 97 31v2q0 22 -45 22h-122v88h116q44 0 44 19v2q0 23 -95 23q-92 0 -92 -35h-149v5q0 11 2 21
t9 25.5t22.5 28t38.5 24t62 18t89 6.5h31q76 0 127 -8.5t73 -24.5t29.5 -30t7.5 -33v-3q0 -23 -19 -40.5t-51 -21.5q37 -6 60 -28.5t23 -58.5v-4q0 -127 -244 -127z" />
    <glyph glyph-name="twothirds" unicode="&#x2154;" horiz-adv-x="1241" 
d="M943 744h172l-781 -744h-167zM991 -5h-33q-61 0 -106 11t-68.5 26.5t-37.5 36.5t-17 36t-3 30v5h156q0 -46 95 -46q97 0 97 31v2q0 22 -45 22h-122v88h116q44 0 44 19v2q0 23 -95 23q-92 0 -92 -35h-149v5q0 11 2 21t9 25.5t22.5 28t38.5 24t62 18t89 6.5h31
q76 0 127 -8.5t73 -24.5t29.5 -30t7.5 -33v-3q0 -23 -19 -40.5t-51 -21.5q37 -6 60 -28.5t23 -58.5v-4q0 -127 -244 -127zM491 376h-480v43q0 30 7.5 52.5t30.5 48t73 45.5t126 34q53 10 70.5 17.5t17.5 18.5q0 23 -78 23q-87 0 -90 -47h-151v4q0 135 227 135h19
q70 0 117 -9t70 -26t32 -36.5t9 -46.5v-4q0 -53 -47.5 -75t-164.5 -40q-108 -17 -125 -25q-7 -4 -10 -8h347v-104z" />
    <glyph glyph-name="oneeighth" unicode="&#x215b;" horiz-adv-x="1022" 
d="M716 744h172l-781 -744h-167zM107 587h-95v82q94 6 122 75h120v-368h-147v211zM1004 274v-6q0 -28 -24 -48t-58 -26q40 -5 65.5 -27.5t25.5 -53.5v-7q0 -111 -240 -111h-24q-240 0 -240 111v7q0 30 25.5 52.5t65.5 28.5q-35 6 -58.5 26t-23.5 48v6q0 99 231 99h24
q231 0 231 -99zM848 262v1q0 27 -88 27q-87 0 -87 -27v-1q0 -28 87 -28q38 0 58.5 4.5t25 10t4.5 13.5zM859 117v2q0 30 -99 30q-97 0 -97 -30v-2q0 -31 97 -31q99 0 99 31z" />
    <glyph glyph-name="threeeighths" unicode="&#x215c;" horiz-adv-x="1220" 
d="M1202 274v-6q0 -28 -24 -48t-58 -26q40 -5 65.5 -27.5t25.5 -53.5v-7q0 -111 -240 -111h-24q-240 0 -240 111v7q0 30 25.5 52.5t65.5 28.5q-35 6 -58.5 26t-23.5 48v6q0 99 231 99h24q231 0 231 -99zM1046 262v1q0 27 -88 27q-87 0 -87 -27v-1q0 -28 87 -28
q38 0 58.5 4.5t25 10t4.5 13.5zM1057 117v2q0 30 -99 30q-97 0 -97 -30v-2q0 -31 97 -31q99 0 99 31zM913 744h172l-781 -744h-167zM271 372h-33q-61 0 -106 11t-68.5 26.5t-37.5 36.5t-17 36t-3 30v5h156q0 -46 95 -46q97 0 97 31v2q0 22 -45 22h-122v88h116q44 0 44 19v2
q0 23 -95 23q-92 0 -92 -35h-149v5q0 11 2 21t9 25.5t22.5 28t38.5 24t62 18t89 6.5h31q76 0 127 -8.5t73 -24.5t29.5 -30t7.5 -33v-3q0 -23 -19 -40.5t-51 -21.5q37 -6 60 -28.5t23 -58.5v-4q0 -127 -244 -127z" />
    <glyph glyph-name="fiveeighths" unicode="&#x215d;" horiz-adv-x="1193" 
d="M1175 274v-6q0 -28 -24 -48t-58 -26q40 -5 65.5 -27.5t25.5 -53.5v-7q0 -111 -240 -111h-24q-240 0 -240 111v7q0 30 25.5 52.5t65.5 28.5q-35 6 -58.5 26t-23.5 48v6q0 99 231 99h24q231 0 231 -99zM1019 262v1q0 27 -88 27q-87 0 -87 -27v-1q0 -28 87 -28
q38 0 58.5 4.5t25 10t4.5 13.5zM1030 117v2q0 30 -99 30q-97 0 -97 -30v-2q0 -31 97 -31q99 0 99 31zM886 744h172l-781 -744h-167zM283 371h-46q-71 0 -118.5 13t-67 34.5t-25.5 38t-6 34.5v3h156q6 -30 84 -30q80 0 80 40v3q0 39 -80 39q-77 0 -84 -29h-148v227h438v-91
h-290v-57q36 31 127 31h5q104 0 144 -31.5t40 -86.5v-3q0 -135 -209 -135z" />
    <glyph glyph-name="seveneighths" unicode="&#x215e;" horiz-adv-x="1121" 
d="M814 744h172l-781 -744h-167zM1103 274v-6q0 -28 -24 -48t-58 -26q40 -5 65.5 -27.5t25.5 -53.5v-7q0 -111 -240 -111h-24q-240 0 -240 111v7q0 30 25.5 52.5t65.5 28.5q-35 6 -58.5 26t-23.5 48v6q0 99 231 99h24q231 0 231 -99zM947 262v1q0 27 -88 27q-87 0 -87 -27
v-1q0 -28 87 -28q38 0 58.5 4.5t25 10t4.5 13.5zM958 117v2q0 30 -99 30q-97 0 -97 -30v-2q0 -31 97 -31q99 0 99 31zM14 744h479v-89q-48 -52 -89 -104q-39 -50 -49 -84.5t-10 -85.5v-5h-164v38q0 42 19.5 74.5t75.5 86.5q64 63 68 71q1 2 1 4h-186v-75h-145v169z" />
    <glyph glyph-name="minus" unicode="&#x2212;" horiz-adv-x="576" 
d="M35 378h506v-140h-506v140z" />
    <glyph glyph-name="uni24C5" unicode="&#x24c5;" horiz-adv-x="1159" 
d="M1135 359q0 -370 -540 -370h-31q-540 0 -540 370v28q0 60 14.5 111t52 99.5t97 82.5t156 54.5t221.5 20.5h29q125 0 221.5 -20.5t156 -54.5t97 -82.5t52 -99.5t14.5 -111v-28zM567 80h25q118 0 202.5 23.5t130 65t66 90t20.5 107.5v12q0 65 -20 114t-66 89.5t-130 61.5
t-203 21h-25q-119 0 -203 -21t-130 -61.5t-66 -89.5t-20 -114v-12q0 -59 20.5 -107.5t66 -90t130 -65t202.5 -23.5zM660 262h-157v-104h-175v432h332q71 0 119.5 -12t73 -35.5t34 -50t9.5 -62.5v-8q0 -74 -51 -117t-185 -43zM503 475v-101h152q68 0 68 49v4q0 48 -68 48
h-152z" />
    <glyph glyph-name="J.alt" unicode="&#xe489;" horiz-adv-x="499" 
d="M26 0v185h107q47 0 68.5 23.5t21.5 84.5v451h233v-501q0 -243 -220 -243h-210z" />
    <glyph glyph-name="a.alt" unicode="&#xe4c0;" horiz-adv-x="777" 
d="M519 239v17l-213 -33q-44 -7 -62.5 -17.5t-18.5 -32.5v-1q0 -25 23 -43t75 -18q86 0 141 38.5t55 89.5zM525 74q-75 -84 -249 -84h-13q-127 0 -188.5 50t-61.5 126v7q0 74 52.5 112t173.5 49l246 23q34 3 34 28q0 13 -7 21t-40 15.5t-93 7.5h-5q-47 0 -77.5 -6.5
t-43 -17.5t-16 -18.5t-4.5 -17.5h-207v2q0 26 4 46.5t23 47.5t51 45t94.5 30.5t148.5 12.5h55q90 0 154 -11t98 -27t52.5 -42.5t23 -48t4.5 -53.5v-189q0 -123 14 -177v-5h-212q-11 22 -11 74z" />
    <glyph glyph-name="r.alt" unicode="&#xe4d1;" horiz-adv-x="540" 
d="M267 235v-235h-223v538h221v-125q70 137 248 137v-215q-39 13 -98 13q-74 0 -111 -31t-37 -82z" />
    <glyph glyph-name="idotaccent" horiz-adv-x="311" 
d="M267 744v-154h-223v154h223zM267 538v-538h-223v538h223z" />
    <glyph glyph-name="space_uni0326" 
d="M423 -283h-113q22 49 29 81h-100v150h223v-120q0 -51 -39 -111z" />
    <glyph glyph-name="zero.num" horiz-adv-x="587" 
d="M283 750h23q66 0 116 -12.5t77.5 -31.5t44.5 -45t22 -47.5t5 -44.5v-15q0 -23 -5 -44.5t-22 -48t-44.5 -45.5t-77.5 -32t-116 -13h-23q-67 0 -117 13t-78 32.5t-45 45.5t-22 47.5t-5 44.5v15q0 23 5 44.5t22 47.5t45 45t78 31.5t117 12.5zM416 566q0 33 -27.5 56.5
t-94.5 23.5t-94.5 -23.5t-27.5 -56.5v-6q0 -34 28 -59t94 -25t94 25t28 59v6z" />
    <glyph glyph-name="one.num" horiz-adv-x="288" 
d="M107 587h-95v82q94 6 122 75h120v-368h-147v211z" />
    <glyph glyph-name="two.num" horiz-adv-x="508" 
d="M491 376h-480v43q0 30 7.5 52.5t30.5 48t73 45.5t126 34q53 10 70.5 17.5t17.5 18.5q0 23 -78 23q-87 0 -90 -47h-151v4q0 135 227 135h19q70 0 117 -9t70 -26t32 -36.5t9 -46.5v-4q0 -53 -47.5 -75t-164.5 -40q-108 -17 -125 -25q-7 -4 -10 -8h347v-104z" />
    <glyph glyph-name="three.num" horiz-adv-x="521" 
d="M271 371h-33q-61 0 -106 11t-68.5 26.5t-37.5 36.5t-17 36t-3 30v5h156q0 -46 95 -46q97 0 97 31v2q0 22 -45 22h-122v88h116q44 0 44 19v2q0 23 -95 23q-92 0 -92 -35h-149v5q0 11 2 21t9 25.5t22.5 28t38.5 24t62 18t89 6.5h31q76 0 127 -8.5t73 -24.5t29.5 -30
t7.5 -33v-3q0 -23 -19 -40.5t-51 -21.5q37 -6 60 -28.5t23 -58.5v-4q0 -127 -244 -127z" />
    <glyph glyph-name="four.num" horiz-adv-x="516" 
d="M11 528l245 217h169v-201h79v-99h-79v-69h-149v69h-265v83zM148 544h128v112z" />
    <glyph glyph-name="five.num" horiz-adv-x="504" 
d="M283 371h-46q-71 0 -118.5 13t-67 34.5t-25.5 38t-6 34.5v3h156q6 -30 84 -30q80 0 80 40v3q0 39 -80 39q-77 0 -84 -29h-148v227h438v-91h-290v-57q36 31 127 31h5q104 0 144 -31.5t40 -86.5v-3q0 -135 -209 -135z" />
    <glyph glyph-name="six.num" horiz-adv-x="544" 
d="M292 371h-36q-240 0 -240 184v12q0 31 8.5 59t31.5 58t73 48t123 18h31q127 0 180.5 -35t53.5 -81v-3h-150q-6 28 -91 28q-61 0 -84.5 -23.5t-23.5 -52.5v-2q51 34 149 34h7q64 0 107 -8.5t64.5 -24t30 -33.5t8.5 -42v-4q0 -25 -8 -45t-31 -41.5t-74.5 -33.5t-128.5 -12z
M181 498q0 -34 99 -34q40 0 63 5.5t28.5 12t5.5 16.5v3q0 34 -97 34q-99 0 -99 -34v-3z" />
    <glyph glyph-name="seven.num" horiz-adv-x="504" 
d="M14 744h479v-89q-48 -52 -89 -104q-39 -50 -49 -84.5t-10 -85.5v-5h-164v38q0 42 19.5 74.5t75.5 86.5q64 63 68 71q1 2 1 4h-186v-75h-145v169z" />
    <glyph glyph-name="eight.num" horiz-adv-x="522" 
d="M504 650v-6q0 -28 -24 -48t-58 -26q40 -5 65.5 -27.5t25.5 -53.5v-7q0 -111 -240 -111h-24q-240 0 -240 111v7q0 30 25.5 52.5t65.5 28.5q-35 6 -58.5 26t-23.5 48v6q0 99 231 99h24q231 0 231 -99zM348 638v1q0 27 -88 27q-87 0 -87 -27v-1q0 -28 87 -28q38 0 58.5 4.5
t25 10t4.5 13.5zM359 493v2q0 30 -99 30q-97 0 -97 -30v-2q0 -31 97 -31q99 0 99 31z" />
    <glyph glyph-name="nine.num" horiz-adv-x="544" 
d="M362 622q0 35 -98 35q-99 0 -99 -34v-2q0 -35 99 -35q98 0 98 34v2zM258 371q-69 0 -117.5 12t-71.5 31t-32.5 37t-9.5 37v2h150q7 -28 91 -28q60 0 83 23.5t23 51.5v2q-1 0 -6 -3.5t-10 -6t-13.5 -6t-19 -6.5t-24.5 -5.5t-32 -4t-39 -1.5h-6q-64 0 -107.5 9t-65.5 26
t-31 35.5t-9 42.5v4q0 25 7.5 44t29.5 39.5t73 32t128 11.5h35q75 0 126.5 -17.5t75 -47t32.5 -57.5t9 -60v-12q0 -24 -4.5 -46.5t-20 -48.5t-40.5 -45t-69.5 -32t-103.5 -13h-31z" />
    <glyph glyph-name="zero.den" horiz-adv-x="587" 
d="M283 374h23q66 0 116 -12.5t77.5 -31.5t44.5 -45t22 -47.5t5 -44.5v-15q0 -23 -5 -44.5t-22 -48t-44.5 -45.5t-77.5 -32t-116 -13h-23q-67 0 -117 13t-78 32.5t-45 45.5t-22 47.5t-5 44.5v15q0 23 5 44.5t22 47.5t45 45t78 31.5t117 12.5zM416 190q0 33 -27.5 56.5
t-94.5 23.5t-94.5 -23.5t-27.5 -56.5v-6q0 -34 28 -59t94 -25t94 25t28 59v6z" />
    <glyph glyph-name="one.den" horiz-adv-x="288" 
d="M107 211h-95v82q94 6 122 75h120v-368h-147v211z" />
    <glyph glyph-name="two.den" horiz-adv-x="508" 
d="M491 0h-480v43q0 30 7.5 52.5t30.5 48t73 45.5t126 34q53 10 70.5 17.5t17.5 18.5q0 23 -78 23q-87 0 -90 -47h-151v4q0 135 227 135h19q70 0 117 -9t70 -26t32 -36.5t9 -46.5v-4q0 -53 -47.5 -75t-164.5 -40q-8 -1 -23 -3q-97 -15 -110 -27q-1 -2 -2 -3h347v-104z" />
    <glyph glyph-name="three.den" horiz-adv-x="521" 
d="M271 -5h-33q-61 0 -106 11t-68.5 26.5t-37.5 36.5t-17 36t-3 30v5h156q0 -46 95 -46q97 0 97 31v2q0 22 -45 22h-122v88h116q44 0 44 19v2q0 23 -95 23q-92 0 -92 -35h-149v5q0 11 2 21t9 25.5t22.5 28t38.5 24t62 18t89 6.5h31q76 0 127 -8.5t73 -24.5t29.5 -30t7.5 -33
v-3q0 -23 -19 -40.5t-51 -21.5q37 -6 60 -28.5t23 -58.5v-4q0 -127 -244 -127z" />
    <glyph glyph-name="four.den" horiz-adv-x="516" 
d="M11 152l245 217h169v-201h79v-99h-79v-69h-149v69h-265v83zM148 168h128v112z" />
    <glyph glyph-name="five.den" horiz-adv-x="504" 
d="M283 -5h-46q-71 0 -118.5 13t-67 34.5t-25.5 38t-6 34.5v3h156q6 -30 84 -30q80 0 80 40v3q0 39 -80 39q-77 0 -84 -29h-148v227h438v-91h-290v-57q36 31 127 31h5q104 0 144 -31.5t40 -86.5v-3q0 -135 -209 -135z" />
    <glyph glyph-name="six.den" horiz-adv-x="544" 
d="M292 -5h-36q-240 0 -240 184v12q0 31 8.5 59t31.5 58t73 48t123 18h31q127 0 180.5 -35t53.5 -81v-3h-150q-6 28 -91 28q-61 0 -84.5 -23.5t-23.5 -52.5v-2q51 34 149 34h7q64 0 107 -8.5t64.5 -24t30 -33.5t8.5 -42v-4q0 -25 -8 -45t-31 -41.5t-74.5 -33.5t-128.5 -12z
M181 122q0 -34 99 -34q40 0 63 5.5t28.5 12t5.5 16.5v3q0 34 -97 34q-99 0 -99 -34v-3z" />
    <glyph glyph-name="seven.den" horiz-adv-x="504" 
d="M14 368h479v-89q-48 -52 -89 -104q-39 -50 -49 -84.5t-10 -85.5v-5h-164v38q0 42 19.5 74.5t75.5 86.5q7 7 19 18q50 49 50 57h-186v-75h-145v169z" />
    <glyph glyph-name="eight.den" horiz-adv-x="522" 
d="M504 274v-6q0 -28 -24 -48t-58 -26q40 -5 65.5 -27.5t25.5 -53.5v-7q0 -111 -240 -111h-24q-240 0 -240 111v7q0 30 25.5 52.5t65.5 28.5q-35 6 -58.5 26t-23.5 48v6q0 99 231 99h24q231 0 231 -99zM348 262v1q0 27 -88 27q-87 0 -87 -27v-1q0 -28 87 -28q38 0 58.5 4.5
t25 10t4.5 13.5zM359 117v2q0 30 -99 30q-97 0 -97 -30v-2q0 -31 97 -31q99 0 99 31z" />
    <glyph glyph-name="nine.den" horiz-adv-x="544" 
d="M362 246q0 35 -98 35q-99 0 -99 -34v-2q0 -35 99 -35q98 0 98 34v2zM258 -5q-69 0 -117.5 12t-71.5 31t-32.5 37t-9.5 37v2h150q7 -28 91 -28q60 0 83 23.5t23 51.5v2q-1 0 -6 -3.5t-10 -6t-13.5 -6t-19 -6.5t-24.5 -5.5t-32 -4t-39 -1.5h-6q-64 0 -107.5 9t-65.5 26
t-31 35.5t-9 42.5v4q0 25 7.5 44t29.5 39.5t73 32t128 11.5h35q75 0 126.5 -17.5t75 -47t32.5 -57.5t9 -60v-12q0 -24 -4.5 -46.5t-20 -48.5t-40.5 -45t-69.5 -32t-103.5 -13h-31z" />
    <glyph glyph-name="zero.sub" horiz-adv-x="587" 
d="M283 280h23q66 0 116 -12.5t77.5 -31.5t44.5 -45t22 -47.5t5 -44.5v-15q0 -23 -5 -44.5t-22 -48t-44.5 -45.5t-77.5 -32t-116 -13h-23q-67 0 -117 13t-78 32.5t-45 45.5t-22 47.5t-5 44.5v15q0 23 5 44.5t22 47.5t45 45t78 31.5t117 12.5zM416 96q0 33 -27.5 56.5
t-94.5 23.5t-94.5 -23.5t-27.5 -56.5v-6q0 -34 28 -59t94 -25t94 25t28 59v6z" />
    <glyph glyph-name="one.sub" horiz-adv-x="288" 
d="M107 117h-95v82q94 6 122 75h120v-368h-147v211z" />
    <glyph glyph-name="two.sub" horiz-adv-x="508" 
d="M491 -94h-480v43q0 30 7.5 52.5t30.5 48t73 45.5t126 34q53 10 70.5 17.5t17.5 18.5q0 23 -78 23q-87 0 -90 -47h-151v4q0 135 227 135h19q70 0 117 -9t70 -26t32 -36.5t9 -46.5v-4q0 -53 -47.5 -75t-164.5 -40q-108 -17 -125 -25q-7 -4 -10 -8h347v-104z" />
    <glyph glyph-name="three.sub" horiz-adv-x="521" 
d="M271 -99h-33q-61 0 -106 11t-68.5 26.5t-37.5 36.5t-17 36t-3 30v5h156q0 -46 95 -46q97 0 97 31v2q0 22 -45 22h-122v88h116q44 0 44 19v2q0 23 -95 23q-92 0 -92 -35h-149v5q0 11 2 21t9 25.5t22.5 28t38.5 24t62 18t89 6.5h31q76 0 127 -8.5t73 -24.5t29.5 -30
t7.5 -33v-3q0 -23 -19 -40.5t-51 -21.5q37 -6 60 -28.5t23 -58.5v-4q0 -127 -244 -127z" />
    <glyph glyph-name="four.sub" horiz-adv-x="516" 
d="M11 58l245 217h169v-201h79v-99h-79v-69h-149v69h-265v83zM148 74h128v112z" />
    <glyph glyph-name="five.sub" horiz-adv-x="504" 
d="M283 -99h-46q-71 0 -118.5 13t-67 34.5t-25.5 38t-6 34.5v3h156q6 -30 84 -30q80 0 80 40v3q0 39 -80 39q-77 0 -84 -29h-148v227h438v-91h-290v-57q36 31 127 31h5q104 0 144 -31.5t40 -86.5v-3q0 -135 -209 -135z" />
    <glyph glyph-name="six.sub" horiz-adv-x="544" 
d="M292 -99h-36q-240 0 -240 184v12q0 31 8.5 59t31.5 58t73 48t123 18h31q127 0 180.5 -35t53.5 -81v-3h-150q-6 28 -91 28q-61 0 -84.5 -23.5t-23.5 -52.5v-2q51 34 149 34h7q64 0 107 -8.5t64.5 -24t30 -33.5t8.5 -42v-4q0 -25 -8 -45t-31 -41.5t-74.5 -33.5t-128.5 -12z
M181 28q0 -34 99 -34q40 0 63 5.5t28.5 12t5.5 16.5v3q0 34 -97 34q-99 0 -99 -34v-3z" />
    <glyph glyph-name="seven.sub" horiz-adv-x="504" 
d="M14 274h479v-89q-48 -52 -89 -104q-39 -50 -49 -84.5t-10 -85.5v-5h-164v38q0 42 19.5 74.5t75.5 86.5q64 63 68 71q1 2 1 4h-186v-75h-145v169z" />
    <glyph glyph-name="eight.sub" horiz-adv-x="522" 
d="M504 180v-6q0 -28 -24 -48t-58 -26q40 -5 65.5 -27.5t25.5 -53.5v-7q0 -111 -240 -111h-24q-240 0 -240 111v7q0 30 25.5 52.5t65.5 28.5q-35 6 -58.5 26t-23.5 48v6q0 99 231 99h24q231 0 231 -99zM348 168v1q0 27 -88 27q-87 0 -87 -27v-1q0 -28 87 -28q38 0 58.5 4.5
t25 10t4.5 13.5zM359 23v2q0 30 -99 30q-97 0 -97 -30v-2q0 -31 97 -31q99 0 99 31z" />
    <glyph glyph-name="nine.sub" horiz-adv-x="544" 
d="M362 152q0 35 -98 35q-99 0 -99 -34v-2q0 -35 99 -35q98 0 98 34v2zM258 -99q-69 0 -117.5 12t-71.5 31t-32.5 37t-9.5 37v2h150q7 -28 91 -28q60 0 83 23.5t23 51.5v2q-1 0 -6 -3.5t-10 -6t-13.5 -6t-19 -6.5t-24.5 -5.5t-32 -4t-39 -1.5h-6q-64 0 -107.5 9t-65.5 26
t-31 35.5t-9 42.5v4q0 25 7.5 44t29.5 39.5t73 32t128 11.5h35q75 0 126.5 -17.5t75 -47t32.5 -57.5t9 -60v-12q0 -24 -4.5 -46.5t-20 -48.5t-40.5 -45t-69.5 -32t-103.5 -13h-31z" />
    <glyph glyph-name="zero.sup" horiz-adv-x="587" 
d="M283 750h23q66 0 116 -12.5t77.5 -31.5t44.5 -45t22 -47.5t5 -44.5v-15q0 -23 -5 -44.5t-22 -48t-44.5 -45.5t-77.5 -32t-116 -13h-23q-67 0 -117 13t-78 32.5t-45 45.5t-22 47.5t-5 44.5v15q0 23 5 44.5t22 47.5t45 45t78 31.5t117 12.5zM416 566q0 33 -27.5 56.5
t-94.5 23.5t-94.5 -23.5t-27.5 -56.5v-6q0 -34 28 -59t94 -25t94 25t28 59v6z" />
    <glyph glyph-name="one.sup" horiz-adv-x="288" 
d="M107 587h-95v82q94 6 122 75h120v-368h-147v211z" />
    <glyph glyph-name="two.sup" horiz-adv-x="508" 
d="M491 376h-480v43q0 30 7.5 52.5t30.5 48t73 45.5t126 34q53 10 70.5 17.5t17.5 18.5q0 23 -78 23q-87 0 -90 -47h-151v4q0 135 227 135h19q70 0 117 -9t70 -26t32 -36.5t9 -46.5v-4q0 -53 -47.5 -75t-164.5 -40q-109 -15 -127 -26q-5 -3 -8 -7h347v-104z" />
    <glyph glyph-name="three.sup" horiz-adv-x="521" 
d="M271 371h-33q-61 0 -106 11t-68.5 26.5t-37.5 36.5t-17 36t-3 30v5h156q0 -46 95 -46q97 0 97 31v2q0 22 -45 22h-122v88h116q44 0 44 19v2q0 23 -95 23q-92 0 -92 -35h-149v5q0 11 2 21t9 25.5t22.5 28t38.5 24t62 18t89 6.5h31q76 0 127 -8.5t73 -24.5t29.5 -30
t7.5 -33v-3q0 -23 -19 -40.5t-51 -21.5q37 -6 60 -28.5t23 -58.5v-4q0 -127 -244 -127z" />
    <glyph glyph-name="four.sup" horiz-adv-x="516" 
d="M11 528l245 217h169v-201h79v-99h-79v-69h-149v69h-265v83zM148 544h128v112z" />
    <glyph glyph-name="five.sup" horiz-adv-x="504" 
d="M283 371h-46q-71 0 -118.5 13t-67 34.5t-25.5 38t-6 34.5v3h156q6 -30 84 -30q80 0 80 40v3q0 39 -80 39q-77 0 -84 -29h-148v227h438v-91h-290v-57q36 31 127 31h5q104 0 144 -31.5t40 -86.5v-3q0 -135 -209 -135z" />
    <glyph glyph-name="six.sup" horiz-adv-x="544" 
d="M292 371h-36q-240 0 -240 184v12q0 31 8.5 59t31.5 58t73 48t123 18h31q127 0 180.5 -35t53.5 -81v-3h-150q-6 28 -91 28q-61 0 -84.5 -23.5t-23.5 -52.5v-2q51 34 149 34h7q64 0 107 -8.5t64.5 -24t30 -33.5t8.5 -42v-4q0 -25 -8 -45t-31 -41.5t-74.5 -33.5t-128.5 -12z
M181 498q0 -34 99 -34q40 0 63 5.5t28.5 12t5.5 16.5v3q0 34 -97 34q-99 0 -99 -34v-3z" />
    <glyph glyph-name="seven.sup" horiz-adv-x="504" 
d="M14 744h479v-89q-48 -52 -89 -104q-39 -50 -49 -84.5t-10 -85.5v-5h-164v38q0 42 19.5 74.5t75.5 86.5q64 63 68 71q1 2 1 4h-186v-75h-145v169z" />
    <glyph glyph-name="eight.sup" horiz-adv-x="522" 
d="M504 650v-6q0 -28 -24 -48t-58 -26q40 -5 65.5 -27.5t25.5 -53.5v-7q0 -111 -240 -111h-24q-240 0 -240 111v7q0 30 25.5 52.5t65.5 28.5q-35 6 -58.5 26t-23.5 48v6q0 99 231 99h24q231 0 231 -99zM348 638v1q0 27 -88 27q-87 0 -87 -27v-1q0 -28 87 -28q38 0 58.5 4.5
t25 10t4.5 13.5zM359 493v2q0 30 -99 30q-97 0 -97 -30v-2q0 -31 97 -31q99 0 99 31z" />
    <glyph glyph-name="nine.sup" horiz-adv-x="544" 
d="M362 622q0 35 -98 35q-99 0 -99 -34v-2q0 -35 99 -35q98 0 98 34v2zM258 371q-69 0 -117.5 12t-71.5 31t-32.5 37t-9.5 37v2h150q7 -28 91 -28q60 0 83 23.5t23 51.5v2q-1 0 -6 -3.5t-10 -6t-13.5 -6t-19 -6.5t-24.5 -5.5t-32 -4t-39 -1.5h-6q-64 0 -107.5 9t-65.5 26
t-31 35.5t-9 42.5v4q0 25 7.5 44t29.5 39.5t73 32t128 11.5h35q75 0 126.5 -17.5t75 -47t32.5 -57.5t9 -60v-12q0 -24 -4.5 -46.5t-20 -48.5t-40.5 -45t-69.5 -32t-103.5 -13h-31z" />
    <glyph glyph-name="IJ.alt" horiz-adv-x="840" 
d="M287 744v-744h-233v744h233zM367 0v185h107q47 0 68.5 23.5t21.5 84.5v451h233v-501q0 -243 -220 -243h-210z" />
    <glyph glyph-name="a.alt2" horiz-adv-x="877" 
d="M609 268v4q0 55 -52.5 96.5t-138.5 41.5h-5q-89 0 -127.5 -40t-38.5 -98v-4q0 -54 42.5 -96.5t126.5 -42.5h5q86 0 137 42.5t51 96.5zM609 538h224v-538h-222v83q-20 -30 -83.5 -63t-165.5 -33h-14q-162 0 -245.5 78.5t-83.5 198.5v19q0 113 82 190.5t237 77.5h15
q71 0 130 -17.5t84.5 -34t41.5 -33.5v72z" />
    <glyph glyph-name="Jcircumflex.alt" horiz-adv-x="499" 
d="M26 0v185h107q47 0 68.5 23.5t21.5 84.5v451h233v-501q0 -243 -220 -243h-210zM462 946l160 -150h-220l-66 58l-65 -58h-217l157 150h251z" />
    <glyph glyph-name="aacute.alt" horiz-adv-x="777" 
d="M269 590l90 154h230l-107 -154h-213zM519 239v17l-213 -33q-44 -7 -62.5 -17.5t-18.5 -32.5v-1q0 -25 23 -43t75 -18q86 0 141 38.5t55 89.5zM525 74q-75 -84 -249 -84h-13q-127 0 -188.5 50t-61.5 126v7q0 74 52.5 112t173.5 49l246 23q34 3 34 28q0 13 -7 21t-40 15.5
t-93 7.5h-5q-47 0 -77.5 -6.5t-43 -17.5t-16 -18.5t-4.5 -17.5h-207v2q0 26 4 46.5t23 47.5t51 45t94.5 30.5t148.5 12.5h55q90 0 154 -11t98 -27t52.5 -42.5t23 -48t4.5 -53.5v-189q0 -123 14 -177v-5h-212q-11 22 -11 74z" />
    <glyph glyph-name="aacute.alt2" horiz-adv-x="877" 
d="M609 268v4q0 55 -52.5 96.5t-138.5 41.5h-5q-89 0 -127.5 -40t-38.5 -98v-4q0 -54 42.5 -96.5t126.5 -42.5h5q86 0 137 42.5t51 96.5zM609 538h224v-538h-222v83q-20 -30 -83.5 -63t-165.5 -33h-14q-162 0 -245.5 78.5t-83.5 198.5v19q0 113 82 190.5t237 77.5h15
q71 0 130 -17.5t84.5 -34t41.5 -33.5v72zM310 590l90 154h230l-107 -154h-213z" />
    <glyph glyph-name="abreve.alt" horiz-adv-x="777" 
d="M363 582q-64 0 -109.5 17t-67 44.5t-30 51.5t-8.5 47v2h170q4 -49 62 -49q34 0 47 16t14 33h166v-2q0 -22 -10.5 -47t-32.5 -51.5t-66.5 -44t-102.5 -17.5h-32zM519 239v17l-213 -33q-44 -7 -62.5 -17.5t-18.5 -32.5v-1q0 -25 23 -43t75 -18q86 0 141 38.5t55 89.5z
M525 74q-75 -84 -249 -84h-13q-127 0 -188.5 50t-61.5 126v7q0 74 52.5 112t173.5 49l246 23q34 3 34 28q0 13 -7 21t-40 15.5t-93 7.5h-5q-47 0 -77.5 -6.5t-43 -17.5t-16 -18.5t-4.5 -17.5h-207v2q0 26 4 46.5t23 47.5t51 45t94.5 30.5t148.5 12.5h55q90 0 154 -11t98 -27
t52.5 -42.5t23 -48t4.5 -53.5v-189q0 -123 14 -177v-5h-212q-11 22 -11 74z" />
    <glyph glyph-name="abreve.alt2" horiz-adv-x="877" 
d="M609 268v4q0 55 -52.5 96.5t-138.5 41.5h-5q-89 0 -127.5 -40t-38.5 -98v-4q0 -54 42.5 -96.5t126.5 -42.5h5q86 0 137 42.5t51 96.5zM609 538h224v-538h-222v83q-20 -30 -83.5 -63t-165.5 -33h-14q-162 0 -245.5 78.5t-83.5 198.5v19q0 113 82 190.5t237 77.5h15
q71 0 130 -17.5t84.5 -34t41.5 -33.5v72zM404 582q-64 0 -109.5 17t-67 44.5t-30 51.5t-8.5 47v2h170q4 -49 62 -49q34 0 47 16t14 33h166v-2q0 -22 -10.5 -47t-32.5 -51.5t-66.5 -44t-102.5 -17.5h-32z" />
    <glyph glyph-name="acircumflex.alt" horiz-adv-x="777" 
d="M498 744l152 -155h-215l-61 64l-61 -64h-212l150 155h247zM519 239v17l-213 -33q-44 -7 -62.5 -17.5t-18.5 -32.5v-1q0 -25 23 -43t75 -18q86 0 141 38.5t55 89.5zM525 74q-75 -84 -249 -84h-13q-127 0 -188.5 50t-61.5 126v7q0 74 52.5 112t173.5 49l246 23q34 3 34 28
q0 13 -7 21t-40 15.5t-93 7.5h-5q-47 0 -77.5 -6.5t-43 -17.5t-16 -18.5t-4.5 -17.5h-207v2q0 26 4 46.5t23 47.5t51 45t94.5 30.5t148.5 12.5h55q90 0 154 -11t98 -27t52.5 -42.5t23 -48t4.5 -53.5v-189q0 -123 14 -177v-5h-212q-11 22 -11 74z" />
    <glyph glyph-name="acircumflex.alt2" horiz-adv-x="877" 
d="M609 268v4q0 55 -52.5 96.5t-138.5 41.5h-5q-89 0 -127.5 -40t-38.5 -98v-4q0 -54 42.5 -96.5t126.5 -42.5h5q86 0 137 42.5t51 96.5zM609 538h224v-538h-222v83q-20 -30 -83.5 -63t-165.5 -33h-14q-162 0 -245.5 78.5t-83.5 198.5v19q0 113 82 190.5t237 77.5h15
q71 0 130 -17.5t84.5 -34t41.5 -33.5v72zM533 744l152 -155h-215l-61 64l-61 -64h-212l150 155h247z" />
    <glyph glyph-name="adieresis.alt" horiz-adv-x="777" 
d="M616 744v-154h-216v154h216zM350 744v-154h-215v154h215zM519 239v17l-213 -33q-44 -7 -62.5 -17.5t-18.5 -32.5v-1q0 -25 23 -43t75 -18q86 0 141 38.5t55 89.5zM525 74q-75 -84 -249 -84h-13q-127 0 -188.5 50t-61.5 126v7q0 74 52.5 112t173.5 49l246 23q34 3 34 28
q0 13 -7 21t-40 15.5t-93 7.5h-5q-47 0 -77.5 -6.5t-43 -17.5t-16 -18.5t-4.5 -17.5h-207v2q0 26 4 46.5t23 47.5t51 45t94.5 30.5t148.5 12.5h55q90 0 154 -11t98 -27t52.5 -42.5t23 -48t4.5 -53.5v-189q0 -123 14 -177v-5h-212q-11 22 -11 74z" />
    <glyph glyph-name="adieresis.alt2" horiz-adv-x="877" 
d="M609 268v4q0 55 -52.5 96.5t-138.5 41.5h-5q-89 0 -127.5 -40t-38.5 -98v-4q0 -54 42.5 -96.5t126.5 -42.5h5q86 0 137 42.5t51 96.5zM609 538h224v-538h-222v83q-20 -30 -83.5 -63t-165.5 -33h-14q-162 0 -245.5 78.5t-83.5 198.5v19q0 113 82 190.5t237 77.5h15
q71 0 130 -17.5t84.5 -34t41.5 -33.5v72zM652 744v-154h-216v154h216zM386 744v-154h-215v154h215z" />
    <glyph glyph-name="agrave.alt" horiz-adv-x="777" 
d="M486 590h-215l-107 154h232zM519 239v17l-213 -33q-44 -7 -62.5 -17.5t-18.5 -32.5v-1q0 -25 23 -43t75 -18q86 0 141 38.5t55 89.5zM525 74q-75 -84 -249 -84h-13q-127 0 -188.5 50t-61.5 126v7q0 74 52.5 112t173.5 49l246 23q34 3 34 28q0 13 -7 21t-40 15.5t-93 7.5
h-5q-47 0 -77.5 -6.5t-43 -17.5t-16 -18.5t-4.5 -17.5h-207v2q0 26 4 46.5t23 47.5t51 45t94.5 30.5t148.5 12.5h55q90 0 154 -11t98 -27t52.5 -42.5t23 -48t4.5 -53.5v-189q0 -123 14 -177v-5h-212q-11 22 -11 74z" />
    <glyph glyph-name="agrave.alt2" horiz-adv-x="877" 
d="M609 268v4q0 55 -52.5 96.5t-138.5 41.5h-5q-89 0 -127.5 -40t-38.5 -98v-4q0 -54 42.5 -96.5t126.5 -42.5h5q86 0 137 42.5t51 96.5zM609 538h224v-538h-222v83q-20 -30 -83.5 -63t-165.5 -33h-14q-162 0 -245.5 78.5t-83.5 198.5v19q0 113 82 190.5t237 77.5h15
q71 0 130 -17.5t84.5 -34t41.5 -33.5v72zM520 590h-215l-107 154h232z" />
    <glyph glyph-name="amacron.alt" horiz-adv-x="777" 
d="M519 239v17l-213 -33q-44 -7 -62.5 -17.5t-18.5 -32.5v-1q0 -25 23 -43t75 -18q86 0 141 38.5t55 89.5zM525 74q-75 -84 -249 -84h-13q-127 0 -188.5 50t-61.5 126v7q0 74 52.5 112t173.5 49l246 23q34 3 34 28q0 13 -7 21t-40 15.5t-93 7.5h-5q-47 0 -77.5 -6.5
t-43 -17.5t-16 -18.5t-4.5 -17.5h-207v2q0 26 4 46.5t23 47.5t51 45t94.5 30.5t148.5 12.5h55q90 0 154 -11t98 -27t52.5 -42.5t23 -48t4.5 -53.5v-189q0 -123 14 -177v-5h-212q-11 22 -11 74zM164 601v122h422v-122h-422z" />
    <glyph glyph-name="amacron.alt2" horiz-adv-x="877" 
d="M609 268v4q0 55 -52.5 96.5t-138.5 41.5h-5q-89 0 -127.5 -40t-38.5 -98v-4q0 -54 42.5 -96.5t126.5 -42.5h5q86 0 137 42.5t51 96.5zM609 538h224v-538h-222v83q-20 -30 -83.5 -63t-165.5 -33h-14q-162 0 -245.5 78.5t-83.5 198.5v19q0 113 82 190.5t237 77.5h15
q71 0 130 -17.5t84.5 -34t41.5 -33.5v72zM207 601v122h422v-122h-422z" />
    <glyph glyph-name="aogonek.alt" horiz-adv-x="777" 
d="M748 -188h-135q-130 0 -130 71v2q0 38 41.5 64t127.5 51h-116q-11 22 -11 74q-75 -84 -249 -84h-13q-127 0 -188.5 50t-61.5 126v7q0 74 52.5 112t173.5 49l246 23q34 3 34 28q0 13 -7 21t-40 15.5t-93 7.5h-5q-47 0 -77.5 -6.5t-43 -17.5t-16 -18.5t-4.5 -17.5h-207v2
q0 26 4 46.5t23 47.5t51 45t94.5 30.5t148.5 12.5h55q90 0 154 -11t98 -27t52.5 -42.5t23 -48t4.5 -53.5v-189q0 -123 14 -177v-5q-30 -22 -44.5 -35.5t-14.5 -27.5q0 -23 38 -23h21v-102zM519 239v17l-213 -33q-44 -7 -62.5 -17.5t-18.5 -32.5v-1q0 -25 23 -43t75 -18
q86 0 141 38.5t55 89.5z" />
    <glyph glyph-name="aogonek.alt2" horiz-adv-x="877" 
d="M833 -188h-135q-130 0 -130 71v2q0 38 41.5 64t127.5 51h-126v83q-20 -30 -83.5 -63t-165.5 -33h-14q-162 0 -245.5 78.5t-83.5 198.5v19q0 113 82 190.5t237 77.5h15q71 0 130 -17.5t84.5 -34t41.5 -33.5v72h224v-538q-30 -22 -44.5 -35.5t-14.5 -27.5q0 -23 38 -23h21
v-102zM609 268v4q0 55 -52.5 96.5t-138.5 41.5h-5q-89 0 -127.5 -40t-38.5 -98v-4q0 -54 42.5 -96.5t126.5 -42.5h5q86 0 137 42.5t51 96.5z" />
    <glyph glyph-name="aring.alt" horiz-adv-x="777" 
d="M519 239v17l-213 -33q-44 -7 -62.5 -17.5t-18.5 -32.5v-1q0 -25 23 -43t75 -18q86 0 141 38.5t55 89.5zM525 74q-75 -84 -249 -84h-13q-127 0 -188.5 50t-61.5 126v7q0 74 52.5 112t173.5 49l246 23q34 3 34 28q0 13 -7 21t-40 15.5t-93 7.5h-5q-47 0 -77.5 -6.5
t-43 -17.5t-16 -18.5t-4.5 -17.5h-207v2q0 26 4 46.5t23 47.5t51 45t94.5 30.5t148.5 12.5h55q90 0 154 -11t98 -27t52.5 -42.5t23 -48t4.5 -53.5v-189q0 -123 14 -177v-5h-212q-11 22 -11 74zM185 699q0 116 191 116q187 0 187 -116q0 -118 -187 -118q-191 0 -191 118z
M300 699q0 -47 76 -47q73 0 73 47q0 45 -73 45q-76 0 -76 -45z" />
    <glyph glyph-name="aring.alt2" horiz-adv-x="877" 
d="M609 268v4q0 55 -52.5 96.5t-138.5 41.5h-5q-89 0 -127.5 -40t-38.5 -98v-4q0 -54 42.5 -96.5t126.5 -42.5h5q86 0 137 42.5t51 96.5zM609 538h224v-538h-222v83q-20 -30 -83.5 -63t-165.5 -33h-14q-162 0 -245.5 78.5t-83.5 198.5v19q0 113 82 190.5t237 77.5h15
q71 0 130 -17.5t84.5 -34t41.5 -33.5v72zM220 699q0 116 191 116q187 0 187 -116q0 -118 -187 -118q-191 0 -191 118zM335 699q0 -47 76 -47q73 0 73 47q0 45 -73 45q-76 0 -76 -45z" />
    <glyph glyph-name="aringacute.alt" horiz-adv-x="777" 
d="M185 699q0 116 191 116q187 0 187 -116q0 -118 -187 -118q-191 0 -191 118zM300 699q0 -47 76 -47q73 0 73 47q0 45 -73 45q-76 0 -76 -45zM274 842l90 154h230l-107 -154h-213zM519 239v17l-213 -33q-44 -7 -62.5 -17.5t-18.5 -32.5v-1q0 -25 23 -43t75 -18
q86 0 141 38.5t55 89.5zM525 74q-75 -84 -249 -84h-13q-127 0 -188.5 50t-61.5 126v7q0 74 52.5 112t173.5 49l246 23q34 3 34 28q0 13 -7 21t-40 15.5t-93 7.5h-5q-47 0 -77.5 -6.5t-43 -17.5t-16 -18.5t-4.5 -17.5h-207v2q0 26 4 46.5t23 47.5t51 45t94.5 30.5t148.5 12.5
h55q90 0 154 -11t98 -27t52.5 -42.5t23 -48t4.5 -53.5v-189q0 -123 14 -177v-5h-212q-11 22 -11 74z" />
    <glyph glyph-name="aringacute.alt2" horiz-adv-x="877" 
d="M221 699q0 116 191 116q187 0 187 -116q0 -118 -187 -118q-191 0 -191 118zM336 699q0 -47 76 -47q73 0 73 47q0 45 -73 45q-76 0 -76 -45zM310 842l90 154h230l-107 -154h-213zM609 268v4q0 55 -52.5 96.5t-138.5 41.5h-5q-89 0 -127.5 -40t-38.5 -98v-4
q0 -54 42.5 -96.5t126.5 -42.5h5q86 0 137 42.5t51 96.5zM609 538h224v-538h-222v83q-20 -30 -83.5 -63t-165.5 -33h-14q-162 0 -245.5 78.5t-83.5 198.5v19q0 113 82 190.5t237 77.5h15q71 0 130 -17.5t84.5 -34t41.5 -33.5v72z" />
    <glyph glyph-name="atilde.alt" horiz-adv-x="777" 
d="M519 239v17l-213 -33q-44 -7 -62.5 -17.5t-18.5 -32.5v-1q0 -25 23 -43t75 -18q86 0 141 38.5t55 89.5zM525 74q-75 -84 -249 -84h-13q-127 0 -188.5 50t-61.5 126v7q0 74 52.5 112t173.5 49l246 23q34 3 34 28q0 13 -7 21t-40 15.5t-93 7.5h-5q-47 0 -77.5 -6.5
t-43 -17.5t-16 -18.5t-4.5 -17.5h-207v2q0 26 4 46.5t23 47.5t51 45t94.5 30.5t148.5 12.5h55q90 0 154 -11t98 -27t52.5 -42.5t23 -48t4.5 -53.5v-189q0 -123 14 -177v-5h-212q-11 22 -11 74zM493 594q-39 0 -124 28q-45 15 -57 15q-16 0 -16 -21v-29h-144v76q0 39 21.5 68
t75.5 29h5q44 0 124 -28q43 -15 57 -15q16 0 16 22v29h144v-76q0 -98 -96 -98h-6z" />
    <glyph glyph-name="atilde.alt2" horiz-adv-x="877" 
d="M609 268v4q0 55 -52.5 96.5t-138.5 41.5h-5q-89 0 -127.5 -40t-38.5 -98v-4q0 -54 42.5 -96.5t126.5 -42.5h5q86 0 137 42.5t51 96.5zM609 538h224v-538h-222v83q-20 -30 -83.5 -63t-165.5 -33h-14q-162 0 -245.5 78.5t-83.5 198.5v19q0 113 82 190.5t237 77.5h15
q71 0 130 -17.5t84.5 -34t41.5 -33.5v72zM541 594q-39 0 -124 28q-45 15 -57 15q-16 0 -16 -21v-29h-144v76q0 39 21.5 68t75.5 29h5q44 0 124 -28q43 -15 57 -15q16 0 16 22v29h144v-76q0 -98 -96 -98h-6z" />
    <glyph glyph-name="racute.alt" horiz-adv-x="540" 
d="M267 235v-235h-223v538h221v-125q70 137 248 137v-215q-39 13 -98 13q-74 0 -111 -31t-37 -82zM177 590l90 154h230l-107 -154h-213z" />
    <glyph glyph-name="rcaron.alt" horiz-adv-x="540" 
d="M267 235v-235h-223v538h221v-125q70 137 248 137v-215q-39 13 -98 13q-74 0 -111 -31t-37 -82zM158 590l-152 154h215l61 -63l61 63h212l-150 -154h-247z" />
    <glyph glyph-name="rcommaaccent.alt" horiz-adv-x="540" 
d="M267 235v-235h-223v538h221v-125q70 137 248 137v-215q-39 13 -98 13q-74 0 -111 -31t-37 -82zM228 -283h-113q22 49 29 81h-100v150h223v-120q0 -51 -39 -111z" />
    <glyph glyph-name="space_uni0326.alt" 
d="M277 821h113q-22 -49 -29 -81h100v-150h-223v120q0 51 39 111z" />
    <glyph glyph-name="ordfeminine.alt" horiz-adv-x="542" 
d="M232 466q55 0 87.5 24.5t32.5 57.5v6l-129 -20q-50 -8 -50 -34q0 -34 59 -34zM366 440q-53 -61 -170 -61h-9q-90 0 -131 33t-41 84v5q0 94 166 109l152 14q19 1 19 16q0 26 -84 26h-8q-37 0 -56.5 -7t-22.5 -13t-4 -16h-153v2q0 23 5.5 39.5t25 37t67.5 31.5t122 11h39
q74 0 122 -10t69.5 -28.5t28.5 -36.5t7 -44v-125q0 -83 9 -117v-4h-146q-7 14 -7 54z" />
    <glyph glyph-name="ordfeminine.alt2" horiz-adv-x="610" 
d="M406 563v3q0 35 -31.5 59t-86.5 24h-3q-103 0 -103 -83v-3q0 -34 25.5 -59.5t78.5 -25.5h5q54 0 84.5 25t30.5 60zM410 744h168v-359h-167v49q-54 -58 -161 -58h-12q-113 0 -169 52.5t-56 132.5v13q0 75 55.5 126t163.5 51h12q106 0 166 -51v44z" />
    <glyph glyph-name="caron.alt" 
d="M253 578l15 166h179l-30 -166h-164z" />
    <glyph glyph-name="plus.uc" horiz-adv-x="617" 
d="M582 282h-190v-176h-168v176h-189v138h189v176h168v-176h190v-138z" />
    <glyph glyph-name="minus.uc" horiz-adv-x="576" 
d="M35 421h506v-140h-506v140z" />
    <glyph glyph-name="multiply.uc" horiz-adv-x="531" 
d="M415 117l-150 134l-150 -134l-101 108l140 125l-140 125l102 108l150 -133l149 133l101 -108l-140 -125l141 -125z" />
    <glyph glyph-name="divide.uc" horiz-adv-x="618" 
d="M405 628v-152h-192v152h192zM35 420h548v-138h-548v138zM405 225v-152h-192v152h192z" />
    <glyph glyph-name="equal.uc" horiz-adv-x="586" 
d="M40 515h506v-128h-506v128zM40 317h506v-127h-506v127z" />
    <glyph glyph-name="less.uc" horiz-adv-x="539" 
d="M501 111l-466 155v159l466 157v-152l-316 -85l316 -83v-151z" />
    <glyph glyph-name="greater.uc" horiz-adv-x="539" 
d="M38 111v151l316 83l-316 85v152l466 -157v-159z" />
    <glyph glyph-name="questiondown.uc" horiz-adv-x="845" 
d="M358 503h228v-75q0 -57 -31.5 -88t-129.5 -56l-84 -21q-57 -15 -75 -29t-18 -34q0 -16 7 -25.5t46.5 -18t114.5 -8.5q43 0 76 4.5t52 13.5t31 17t17 21.5t6 19t2 17.5h228v-12q0 -25 -1.5 -42.5t-9.5 -44.5t-22.5 -46t-43 -40t-68 -34.5t-101 -22t-138.5 -8.5h-56
q-371 0 -371 207v7q0 74 45 123.5t147 75.5l83 22q44 11 55 25t11 45v7zM348 569v175h241v-175h-241z" />
    <glyph glyph-name="exclamdown.uc" horiz-adv-x="314" 
d="M293 0h-272l69 518h134zM278 744v-175h-242v175h242z" />
    <glyph glyph-name="hyphen.uc" horiz-adv-x="391" 
d="M35 426h321v-172h-321v172z" />
    <glyph glyph-name="endash.uc" horiz-adv-x="885" 
d="M35 407h815v-130h-815v130z" />
    <glyph glyph-name="emdash.uc" horiz-adv-x="1301" 
d="M35 407h1231v-130h-1231v130z" />
    <glyph glyph-name="guilsinglleft.uc" horiz-adv-x="330" 
d="M312 138h-168l-133 170l135 168h171l-132 -168z" />
    <glyph glyph-name="guilsinglright.uc" horiz-adv-x="330" 
d="M187 138h-169l127 170l-132 168h171l135 -168z" />
    <glyph glyph-name="guillemotleft.uc" horiz-adv-x="534" 
d="M177 308l119 -170h-161l-124 170l125 168h163zM401 308l114 -170h-161l-119 170l123 168h163z" />
    <glyph glyph-name="guillemotright.uc" horiz-adv-x="534" 
d="M133 308l-120 168h163l123 -168l-119 -170h-161zM399 138h-161l119 170l-122 168h163l125 -168z" />
    <glyph glyph-name="parenleft.uc" horiz-adv-x="330" 
d="M32 368q0 232 182 448h122q-54 -95 -89 -212t-35 -236q0 -120 35 -237.5t89 -211.5h-122q-182 204 -182 449z" />
    <glyph glyph-name="parenright.uc" horiz-adv-x="330" 
d="M298 368q0 -245 -182 -449h-122q54 94 89 211.5t35 237.5q0 119 -35 236t-89 212h122q182 -216 182 -448z" />
    <glyph glyph-name="bracketleft.uc" horiz-adv-x="344" 
d="M54 -81v898h279v-111h-107v-677h107v-110h-279z" />
    <glyph glyph-name="bracketright.uc" horiz-adv-x="344" 
d="M11 -81v110h107v677h-107v111h279v-898h-279z" />
    <glyph glyph-name="braceleft.uc" horiz-adv-x="359" 
d="M348 -80h-125q-89 0 -132.5 26t-43.5 85q0 41 42.5 130t42.5 108q0 46 -45 46h-63v112h63q45 0 45 38q0 21 -42.5 107.5t-42.5 129.5q0 115 176 115h125v-111h-77q-44 0 -44 -34q0 -20 32.5 -94.5t32.5 -102.5q0 -42 -22 -66.5t-73 -36.5q51 -11 73 -32.5t22 -57.5
q0 -32 -32.5 -111t-32.5 -98q0 -43 52 -43h69v-110z" />
    <glyph glyph-name="braceright.uc" horiz-adv-x="359" 
d="M136 -80h-125v110h69q52 0 52 43q0 19 -32 98t-32 111q0 36 21.5 57.5t72.5 32.5q-51 12 -72.5 36.5t-21.5 66.5q0 28 32 102.5t32 94.5q0 34 -44 34h-77v111h125q176 0 176 -115q0 -43 -42.5 -129.5t-42.5 -107.5q0 -38 45 -38h63v-112h-63q-45 0 -45 -46
q0 -19 42.5 -108t42.5 -130q0 -59 -43.5 -85t-132.5 -26z" />
    <glyph glyph-name="slash.uc" horiz-adv-x="464" 
d="M480 816l-333 -897h-168l331 897h170z" />
    <glyph glyph-name="backslash.uc" horiz-adv-x="464" 
d="M486 -81h-169l-333 897h170z" />
    <glyph glyph-name="bar.uc" horiz-adv-x="375" 
d="M268 816v-897h-161v897h161z" />
    <glyph glyph-name="at.uc" horiz-adv-x="1323" 
d="M673 -108q-154 0 -271.5 26t-187.5 67.5t-114 102.5t-59.5 122t-15.5 134v12q0 76 18 139t62.5 120t114.5 96t180.5 62t253.5 23h13q100 0 184 -9t144.5 -23t109 -37t80 -45t54 -53t34 -55.5t18 -58.5t8 -55.5t1.5 -51.5v-11q0 -57 -16 -107.5t-51.5 -97t-102.5 -74
t-159 -27.5h-17q-130 0 -170 77q-77 -77 -218 -77h-15q-73 0 -127 23.5t-81.5 61.5t-38 81.5t-4.5 89.5l7 50q9 82 69.5 140t171.5 58h15q155 0 243 -81l9 69h220l-45 -356q-4 -39 35 -39q58 0 96 57.5t38 156.5v3q0 37 -1.5 59t-11.5 56t-28 54.5t-54 45.5t-87.5 38.5
t-130 23t-179.5 9.5h-13q-116 0 -201.5 -17t-138 -45.5t-84.5 -72.5t-43.5 -92t-11.5 -110v-12q0 -72 21 -129t73 -107.5t154 -78.5t250 -28q329 0 488 81l38 -108q-157 -80 -526 -80zM786 335l2 19q5 47 -32 76.5t-108 29.5q-117 0 -128 -97l-2 -18q-6 -46 22.5 -81.5
t96.5 -35.5q136 0 149 107z" />
    <glyph glyph-name="grave.uc" 
d="M425 946l90 -150h-225l-105 150h240z" />
    <glyph glyph-name="dieresis.uc" 
d="M598 946v-150h-222v150h222zM324 946v-150h-222v150h222z" />
    <glyph glyph-name="macron.uc" 
d="M129 804v126h441v-126h-441z" />
    <glyph glyph-name="acute.uc" 
d="M185 796l90 150h240l-105 -150h-225z" />
    <glyph glyph-name="circumflex.uc" 
d="M474 946l160 -150h-220l-66 58l-65 -58h-217l157 150h251z" />
    <glyph glyph-name="caron.uc" 
d="M226 796l-160 150h220l66 -58l65 58h217l-157 -150h-251z" />
    <glyph glyph-name="breve.uc" 
d="M334 787q-64 0 -110 17.5t-67.5 45.5t-30.5 52t-9 47v2h172q4 -48 63 -48q24 0 39 10t18.5 19t4.5 19h168v-2q0 -21 -10.5 -46.5t-33.5 -52.5t-67.5 -45t-102.5 -18h-34z" />
    <glyph glyph-name="dotaccent.uc" 
d="M461 950v-154h-223v154h223z" />
    <glyph glyph-name="ring.uc" 
d="M159 902q0 116 193 116q189 0 189 -116q0 -118 -189 -118q-193 0 -193 118zM274 902q0 -47 78 -47q75 0 75 47q0 45 -75 45q-78 0 -78 -45z" />
    <glyph glyph-name="tilde.uc" 
d="M473 802q-44 0 -128 29q-42 15 -61 15q-18 0 -18 -21v-31h-146v81q0 40 22.5 69t77.5 29h6q42 0 128 -29q45 -15 61 -15q18 0 18 21v30h146v-80q0 -40 -22 -69t-78 -29h-6z" />
    <glyph glyph-name="hungarumlaut.uc" 
d="M340 796l60 150h219l-67 -150h-212zM82 796l53 150h219l-60 -150h-212z" />
    <glyph glyph-name="emdash.altuc" horiz-adv-x="2532" 
d="M2497 407v-130h-2462v130h2462z" />
    <glyph glyph-name="f.short" horiz-adv-x="479" 
d="M460 744v-132h-84q-24 0 -33 -10t-9 -34v-30h126v-148h-126v-390h-220v390h-103v148h103v64q0 142 187 142h159z" />
    <glyph glyph-name="f_f.short" horiz-adv-x="888" 
d="M334 0h-220v390h-103v148h103v64q0 142 187 142h161v-132h-86q-24 0 -33 -10t-9 -34v-30h189v64q0 142 187 142h159v-132h-84q-24 0 -33 -10t-9 -34v-30h126v-148h-126v-390h-220v390h-189v-390z" />
    <glyph glyph-name="j.short" horiz-adv-x="311" 
d="M267 744v-154h-223v154h223zM-17 -31h29q17 0 24.5 8t7.5 30v531h223v-587q0 -71 -28 -105t-74 -34h-182v157z" />
    </font>
</defs>
</svg>
