<?xml version="1.0" standalone="no"?>
<!DOCTYPE svg PUBLIC "-//W3C//DTD SVG 1.1//EN" "http://www.w3.org/Graphics/SVG/1.1/DTD/svg11.dtd" >
<svg xmlns="http://www.w3.org/2000/svg" xmlns:xlink="http://www.w3.org/1999/xlink" version="1.1">
<metadata>
Created by FontForge 20170731 at Sat Feb  4 23:19:13 2012
 By Aleksey,,,
v3.1, Copyright (c) 2006-2012 InfoLogic, Inc. All Rights Reserved.
</metadata>
<defs>
<font id="MMaCentury-Regular" horiz-adv-x="500" >
  <font-face 
    font-family="MMa Century"
    font-weight="400"
    font-stretch="normal"
    units-per-em="1000"
    panose-1="2 0 5 3 8 0 0 2 0 3"
    ascent="880"
    descent="-120"
    x-height="468"
    cap-height="740"
    bbox="-37 -186 952 849"
    underline-thickness="20"
    underline-position="-173"
    unicode-range="U+0020-25CA"
  />
<missing-glyph horiz-adv-x="1000" 
 />
    <glyph glyph-name=".notdef" horiz-adv-x="1000" 
 />
    <glyph glyph-name=".null" horiz-adv-x="0" 
 />
    <glyph glyph-name="nonmarkingreturn" horiz-adv-x="333" 
 />
    <glyph glyph-name="space" unicode=" " horiz-adv-x="300" 
 />
    <glyph glyph-name="exclam" unicode="!" horiz-adv-x="326" 
d="M181 195h-35l-4 163q-2 74 -23 180q-3 14 -10.5 51t-11 58.5t-3.5 39.5q0 25 17 48.5t51 23.5t52 -23.5t18 -48.5q0 -18 -3.5 -39.5t-11 -58.5t-10.5 -51q-21 -115 -23 -180zM232 60q0 -28 -20 -48.5t-49 -20.5t-49 20.5t-20 48.5t20 48.5t49 20.5t49 -20.5t20 -48.5z
" />
    <glyph glyph-name="quotedbl" unicode="&#x22;" horiz-adv-x="345" 
d="M112 481h-26q-26 154 -37 228v5q0 20 15 32.5t35 12.5t35 -12.5t15 -32.5v-5zM260 481h-26q-26 154 -37 228v5q0 20 15 32.5t35 12.5t35 -12.5t15 -32.5v-5z" />
    <glyph glyph-name="numbersign" unicode="#" horiz-adv-x="669" 
d="M404 -24h-32l30 228h-180l-29 -228h-33l30 228h-121v74h131l28 212h-120v74h130l25 193h32l-25 -193h179l25 193h33l-26 -193h119v-74h-128l-28 -212h117v-74h-127zM411 278l28 212h-179l-28 -212h179z" />
    <glyph glyph-name="dollar" unicode="$" horiz-adv-x="581" 
d="M308 -127h-32v119q-50 0 -96.5 18t-80.5 58.5t-34 95.5q0 22 13 39.5t36 17.5q27 0 40 -16t14 -40v-17.5t0.5 -21t2 -21t4.5 -22.5t8 -19t13 -18.5t19 -14t26.5 -11t34.5 -3.5v336q-85 39 -133.5 90t-48.5 128t54.5 123.5t135.5 52.5v90h31v-90q63 0 126 -38.5t63 -98.5
q0 -22 -12 -37t-31 -15q-22 0 -35 16.5t-13 38.5q-1 20 -3.5 34.5t-11 33.5t-30 30t-53.5 13v-285q45 -21 77.5 -41.5t64.5 -49.5t48.5 -67.5t16.5 -84.5q0 -94 -59.5 -149.5t-154.5 -55.5v-118zM284 449v274q-53 -6 -89 -39t-36 -92q0 -89 125 -143zM308 344v-328
q66 1 108 41.5t42 108.5q0 105 -150 178z" />
    <glyph glyph-name="percent" unicode="%" horiz-adv-x="859" 
d="M210 343q-71 0 -115 65.5t-44 159.5q0 95 44 161.5t115 66.5t115 -66.5t44 -161.5q0 -94 -44 -159.5t-115 -65.5zM69 -102l-28 25l749 873l28 -24zM650 -103q-71 0 -115 65.5t-44 159.5q0 95 44 161.5t115 66.5t115 -66.5t44 -161.5q0 -94 -44 -159.5t-115 -65.5z
M210 368q39 0 60.5 54t21.5 146q0 96 -21.5 149t-60.5 53t-60.5 -53t-21.5 -149q0 -92 21.5 -146t60.5 -54zM650 -78q39 0 60.5 54t21.5 146q0 96 -21.5 149t-60.5 53t-60.5 -53t-21.5 -149q0 -92 21.5 -146t60.5 -54z" />
    <glyph glyph-name="ampersand" unicode="&#x26;" horiz-adv-x="780" 
d="M765 80l12 -20q-66 -72 -138 -72q-63 0 -161 91q-104 -96 -227 -96q-94 0 -153.5 56.5t-59.5 149.5q0 136 178 223q-8 11 -20.5 30.5t-33.5 68.5t-21 86q0 74 48 117.5t123 43.5q69 0 118 -37t49 -103q0 -26 -4.5 -47t-16 -38.5t-20.5 -29t-29.5 -24.5t-32 -19.5
t-37.5 -19.5t-37 -19q28 -48 102 -137t108 -123q21 23 41.5 84.5t20.5 105.5q0 16 -2 23q-3 14 -26.5 24.5t-45.5 14.5l-22 4v20h240v-20q-54 -6 -81 -27q-10 -7 -23 -54.5t-34 -106t-47 -87.5q34 -38 78 -65t80 -27q31 0 74 30zM286 445q116 53 116 179q0 112 -90 112
q-45 0 -70.5 -33t-25.5 -76q0 -78 70 -182zM455 97q-99 99 -227 290q-102 -59 -102 -179q0 -72 45.5 -124t116.5 -52q44 0 91 17.5t76 47.5z" />
    <glyph glyph-name="quotesingle" unicode="'" horiz-adv-x="197" 
d="M112 481h-26q-26 154 -37 228v5q0 20 15 32.5t35 12.5t35 -12.5t15 -32.5v-5z" />
    <glyph glyph-name="parenleft" unicode="(" horiz-adv-x="386" 
d="M361 -133l-16 -20q-128 85 -191.5 213.5t-63.5 285.5t63.5 286t191.5 214l16 -20q-94 -74 -141.5 -204.5t-47.5 -274.5t47.5 -275t141.5 -205z" />
    <glyph glyph-name="parenright" unicode=")" horiz-adv-x="386" 
d="M41 -153l-16 20q94 74 141.5 205t47.5 275t-47.5 274.5t-141.5 204.5l16 20q128 -85 191.5 -214t63.5 -286t-63.5 -285.5t-191.5 -213.5z" />
    <glyph glyph-name="asterisk" unicode="*" horiz-adv-x="392" 
d="M185 574q-12 -10 -40 -38t-45 -38q-7 -4 -18 -4q-34 0 -34 32q0 22 17 31q17 10 56.5 20.5t53.5 16.5q-17 7 -55.5 17t-53.5 18q-18 10 -18 31q0 32 34 32q11 0 18 -4q15 -8 43 -37t43 -40q-2 18 -13 56.5t-11 56.5q0 14 10 24.5t24 10.5t24 -10.5t10 -24.5
q0 -18 -11 -56.5t-13 -56.5q15 11 43 40t43 37q7 4 18 4q34 0 34 -32q0 -21 -18 -31q-15 -8 -53.5 -18t-55.5 -17q14 -6 53.5 -16.5t56.5 -20.5q17 -9 17 -31q0 -4 -1 -9.5t-9.5 -14t-23.5 -8.5q-10 0 -17 4q-17 10 -45.5 38.5t-40.5 37.5q2 -14 12.5 -53t10.5 -59
q0 -14 -10 -24.5t-24 -10.5t-24 10.5t-10 24.5q0 20 10.5 59t12.5 53z" />
    <glyph glyph-name="plus" unicode="+" horiz-adv-x="1000" 
d="M519 -2h-40v331h-327v36h327v331h40v-331h329v-36h-329v-331z" />
    <glyph glyph-name="comma" unicode="," horiz-adv-x="276" 
d="M86 -142l-16 18q47 41 59 60q14 24 14 53q0 10 -13 15q-26 0 -44.5 18.5t-18.5 44.5t18.5 45t44.5 19q36 0 55.5 -28.5t19.5 -66.5q0 -102 -119 -178z" />
    <glyph glyph-name="hyphen" unicode="-" horiz-adv-x="1000" 
d="M853 328h-706v38h706v-38z" />
    <glyph glyph-name="period" unicode="." horiz-adv-x="276" 
d="M207 60q0 -28 -20.5 -48.5t-48.5 -20.5t-48.5 20.5t-20.5 48.5t20.5 48.5t48.5 20.5t48.5 -20.5t20.5 -48.5z" />
    <glyph glyph-name="slash" unicode="/" 
d="M58 -155l-36 16l420 988l37 -13z" />
    <glyph glyph-name="zero" unicode="0" 
d="M250 -8q-95 0 -155 105.5t-60 254.5q0 152 60 259.5t155 107.5t155 -107.5t60 -259.5q0 -149 -60 -254.5t-155 -105.5zM250 14q56 0 89 88.5t33 250.5q0 170 -33 257.5t-89 87.5t-89 -87.5t-33 -257.5q0 -162 33 -250.5t89 -88.5z" />
    <glyph glyph-name="one" unicode="1" 
d="M441 0h-362v19q10 2 32 6.5t31 7t25 7.5t22.5 11t14.5 16t11 23.5t3 31.5v454q0 13 -3.5 21.5t-13.5 14t-19 9t-28 4.5t-32 1.5t-40 0.5v21q55 5 115.5 26t83.5 45h21v-597q0 -18 3 -31.5t11 -23.5t14.5 -16t22.5 -11t25 -7.5t31 -7t32 -6.5v-19z" />
    <glyph glyph-name="two" unicode="2" 
d="M400 0h-361v20q0 74 178 280q2 2 23 25.5t25.5 29t21.5 26.5t22.5 30.5t17 29t15.5 33.5t8 32.5t4 36.5q0 154 -110 154q-50 0 -78 -29t-28 -75q0 -15 18 -34.5t18 -38.5q0 -23 -15.5 -41t-38.5 -18q-27 0 -43 22.5t-16 50.5q0 84 54 135t139 51q81 0 134 -47.5
t53 -130.5q0 -42 -9 -75.5t-32.5 -63.5t-38.5 -45.5t-54 -47.5t-52 -43q-131 -115 -171 -197l225 1q33 0 70 47t62 94l21 -7z" />
    <glyph glyph-name="three" unicode="3" 
d="M192 399h8q5 0 18 -2t20 -2q46 0 78.5 46t32.5 107q0 150 -110 150q-30 0 -59 -26t-29 -57q0 -11 9.5 -30t9.5 -33q0 -24 -13 -42t-36 -18q-25 0 -40 18t-15 45q0 75 55.5 120t129.5 45q73 0 126 -47t53 -119q0 -65 -37 -111.5t-100 -59.5q72 -13 116 -66t44 -126
q0 -96 -63 -147.5t-163 -51.5q-67 0 -123.5 41.5t-56.5 109.5q0 28 15 46.5t41 18.5q24 0 39.5 -18t15.5 -43q0 -8 -4.5 -23t-4.5 -24q0 -37 22.5 -60.5t56.5 -23.5q141 0 141 175q0 47 -12 82t-28 52t-36.5 27t-32 12t-19.5 2q-1 0 -40 -6q-2 0 -6.5 -0.5t-7.5 -0.5
q-28 0 -28 20t33 20z" />
    <glyph glyph-name="four" unicode="4" 
d="M454 0h-251v19q59 13 73.5 33t14.5 85v36h-271v37l309 503h37v-503h114v-37h-114v-36q0 -65 14.5 -85t73.5 -33v-19zM291 210v370l-226 -370h226z" />
    <glyph glyph-name="five" unicode="5" 
d="M106 326l-36 10l37 377h324l-26 -77h-271q-19 -170 -27 -252q21 29 59.5 46t76.5 17q97 0 153.5 -58t56.5 -165q0 -108 -56 -170t-165 -62q-74 0 -129 43.5t-55 116.5q0 30 14.5 48t42.5 18q23 0 39.5 -19.5t16.5 -43.5q0 -14 -9 -35t-9 -34q0 -31 28 -50t60 -19
q39 0 67 21.5t42 56.5t19.5 69t5.5 70q0 73 -31 129t-98 56q-46 0 -80 -25.5t-50 -67.5z" />
    <glyph glyph-name="six" unicode="6" 
d="M134 377q25 32 61.5 52t75.5 20q90 0 136.5 -57.5t46.5 -149.5q0 -105 -50.5 -177.5t-154.5 -72.5q-59 0 -101.5 32.5t-63 86t-29 105t-8.5 106.5q0 48 6.5 97.5t23.5 104.5t43 97.5t69.5 70t98.5 27.5q61 0 104.5 -28t43.5 -73q0 -19 -13.5 -33t-32.5 -14q-31 0 -43 27
q-1 2 -8 43q-10 56 -63 56q-39 0 -68 -36.5t-43.5 -96t-21 -101t-9.5 -86.5zM131 327v-10q0 -303 124 -303q116 0 116 231q0 39 -9.5 76t-37 67t-67.5 30q-37 0 -74 -27.5t-52 -63.5z" />
    <glyph glyph-name="seven" unicode="7" 
d="M401 639h-245q-55 0 -93 -130l-23 5l33 198h386l1 -32q-16 -25 -22 -34q-81 -134 -134.5 -284t-53.5 -283q0 -87 -55 -87q-54 0 -54 84q0 156 260 563z" />
    <glyph glyph-name="eight" unicode="8" 
d="M302 394q157 -77 157 -214q0 -80 -54.5 -134t-157.5 -54q-82 0 -144 47.5t-62 136.5q0 134 152 193q-56 31 -91 77t-35 102q0 79 57.5 125t128.5 46q75 0 127 -45t52 -119q0 -57 -37.5 -99.5t-92.5 -61.5zM280 404q71 39 71 158q0 58 -23.5 95.5t-76.5 37.5
q-48 0 -78.5 -36t-30.5 -98q0 -99 138 -157zM211 359q-89 -61 -89 -183q0 -69 33 -114t98 -45q60 0 92 45.5t32 111.5q0 63 -34 100.5t-132 84.5z" />
    <glyph glyph-name="nine" unicode="9" 
d="M367 334q-25 -32 -61.5 -52t-75.5 -20q-90 0 -136.5 57.5t-46.5 149.5q0 105 50.5 177.5t154.5 72.5q59 0 101.5 -32.5t63 -86t29 -105t8.5 -106.5q0 -48 -6.5 -97.5t-23.5 -104.5t-43 -97.5t-69.5 -70t-98.5 -27.5q-61 0 -104.5 28t-43.5 73q0 19 13 33t32 14
q31 0 43 -27q1 -3 8 -43q10 -56 64 -56q39 0 68 36.5t43.5 96t21 101t9.5 86.5zM370 384v10q0 303 -124 303q-116 0 -116 -231q0 -39 9.5 -76t37 -67t67.5 -30q37 0 74 27.5t52 63.5z" />
    <glyph glyph-name="colon" unicode=":" horiz-adv-x="276" 
d="M207 407q0 -29 -20.5 -49t-48.5 -20t-48.5 20t-20.5 49t20.5 49t48.5 20t48.5 -20t20.5 -49zM207 60q0 -28 -20.5 -48.5t-48.5 -20.5t-48.5 20.5t-20.5 48.5t20.5 48.5t48.5 20.5t48.5 -20.5t20.5 -48.5z" />
    <glyph glyph-name="semicolon" unicode=";" horiz-adv-x="276" 
d="M207 407q0 -29 -20.5 -49t-48.5 -20t-48.5 20t-20.5 49t20.5 49t48.5 20t48.5 -20t20.5 -49zM86 -142l-15 18q47 41 59 60q14 24 14 53q0 10 -14 15q-26 0 -44.5 18.5t-18.5 44.5t18.5 45t44.5 19q36 0 55.5 -28.5t19.5 -66.5q0 -102 -119 -178z" />
    <glyph glyph-name="less" unicode="&#x3c;" horiz-adv-x="830" 
d="M715 8l-621 330v18l621 330l19 -36l-578 -303l578 -303z" />
    <glyph glyph-name="equal" unicode="=" horiz-adv-x="1000" 
d="M847 425h-694v38h694v-38zM847 231h-694v37h694v-37z" />
    <glyph glyph-name="greater" unicode="&#x3e;" horiz-adv-x="830" 
d="M736 338l-621 -330l-19 36l578 303l-578 303l19 36l621 -330v-18z" />
    <glyph glyph-name="question" unicode="?" horiz-adv-x="496" 
d="M240 205h-37v49q0 43 15 75.5t36 54.5t42 45t36 61t15 89q0 61 -25.5 103.5t-82.5 42.5q-45 0 -77.5 -27.5t-32.5 -85.5q0 -16 13 -30t13 -30q0 -55 -49 -55q-25 0 -40.5 20.5t-15.5 46.5q0 83 58 133.5t136 50.5q89 0 143 -44.5t54 -131.5q0 -65 -34 -113t-95 -90
q-72 -49 -72 -135v-29zM291 60q0 -28 -20.5 -48.5t-48.5 -20.5t-48.5 20.5t-20.5 48.5t20.5 48.5t48.5 20.5t48.5 -20.5t20.5 -48.5z" />
    <glyph glyph-name="at" unicode="@" horiz-adv-x="810" 
d="M692 120l17 -25q-4 -4 -11 -11.5t-33 -26t-56.5 -33t-81.5 -26t-107 -11.5q-77 0 -143.5 22.5t-119.5 66t-83.5 115t-30.5 163.5q0 91 35.5 169t92.5 128t126.5 78.5t139.5 28.5q142 0 239 -83.5t97 -229.5q0 -74 -19.5 -130.5t-46 -85t-60 -46.5t-54 -22t-36.5 -4
q-66 0 -66 71q0 12 1 18q-19 -38 -63.5 -62.5t-98.5 -24.5q-35 0 -58.5 18.5t-32.5 47t-11.5 45t-2.5 27.5q0 69 26 137.5t85 120.5t138 52q75 0 76 -58l10 49h64q-72 -249 -72 -342q0 -29 7 -40t27 -11q11 0 27.5 5t40 21t42.5 40.5t32.5 69t13.5 100.5q0 74 -27.5 130
t-73 87.5t-97 46.5t-107.5 15q-54 0 -107.5 -24.5t-99 -69.5t-73.5 -118t-28 -161q0 -71 20 -127t51.5 -90.5t72.5 -57.5t80 -32t78 -9q72 0 137 22.5t94 44.5zM482 301q10 26 31.5 108.5t21.5 114.5q0 20 -13 40t-39 20q-40 0 -77 -34t-60.5 -84t-37 -102t-13.5 -92
q0 -76 52 -76q49 0 86 37.5t49 67.5z" />
    <glyph glyph-name="A" unicode="A" horiz-adv-x="852" 
d="M831 0h-285v20q48 7 65 14.5t17 25.5q0 12 -10 40l-64 170h-291l-61 -170q-8 -24 -8 -35q0 -9 3.5 -15t12 -10.5t16.5 -6.5t24.5 -6t27.5 -7v-20h-237v20q55 8 79 27.5t35 49.5l233 630l72 38l261 -668q5 -13 11.5 -23.5t16 -18t15.5 -12.5t18.5 -9.5t16.5 -6t17.5 -4.5
t14.5 -3v-20zM542 302l-137 365l-131 -365h268z" />
    <glyph glyph-name="B" unicode="B" horiz-adv-x="730" 
d="M381 0h-353v20q98 10 98 79v542q0 37 -21 53.5t-77 26.5v19h340q267 0 267 -165q0 -72 -56.5 -120t-149.5 -61q134 -10 194.5 -63.5t60.5 -126.5q0 -54 -23.5 -94t-55.5 -60.5t-75.5 -32.5t-72 -15t-56.5 -3zM216 404h158q12 0 29 3.5t41.5 14t44 27.5t33.5 48t14 71
t-16.5 69t-36.5 43t-48 21.5t-41.5 8.5t-25.5 1h-98q-54 0 -54 -70v-237zM270 30h73q25 0 44.5 1.5t50 6t52.5 16.5t44 30.5t33.5 49.5t11.5 71q0 47 -19.5 81.5t-45 51t-59 26t-50.5 11t-31 1.5h-158v-277q0 -28 16 -48.5t38 -20.5z" />
    <glyph glyph-name="C" unicode="C" horiz-adv-x="699" 
d="M648 173l23 -10q-85 -180 -280 -180q-166 0 -263 110t-97 286q0 158 102 268.5t258 110.5q75 0 157 -40q2 -1 6 -1q6 0 14 4.5t13.5 9t15 13t13.5 11.5l60 -198l-27 -11q-34 65 -61.5 100.5t-76.5 60t-119 24.5q-66 0 -116.5 -32.5t-78 -85.5t-40.5 -111.5t-13 -120.5
q0 -63 15 -122.5t45.5 -111t83 -82.5t119.5 -31q84 0 141.5 32.5t105.5 106.5z" />
    <glyph glyph-name="D" unicode="D" horiz-adv-x="790" 
d="M372 0h-319v20q97 11 97 79v542q0 34 -26.5 55t-70.5 25v21h295q34 0 66.5 -3t74 -13t77 -26t70.5 -44t59.5 -65t39.5 -91t15 -120q0 -88 -24 -156.5t-61.5 -109.5t-89 -67.5t-101 -36.5t-102.5 -10zM297 30h69q23 0 38.5 1t47.5 7.5t54.5 19t50.5 38.5t45.5 62t29.5 94
t12 130t-14.5 129.5t-45.5 104t-86.5 71.5t-131.5 25h-68q-33 0 -45 -18.5t-12 -52.5v-542q0 -27 15 -48t41 -21z" />
    <glyph glyph-name="E" unicode="E" horiz-adv-x="756" 
d="M638 0h-581v20q97 11 97 79v542q0 12 -3.5 23t-7.5 18t-13 13.5t-14.5 9.5t-17 6.5t-15.5 4.5t-15 3l-11 2v19h581l53 -200l-26 -10q-90 182 -205 182h-158q-29 0 -43 -19.5t-14 -51.5v-241h118q36 0 74 29t46 90h21v-266h-21q-8 61 -46 90t-74 29h-118v-273
q0 -25 15 -48t45 -23h155q116 0 208 180l28 -12z" />
    <glyph glyph-name="F" unicode="F" horiz-adv-x="696" 
d="M322 0h-286v20q98 10 98 79v542q0 31 -25 53.5t-73 26.5v19h582l53 -200l-26 -10q-87 182 -205 182h-149q-39 0 -53 -22.5t-14 -48.5v-241h119q36 0 74 29t46 90h21v-266h-21q-8 61 -46 90t-74 29h-119v-273q0 -32 25.5 -53t72.5 -26v-20z" />
    <glyph glyph-name="G" unicode="G" horiz-adv-x="718" 
d="M540 138v101q0 16 -2.5 25.5t-11 21t-29 19t-53.5 11.5v21h266v-21q-59 -8 -73 -23t-14 -54v-216q-33 6 -45 6q-19 0 -45 -11.5t-66 -23t-92 -11.5q-165 0 -254.5 101t-89.5 293q0 97 41.5 183t125 142t190.5 56q83 0 148 -39q3 -3 8 -3q6 0 14.5 4.5t14 9t13.5 11.5l7 7
l57 -191l-27 -12q-3 6 -16.5 30.5t-18 31.5t-17 27t-20 27.5l-22 22t-27.5 20.5t-31 14t-38.5 10.5t-44.5 2.5q-113 0 -181.5 -93t-68.5 -261q0 -174 64.5 -270.5t172.5 -96.5q63 0 114 34t51 94z" />
    <glyph glyph-name="H" unicode="H" horiz-adv-x="820" 
d="M798 0h-286v20q49 5 73.5 26.5t24.5 52.5v273h-390v-273q0 -31 24.5 -52.5t73.5 -26.5v-20h-286v20q28 4 47.5 10.5t35 24t15.5 44.5v542q0 39 -32 58t-66 22v19h286v-19q-47 -7 -72.5 -24.5t-25.5 -55.5v-237h390v237q0 38 -25.5 55.5t-72.5 24.5v19h286v-19
q-34 -3 -66 -22t-32 -58v-542q0 -27 15.5 -44.5t35 -24t47.5 -10.5v-20z" />
    <glyph glyph-name="I" unicode="I" horiz-adv-x="356" 
d="M322 0h-286v20q49 5 73.5 26.5t24.5 52.5v542q0 38 -25.5 55.5t-72.5 24.5v19h286v-19q-34 -3 -66 -22t-32 -58v-542q0 -27 15.5 -44.5t35 -24t47.5 -10.5v-20z" />
    <glyph glyph-name="J" unicode="J" horiz-adv-x="484" 
d="M266 57v584q0 38 -25.5 55.5t-72.5 24.5v19h286v-19q-34 -3 -66 -22t-32 -58v-482q0 -47 -3 -83.5t-14.5 -82t-31.5 -75.5t-56.5 -50.5t-87.5 -20.5q-57 0 -102 22.5t-45 72.5q0 23 15 39t40 16q30 0 47 -21t22 -47q6 -32 18 -44t30 -12q38 0 58 59.5t20 124.5z" />
    <glyph glyph-name="K" unicode="K" horiz-adv-x="806" 
d="M782 0h-297v19q83 13 83 35q0 14 -19 39l-238 304l-95 -82v-216q0 -66 98 -80v-19h-286v19q49 5 73.5 27t24.5 53v542q0 38 -25.5 55t-72.5 24v20h286v-20q-20 -2 -39.5 -8t-39 -25t-19.5 -46v-283l324 282q30 26 30 48q0 4 -3 8t-8.5 6.5t-11.5 5t-14.5 4.5t-13.5 3.5
t-13 3t-10 1.5v19h236v-19q-48 -11 -67 -21.5t-60 -45.5l-231 -201l286 -360q27 -34 50.5 -47t71.5 -26v-19z" />
    <glyph glyph-name="L" unicode="L" horiz-adv-x="680" 
d="M598 0h-570v20q49 5 73.5 26.5t24.5 52.5v542q0 38 -25.5 55.5t-72.5 24.5v19h286v-19q-34 -3 -66 -22t-32 -58v-542q0 -31 17.5 -51t43.5 -20h127q117 0 225 189l28 -12z" />
    <glyph glyph-name="M" unicode="M" horiz-adv-x="930" 
d="M918 0h-311v20q66 15 89.5 36.5t23.5 82.5v545l-252 -694h-27l-263 670v-521q0 -61 23.5 -82.5t89.5 -36.5v-20h-261v20q66 15 90 36.5t24 82.5v465q0 60 -24 81t-90 36v20h215l239 -621l226 621h208v-20q-66 -15 -90 -36t-24 -81v-465q0 -61 24 -82.5t90 -36.5v-20z" />
    <glyph glyph-name="N" unicode="N" horiz-adv-x="822" 
d="M699 -11h-29l-485 648v-500q0 -60 24 -81.5t90 -36.5v-19h-262v19q66 15 90 36.5t24 81.5v467q0 60 -24 81t-90 36v20h180l448 -582v446q0 61 -23.5 81.5t-90.5 35.5v19h262v-19q-67 -15 -90.5 -35.5t-23.5 -81.5v-616z" />
    <glyph glyph-name="O" unicode="O" horiz-adv-x="760" 
d="M381 -18q-83 0 -149 33.5t-105.5 89t-60 124t-20.5 142.5q0 75 20 143t59.5 123.5t105 89t148.5 33.5t149 -33.5t105.5 -89t60 -124t20.5 -142.5q0 -75 -20 -143t-59.5 -123.5t-105 -89t-148.5 -33.5zM379 10q50 0 90 20t64 54t41.5 72.5t25.5 82t11 74.5t3 58
q0 34 -4 72.5t-18.5 92.5t-38 95.5t-68.5 71t-104 29.5q-50 0 -90 -20t-64 -54t-41.5 -72.5t-25.5 -82t-11 -74.5t-3 -58q0 -34 4 -72.5t18.5 -92.5t38 -95.5t68.5 -71t104 -29.5z" />
    <glyph glyph-name="P" unicode="P" horiz-adv-x="686" 
d="M325 0h-311v19q66 15 89.5 36t23.5 82v467q0 61 -23.5 82t-89.5 36v19h336q306 0 306 -204t-282 -204h-162v-196q0 -61 23.5 -82t89.5 -36v-19zM212 366h153q193 0 193 171q0 56 -18 93t-52.5 54.5t-72 24t-89.5 6.5h-32q-52 0 -67 -24.5t-15 -86.5v-238z" />
    <glyph glyph-name="Q" unicode="Q" horiz-adv-x="760" 
d="M702 -44l17 -21q-57 -68 -121 -68h-6q-32 0 -71.5 31t-55.5 94q-43 -10 -84 -10q-83 0 -149 33.5t-105.5 89t-60 124t-20.5 142.5q0 75 20 143t59.5 123.5t105 89t148.5 33.5t149 -33.5t105.5 -89t60 -124t20.5 -142.5q0 -111 -43.5 -205.5t-127.5 -142.5
q14 -35 43.5 -60t53.5 -25q27 0 62 18zM522 71q36 39 58.5 103t28 110t5.5 87q0 34 -4 72.5t-18.5 92.5t-38 95.5t-68.5 71t-104 29.5q-50 0 -90 -20t-64 -54t-41.5 -72.5t-25.5 -82t-11 -74.5t-3 -58q0 -156 60 -258q42 87 131 87q56 0 108.5 -36t76.5 -93zM457 25
q-9 67 -46 106.5t-82 39.5q-69 0 -106 -83q59 -78 156 -78q40 0 78 15z" />
    <glyph glyph-name="R" unicode="R" horiz-adv-x="700" 
d="M703 0h-162l-211 348h-103v-211q0 -61 23.5 -82t89.5 -36v-19h-311v19q66 15 89.5 36t23.5 82v467q0 61 -23.5 82t-89.5 36v19h326q17 0 31 -0.5t44.5 -4t55 -10.5t53.5 -21t48.5 -33t33 -50t13.5 -70q0 -53 -19.5 -92.5t-52.5 -61t-65.5 -32.5t-69.5 -15l137 -219
q38 -61 60.5 -80.5t78.5 -32.5v-19zM227 381h112q24 0 45 2t51 12t51 26.5t36.5 49t15.5 76.5q0 43 -14 75.5t-33 49t-45.5 26.5t-45.5 12.5t-39 2.5h-55q-48 0 -63.5 -25t-15.5 -84v-223z" />
    <glyph glyph-name="S" unicode="S" horiz-adv-x="619" 
d="M154 32h-2q-6 0 -20.5 -8t-25.5 -16l-11 -7l-48 198l24 9q2 -3 24.5 -32t28 -36t26.5 -31.5t31 -32.5t31 -25t36.5 -23t37 -12t43.5 -6q75 0 125 42.5t50 115.5q0 101 -146 158q-22 9 -64.5 23t-68.5 23t-60.5 27.5t-54 39t-33.5 54.5t-14 76q0 86 68.5 137.5t158.5 51.5
q85 0 171 -42q4 -2 8 -2q8 0 19.5 5.5t19.5 10.5l7 6l37 -175l-25 -10q-4 6 -19 27.5t-19 28t-17.5 25t-20 24.5t-20 20t-22.5 19.5t-23.5 14.5t-28 12t-30 6t-34.5 3q-65 0 -112.5 -37t-47.5 -100q0 -26 10.5 -47.5t24.5 -35t38 -26t42 -18.5t45 -14q46 -13 79.5 -25.5
t76 -34.5t69 -47.5t45.5 -64t19 -84.5q0 -107 -68.5 -161t-180.5 -54q-88 0 -179 50z" />
    <glyph glyph-name="T" unicode="T" horiz-adv-x="790" 
d="M553 0h-312v19q66 15 89.5 36t23.5 82v467q0 56 -17.5 82.5t-58.5 26.5h-17q-116 0 -219 -157l-21 8l79 177h596l79 -177l-21 -8q-102 157 -221 157h-17q-41 0 -59 -27t-18 -82v-467q0 -60 24 -81.5t90 -36.5v-19z" />
    <glyph glyph-name="U" unicode="U" horiz-adv-x="822" 
d="M645 290v314q0 60 -24 81.5t-90 36.5v19h262v-19q-66 -15 -90 -36.5t-24 -81.5v-303q0 -171 -69 -245t-196 -74q-68 0 -119 17t-82.5 45.5t-51 72.5t-27 91t-7.5 107v289q0 61 -23.5 82t-89.5 36v19h318v-19q-66 -15 -90 -36.5t-24 -81.5v-306q0 -47 2.5 -79.5t14 -72.5
t32 -64t59 -40.5t92.5 -16.5q33 0 62 6t60.5 23.5t53.5 45.5t36.5 77t14.5 113z" />
    <glyph glyph-name="V" unicode="V" horiz-adv-x="806" 
d="M411 -19h-21l-255 663q-22 58 -113 77v19h297v-19q-5 -1 -17.5 -3t-17.5 -3t-14.5 -3.5t-13.5 -5t-9 -7t-7 -10t-2 -13.5q0 -15 7 -33l183 -513l193 492q13 35 13 50q0 6 -3 11.5t-10 10t-12.5 8t-16.5 7t-15 4.5t-15 4l-12 3v20h237v-20q-26 -7 -33.5 -9t-24.5 -8.5
t-24 -13.5t-16.5 -20t-16.5 -32z" />
    <glyph glyph-name="W" unicode="W" horiz-adv-x="972" 
d="M646 -19h-22l-154 563l-148 -563h-22l-200 663q-4 14 -9 25t-12.5 18.5t-11.5 12t-14.5 8.5t-13.5 5.5t-16 4.5t-15 3v19h261v-19q-1 0 -8.5 -1.5t-10.5 -2t-10.5 -2.5t-11 -3t-9.5 -3.5t-9 -4.5t-6.5 -5t-5 -6t-1.5 -7q0 -11 8 -43l132 -494l118 452l-12 43
q-7 24 -13 36t-25.5 24t-53.5 17v19h253v-19q-4 -1 -13.5 -3t-14.5 -3t-12.5 -3t-12 -4.5t-9 -6t-6.5 -8t-2 -9.5l6 -41l122 -508l141 487q9 31 9 44t-7.5 22t-25.5 16t-26.5 9t-30.5 7v20h230v-20q-47 -10 -71 -27.5t-35 -55.5z" />
    <glyph glyph-name="X" unicode="X" horiz-adv-x="780" 
d="M753 0h-272v20q1 0 4 1q63 12 68 30q1 2 1 4q0 8 -4 19t-8 18l-5 6l-164 240l-158 -221q-30 -36 -30 -60q0 -17 83 -37v-20h-231v20q53 12 73.5 26t53.5 60l189 262l-183 275q-23 34 -45 49.5t-68 28.5v19h272v-19q-66 -13 -72 -30q-1 -2 -1 -5q0 -8 4 -19t8 -17l5 -7
l134 -203l136 183q30 36 30 60q0 17 -82 37v20h231v-20q-57 -15 -75 -27.5t-53 -58.5l-168 -224l214 -312q26 -38 45.5 -51t67.5 -27v-20z" />
    <glyph glyph-name="Y" unicode="Y" horiz-adv-x="750" 
d="M535 0h-312v19q66 15 89.5 36t23.5 82v167l-205 339q-20 33 -45.5 50t-67.5 28v19h271v-19q-72 -11 -72 -35q0 -8 4.5 -19t8.5 -17l4 -7l166 -283l162 259q26 35 26 62q0 25 -86 39v20h231v-20q-48 -11 -68.5 -25.5t-51.5 -64.5l-192 -307v-186q0 -60 24 -81.5t90 -36.5
v-19z" />
    <glyph glyph-name="Z" unicode="Z" horiz-adv-x="630" 
d="M559 0h-531v16l466 696h-182q-117 0 -220 -182l-26 10l53 200h481v-21l-466 -691h232q38 0 74.5 19.5t65 51t47.5 58.5t33 53l26 -10z" />
    <glyph glyph-name="bracketleft" unicode="[" horiz-adv-x="401" 
d="M355 -153h-247v1000h247v-35h-168v-930h168v-35z" />
    <glyph glyph-name="backslash" unicode="\" 
d="M479 -139l-37 -16l-420 991l36 13z" />
    <glyph glyph-name="bracketright" unicode="]" horiz-adv-x="401" 
d="M293 -153h-247v35h168v930h-168v35h247v-1000z" />
    <glyph glyph-name="asciicircum" unicode="^" horiz-adv-x="550" 
d="M477 350l-35 -14l-167 356l-167 -356l-35 14l188 392h28z" />
    <glyph glyph-name="underscore" unicode="_" 
d="M500 -186h-500v33h500v-33z" />
    <glyph glyph-name="grave" unicode="`" horiz-adv-x="358" 
d="M210 573l-15 -14q-89 69 -144 114q-11 8 -11 25q0 16 11.5 30t33.5 14q21 0 30 -14z" />
    <glyph glyph-name="a" unicode="a" horiz-adv-x="505" 
d="M487 64l18 -19q-2 -2 -8 -9l-9 -10.5t-9 -10t-10.5 -10t-11.5 -8t-13.5 -6.5t-14.5 -4t-17 -2q-70 0 -76 80q-62 -80 -159 -80q-8 0 -16 0.5t-26.5 3.5t-33.5 11t-30 20.5t-24 34.5t-9 51q0 47 31.5 81.5t83 51.5t95 25t88.5 11v85q0 55 -28.5 76.5t-64.5 21.5
q-30 0 -48 -13t-23 -28q-2 -7 -7 -28t-9 -30.5t-16.5 -19.5t-31.5 -10q-21 0 -33.5 12.5t-12.5 31.5q0 49 53 79.5t124 30.5q80 0 128 -33t48 -93v-273q0 -48 22 -48q8 0 16.5 3.5t12 5.5t12 10t9.5 9zM336 107v144q-30 -2 -60 -8t-68.5 -19.5t-62.5 -41t-24 -64.5
q0 -24 7.5 -42.5t18 -27.5t23.5 -15t21.5 -7.5t14.5 -1.5q88 0 130 83z" />
    <glyph glyph-name="b" unicode="b" horiz-adv-x="556" 
d="M109 -16h-11v645q0 31 -11.5 43.5t-53.5 16.5v21l143 38v-340q21 35 58.5 54.5t78.5 19.5q99 0 160 -58.5t61 -175.5q0 -129 -62 -197.5t-160 -68.5q-93 0 -142 63zM176 351v-257q13 -45 51.5 -66t74.5 -21q39 0 68 20.5t45 56t23.5 76.5t7.5 88q0 57 -13 102t-46.5 76
t-82.5 31q-35 0 -71 -25.5t-57 -80.5z" />
    <glyph glyph-name="c" unicode="c" horiz-adv-x="483" 
d="M444 91l17 -18q-72 -91 -187 -91q-102 0 -169.5 64.5t-67.5 175.5q0 115 70.5 188.5t170.5 73.5q36 0 66 -7t47.5 -16.5t29 -19.5t15.5 -17l5 -7q13 -20 13 -46q0 -19 -12.5 -32.5t-32.5 -13.5q-49 0 -57 51q-13 83 -74 83q-24 0 -48.5 -10.5t-49.5 -33t-40.5 -66.5
t-15.5 -102q0 -115 52 -172t124 -57q79 0 144 73z" />
    <glyph glyph-name="d" unicode="d" horiz-adv-x="540" 
d="M523 0h-144v44q-40 -61 -144 -61q-88 0 -150 59.5t-62 181.5q0 126 69.5 192t157.5 66q42 0 78.5 -18t50.5 -50v219q0 31 -11.5 43.5t-53.5 16.5v21l143 38v-667q0 -13 1.5 -20.5t6.5 -19.5t20 -18t38 -7v-20zM379 109v213q-8 72 -45.5 104t-83.5 32q-58 0 -98.5 -69
t-40.5 -160t38 -156t96 -65q24 0 49.5 7t52 31.5t32.5 62.5z" />
    <glyph glyph-name="e" unicode="e" 
d="M453 92l18 -19q-86 -89 -206 -89q-59 0 -103.5 21.5t-69 58t-36.5 78t-12 86.5q0 63 18 112t43.5 75t57.5 42.5t55 21t42 4.5t41.5 -3.5t54 -17t56 -35t42 -63t17.5 -96.5h-343q-1 -8 -1 -20q0 -23 2.5 -47t13.5 -59t28.5 -60.5t52 -44t80.5 -18.5q36 0 77 18.5t72 54.5z
M133 294h257q0 7 -1 18t-8.5 39.5t-19.5 50.5t-37.5 40t-59.5 18q-31 0 -55.5 -17t-38 -41.5t-22.5 -49t-12 -41.5z" />
    <glyph glyph-name="f" unicode="f" horiz-adv-x="323" 
d="M276 0h-256v20q88 11 88 40v380h-96v28h96v72q0 8 0.5 16.5t4 32t9.5 43.5t20 45t32.5 42t49 29t68.5 12q72 0 72 -56q0 -23 -16.5 -35.5t-27.5 -12.5q-30 0 -40 24q-1 1 -3 6.5t-3 7t-3 6t-3 6l-3 4.5t-4 4.5t-5 3t-6 2t-6 0.5q-19 0 -37.5 -32.5t-18.5 -83.5v-136h108
v-28h-108v-380q0 -29 88 -40v-20z" />
    <glyph glyph-name="g" unicode="g" horiz-adv-x="511" 
d="M254 187h-10q-111 -10 -111 -44q0 -8 4 -14t13 -10t17.5 -6t24.5 -3.5t26.5 -2.5t30.5 -1.5t30 -1.5q31 -2 63 -8.5t66 -19t55.5 -37t21.5 -56.5q0 -65 -62.5 -101t-168.5 -36q-104 0 -163 32t-59 86q0 24 13.5 43t34 30.5t32 16t21.5 7.5q-8 1 -21 5.5t-30 20.5t-17 37
q0 50 101 73q-45 12 -74 44t-29 86q0 47 21 81t53 49t57.5 21.5t46.5 6.5q68 0 120 -34q63 50 100 50q27 0 38 -16.5t11 -31.5q0 -8 -2.5 -17t-13.5 -18t-28 -9q-10 0 -16 3.5t-11.5 11t-7.5 9.5q-13 11 -25 11q-9 0 -25 -8q41 -38 41 -98q0 -41 -16 -71.5t-36.5 -45
t-47.5 -23t-41.5 -10t-26.5 -1.5zM411 -31q0 30 -33 49t-65 24t-59 5q-160 0 -160 -83q0 -44 45 -67t116 -23t113.5 24t42.5 71zM243 209q16 0 31.5 4.5t34 16t30 39.5t11.5 68q0 33 -9.5 57t-22 36.5t-29.5 20t-28.5 9t-22.5 1.5t-25.5 -4.5t-33.5 -16t-31.5 -39
t-12.5 -66.5q0 -40 11.5 -67t30.5 -38.5t34.5 -16t31.5 -4.5z" />
    <glyph glyph-name="h" unicode="h" horiz-adv-x="556" 
d="M545 0h-207v18q40 3 53 20t13 47v239q0 16 -3 32t-11 38t-27.5 36t-48.5 14q-91 0 -137 -94v-265q0 -15 1.5 -24t7.5 -19.5t20 -16t36 -6.5v-19h-207v18q40 3 53 20t13 47v555q0 14 -3.5 23.5t-18.5 18.5t-43 11v20l141 39v-356q59 87 152 87q40 0 70 -15t45 -35
t23.5 -47t10.5 -43.5t2 -32.5v-225q0 -21 3 -32.5t18 -22t44 -11.5v-19z" />
    <glyph glyph-name="i" unicode="i" horiz-adv-x="284" 
d="M204 679q0 -25 -18 -43.5t-44 -18.5t-44 18.5t-18 43.5t18 43.5t44 18.5t44 -18.5t18 -43.5zM248 0h-207v18q40 3 53 20t13 47v287q0 14 -3.5 23t-18.5 18t-43 11v21l141 38v-398q0 -15 1.5 -24t7.5 -19.5t20 -16t36 -6.5v-19z" />
    <glyph glyph-name="j" unicode="j" horiz-adv-x="284" 
d="M231 679q0 -25 -18.5 -43.5t-43.5 -18.5t-43.5 18.5t-18.5 43.5t18.5 43.5t43.5 18.5t43.5 -18.5t18.5 -43.5zM136 44v328q0 14 -3 23t-18 18t-43 11v21l140 38v-387q0 -40 -2 -69t-10.5 -65.5t-24 -59.5t-44 -39t-68.5 -16q-39 0 -69.5 18.5t-30.5 51.5q0 49 49 49
q21 0 32 -15.5t11 -34.5q0 -10 -3 -16q-2 -4 -2 -11q0 -20 27 -20q36 0 47.5 46t11.5 129z" />
    <glyph glyph-name="k" unicode="k" horiz-adv-x="556" 
d="M568 0h-233v20h4q17 0 36.5 5t19.5 15q0 13 -28 54l-111 162l-79 -63v-108q0 -15 1.5 -24t7.5 -19.5t20 -16t36 -6.5v-19h-207v18q40 3 53 20t13 47v556q0 14 -3.5 23t-18.5 18t-43 11v21l141 38v-528l155 125q65 53 65 67q0 19 -76 33v19h221v-19q-69 -14 -105 -44
l-121 -100l158 -226q20 -28 39.5 -40.5t54.5 -18.5v-20z" />
    <glyph glyph-name="l" unicode="l" horiz-adv-x="296" 
d="M246 0h-207v18q40 3 53 20t13 47v556q0 14 -3.5 23t-18.5 18t-43 11v21l141 38v-667q0 -15 1.5 -24t7.5 -19.5t20 -16t36 -6.5v-19z" />
    <glyph glyph-name="m" unicode="m" horiz-adv-x="853" 
d="M817 0h-207v18q40 3 53 20t13 47v229q0 129 -86 129q-55 0 -87 -39.5t-40 -90.5v-228q0 -21 3 -32.5t18 -22t44 -11.5v-19h-207v18q40 3 53 20t13 47v229q0 129 -88 129q-56 0 -88.5 -39.5t-39.5 -90.5v-228q0 -15 1.5 -24t7.5 -19.5t20 -16t36 -6.5v-19h-207v18
q40 3 53 20t13 47v287q0 14 -3.5 23t-18.5 18t-43 11v21l141 38v-97q15 35 56 66t86 31q116 0 142 -109q15 41 52.5 75t91.5 34q153 0 153 -182v-216q0 -15 1.5 -24t7.5 -19.5t20 -16t36 -6.5v-19z" />
    <glyph glyph-name="n" unicode="n" horiz-adv-x="570" 
d="M540 0h-207v18q40 3 53 20t13 47v229q0 131 -89 131q-51 0 -88 -28.5t-51 -69.5v-262q0 -15 1.5 -24t7.5 -19.5t20 -16t36 -6.5v-19h-207v18q40 3 53 20t13 47v287q0 14 -3.5 23t-18.5 18t-43 11v21l141 38v-97q15 36 58.5 66.5t95.5 30.5q150 0 150 -182v-216
q0 -15 1.5 -24t7.5 -19.5t20 -16t36 -6.5v-19z" />
    <glyph glyph-name="o" unicode="o" horiz-adv-x="506" 
d="M253 -18q-102 0 -160.5 74.5t-58.5 173.5q0 101 60 177t159 76q103 0 161 -75.5t58 -177.5q0 -98 -60 -173t-159 -75zM253 4q63 0 96.5 67.5t33.5 162.5q0 44 -6 81.5t-19.5 71t-40.5 53t-64 19.5q-43 0 -73.5 -34.5t-43.5 -84t-13 -106.5q0 -63 11 -112t41 -83.5
t78 -34.5z" />
    <glyph glyph-name="p" unicode="p" horiz-adv-x="556" 
d="M241 -184h-207v18q40 3 53 20t13 47v471q0 14 -3.5 23t-18.5 18t-43 11v21l141 38v-72q48 72 134 72q34 0 68.5 -12t67.5 -38t54 -74.5t21 -112.5q0 -122 -64.5 -184t-159.5 -62q-75 0 -121 50v-149q0 -15 1.5 -24t7.5 -19.5t20 -16t36 -6.5v-19zM176 340v-223
q9 -49 46 -70t71 -21q51 0 84 33t45 80t12 107q0 94 -34.5 151.5t-93.5 57.5q-18 0 -35.5 -4.5t-37 -16t-35 -35.5t-22.5 -59z" />
    <glyph glyph-name="q" unicode="q" horiz-adv-x="556" 
d="M525 -184h-207v18q40 3 53 20t13 47v160q-47 -61 -129 -61q-34 0 -68.5 11t-68.5 36t-55 73t-21 114q0 122 63 185.5t154 63.5q92 0 140 -56l51 51h10v-577q0 -15 1.5 -24t7.5 -19.5t20 -16t36 -6.5v-19zM384 133v249q-31 76 -117 76q-63 0 -101.5 -63t-38.5 -159
q0 -95 35 -153t106 -58q34 0 70 28t46 80z" />
    <glyph glyph-name="r" unicode="r" horiz-adv-x="422" 
d="M236 0h-207v18q40 3 53 20t13 47v287q0 14 -3.5 23t-18.5 18t-43 11v21l141 38v-98q76 103 160 103q38 0 53.5 -19t15.5 -38q0 -17 -12.5 -35t-39.5 -18q-34 0 -47 27q-7 17 -28 17q-48 0 -102 -86v-251q0 -15 1.5 -24t7.5 -19.5t20 -16t36 -6.5v-19z" />
    <glyph glyph-name="s" unicode="s" horiz-adv-x="439" 
d="M62 -9l-50 146l22 11q111 -140 196 -140q53 0 84.5 23t31.5 65q0 34 -32 59.5t-114 46.5q-158 40 -158 148q0 63 47.5 98t111.5 35q52 0 101 -19q2 -1 6 -1q8 0 19 6.5t19 12.5l7 6l47 -136l-20 -8q-51 54 -93.5 84t-88.5 30q-37 0 -67.5 -22t-30.5 -60q0 -21 10.5 -37
t35 -28t41 -17.5t51.5 -15.5q98 -27 136 -64t38 -93q0 -69 -53.5 -103.5t-126.5 -34.5q-66 0 -106 26q-4 3 -11 3q-9 0 -22.5 -5t-22.5 -11z" />
    <glyph glyph-name="t" unicode="t" horiz-adv-x="340" 
d="M307 62l14 -20q-59 -57 -123 -57q-103 0 -103 127v329h-70v26q45 19 74 59t46 113h26v-171h139v-27h-139v-333q0 -51 13 -69t42 -18q35 0 81 41z" />
    <glyph glyph-name="u" unicode="u" horiz-adv-x="570" 
d="M540 -14h-143v98q-16 -33 -59 -66t-93 -33q-47 0 -79 15.5t-47 44t-20.5 57t-5.5 66.5v204q0 14 -3 23t-18 18t-43 11v21l140 38v-328q0 -130 90 -130q52 0 87 34t51 72v241q0 14 -3.5 23t-18.5 18t-43 11v21l141 38v-412q0 -35 15 -50t52 -16v-19z" />
    <glyph glyph-name="v" unicode="v" horiz-adv-x="556" 
d="M295 -14h-20l-188 412q-20 46 -79 52v19h224v-19q-21 -4 -38.5 -14.5t-17.5 -21.5q0 -12 16 -50l118 -266l117 269q15 34 15 44q0 23 -61 36q-2 0 -5 1l-6 1v20h179v-20q-57 -10 -76 -53z" />
    <glyph glyph-name="w" unicode="w" horiz-adv-x="820" 
d="M571 -14h-23l-146 382l-118 -382h-25l-167 412q-14 34 -82 52v19h222v-19q-58 -16 -58 -35q0 -11 29 -91.5t58 -155.5l29 -75q89 285 96 316q-4 7 -8 13t-10 10t-10.5 6.5t-12 4.5t-10.5 3t-11.5 2.5t-9.5 1.5v19h213v-19q-57 -17 -57 -35q0 -11 28 -91.5t56 -155.5
l28 -75q112 304 112 317q0 25 -74 39v20h179v-20q-3 -1 -11 -2.5t-11 -2.5t-9.5 -2.5t-9 -2.5t-7.5 -3.5t-7 -4.5t-6 -5.5t-6.5 -7.5t-5 -9.5t-4.5 -11.5z" />
    <glyph glyph-name="x" unicode="x" horiz-adv-x="572" 
d="M555 0h-224v20q3 1 13 2.5t16 3l14 3.5t11.5 5.5t3.5 8.5q0 13 -5 19l-115 147q-115 -146 -115 -154q0 -5 1.5 -9.5t5 -8t7 -5.5t9.5 -4t9.5 -3t11 -2.5t10.5 -2.5v-20h-178v20q59 11 86 44l137 166l-125 158q-22 29 -39.5 39.5t-55.5 19.5v21h223v-19q-59 -5 -59 -22
q0 -11 5 -19l100 -126q98 116 98 131q0 13 -20 22.5t-44 13.5v19h179v-19q-31 -6 -45 -13.5t-33 -30.5l-121 -142l147 -187q34 -44 92 -56v-20z" />
    <glyph glyph-name="y" unicode="y" horiz-adv-x="556" 
d="M276 12l-190 386q-13 26 -30.5 35.5t-51.5 16.5v19h228v-19q-59 -12 -59 -27q0 -5 35.5 -84.5t71.5 -156.5l35 -77q117 294 117 306q0 22 -65 36q-5 1 -7 2v20h186v-20q-3 -1 -12.5 -3t-13 -2.5t-11.5 -3t-11.5 -5t-9.5 -6.5t-9.5 -8.5t-8 -11t-7.5 -14.5
q-121 -309 -159 -390q-38 -83 -64 -112q-39 -45 -86 -46q-30 0 -52.5 14t-22.5 42v1q0 18 12.5 30t29.5 12h4q25 -2 40 -33q9 -17 31 -17q14 0 34 29t33 58z" />
    <glyph glyph-name="z" unicode="z" horiz-adv-x="459" 
d="M398 0h-382l-1 16l319 429h-135q-56 0 -129 -126l-22 8l37 142h345v-21l-321 -425h145q22 0 46.5 15t50 45t36.5 44.5t30 41.5l24 -7z" />
    <glyph glyph-name="braceleft" unicode="{" horiz-adv-x="361" 
d="M329 -153h-2q-64 0 -130.5 43t-66.5 118v214q0 34 -7 55.5t-23.5 33t-27.5 15.5t-35 10v22q24 6 35 10t27.5 15.5t23.5 33t7 55.5v214q0 75 66.5 118t130.5 43h2l3 -20q-45 -6 -87 -42t-42 -105v-211q0 -44 -28 -79t-87 -43q59 -8 87 -43t28 -79v-211q0 -69 42 -105
t87 -42z" />
    <glyph glyph-name="bar" unicode="|" horiz-adv-x="299" 
d="M169 -139h-39v903h39v-903z" />
    <glyph glyph-name="braceright" unicode="}" horiz-adv-x="361" 
d="M35 -153h-2l-3 20q45 6 87 42t42 105v211q0 44 28 79t87 43q-59 8 -87 43t-28 79v211q0 69 -42 105t-87 42l3 20h2q64 0 130.5 -43t66.5 -118v-214q0 -34 7 -55.5t23.5 -33t27.5 -15.5t35 -10v-22q-24 -6 -35 -10t-27.5 -15.5t-23.5 -33t-7 -55.5v-214q0 -75 -66.5 -118
t-130.5 -43z" />
    <glyph glyph-name="asciitilde" unicode="~" horiz-adv-x="633" 
d="M553 279l23 -15q-13 -33 -51 -67t-96 -34q-45 0 -122 36.5t-109 36.5q-66 0 -115 -46l-23 14q13 32 51.5 66.5t96.5 34.5q45 0 121.5 -36.5t108.5 -36.5q65 0 115 47z" />
    <glyph glyph-name="multiply" unicode="&#xd7;" horiz-adv-x="1000" 
d="M789 87l-27 -27l-262 261l-262 -261l-27 27l262 262l-259 258l27 27l259 -258l258 258l28 -27l-259 -258z" />
    <glyph glyph-name="divide" unicode="&#xf7;" horiz-adv-x="1000" 
d="M846 329h-692v36h692v-36zM500 526q-29 0 -49.5 20.5t-20.5 49.5t20.5 50t49.5 21t49.5 -20.5t20.5 -49.5t-20.5 -50t-49.5 -21zM570 98q0 -29 -20.5 -50t-49.5 -21t-49.5 20.5t-20.5 49.5t20.5 50t49.5 21q28 0 48.5 -20.5t21.5 -49.5z" />
    <glyph glyph-name="quoteleft" unicode="&#x2018;" horiz-adv-x="358" 
d="M210 573l-15 -14q-89 69 -144 114q-11 8 -11 25q0 16 11.5 30t33.5 14q21 0 30 -14z" />
    <glyph glyph-name="quoteright" unicode="&#x2019;" horiz-adv-x="197" 
d="M112 481h-26q-26 154 -37 228v5q0 20 15 32.5t35 12.5t35 -12.5t15 -32.5v-5z" />
    <glyph glyph-name="lozenge" unicode="&#x25ca;" horiz-adv-x="1000" 
d="M789 87l-27 -27l-262 261l-262 -261l-27 27l262 262l-259 258l27 27l259 -258l258 258l28 -27l-259 -258z" />
  </font>
</defs>
</svg>
