<?xml version="1.0" encoding="UTF-8"?>
<svg width="100px" height="22px" viewBox="0 0 100 22" version="1.1" xmlns="http://www.w3.org/2000/svg" xmlns:xlink="http://www.w3.org/1999/xlink">
    <!-- Generator: Sketch 53.2 (72643) - https://sketchapp.com -->
    <title>Group 6</title>
    <desc>Created with Sketch.</desc>
    <g id="Page-1" stroke="none" stroke-width="1" fill="none" fill-rule="evenodd">
        <g id="About-Us-(1280px)" transform="translate(-681.000000, -1213.000000)">
            <g id="Group-6" transform="translate(674.000000, 1200.000000)">
                <g id="Group-5" transform="translate(7.148649, 12.500000)" fill="#FFFFFF" fill-rule="nonzero">
                    <g id="g13605" transform="translate(40.000000, 13.500000) scale(-1, 1) rotate(90.000000) translate(-40.000000, -13.500000) translate(32.000000, 5.000000)">
                        <path d="M0,10.2 C0,8.39205 0.830315789,6.3359 2.49263158,5.0796 L2.48926316,5.08045 L2.49010526,5.0796 L0.261052632,5.08045 L0.261052632,0.7684 L15.8181053,0.7684 L15.8181053,5.0796 L6.96589474,5.0796 C5.37263158,5.0796 3.67915789,6.32655 3.67915789,8.63515 C3.67915789,10.4193 4.90863158,12.2655 6.96589474,12.2655 L15.8181053,12.2655 L15.8181053,16.57755 L6.17431579,16.57755 C2.59621053,16.57755 0,13.99355 0,10.2" id="path13607"></path>
                    </g>
                    <g id="g13609" transform="translate(74.000000, 13.500000) scale(-1, 1) rotate(90.000000) translate(-74.000000, -13.500000) translate(66.000000, 5.000000)">
                        <polygon id="path13611" points="0 12.1428571 10.5970526 8.43038095 0 4.71790476 0 0.0267142857 15.552 6.17990476 15.552 10.6800476 0 16.8332381"></polygon>
                    </g>
                    <g id="g13613" transform="translate(23.500000, 13.500000) scale(-1, 1) rotate(90.000000) translate(-23.500000, -13.500000) translate(15.000000, 5.000000)">
                        <path d="M5.1,5.1 C4.114,5.8344 3.53515,7.004 3.53515,8.4167 C3.53515,9.9705 4.42255,11.14945 5.7324,11.7589 L8.85785,4.22535 C7.2539,4.01965 5.9993,4.4302 5.1,5.1 L5.1,5.1 Z M11.2438,13.3841 C12.5868,11.56935 12.90725,10.53235 12.90725,8.8774 C12.90725,7.3882 12.44485,6.222 11.63395,5.40005 L7.06095,16.4237 C5.3567,16.18315 3.83435,15.5363 2.67665,14.54095 C0.9945,13.09255 0.10455,10.94885 0.10455,8.3385 C0.10455,3.5972 3.6023,0.0221 8.22205,0.0221 C12.96165,0.0221 16.3387,3.6057 16.3387,8.81365 C16.3387,11.7317 14.95575,14.7152 13.3399,16.1109 L11.2438,13.3841 Z" id="path13615"></path>
                    </g>
                    <g id="g13617" transform="translate(7.500000, 11.000000) scale(-1, 1) rotate(90.000000) translate(-7.500000, -11.000000) translate(-3.000000, 4.000000)">
                        <polygon id="path13619" points="16.8 14 16.8 4.50470588 0.55356 4.50470588 0.55356 0.270117647 20.71272 0.270117647 20.71272 14"></polygon>
                    </g>
                    <g id="g13621" transform="translate(90.500000, 13.500000) scale(-1, 1) rotate(90.000000) translate(-90.500000, -13.500000) translate(82.000000, 5.000000)">
                        <path d="M4.25,8.5 C4.25,6.09195 6.07495,4.3435 8.67085,4.3435 C11.14945,4.3435 13.0917,6.19565 13.0917,8.5578 C13.0917,10.9667 11.2166,12.7143 8.67085,12.7143 C6.19225,12.7143 4.25,10.863 4.25,8.5 M16.78665,8.5 C16.78665,3.7842 13.2736,0.08925 8.67085,0.08925 C4.11995,0.08925 0.55505,3.8097 0.55505,8.5578 C0.55505,13.2736 4.0681,16.9677 8.67085,16.9677 C13.2209,16.9677 16.78665,13.2481 16.78665,8.5" id="path13623"></path>
                    </g>
                    <g id="g13625" transform="translate(57.500000, 13.500000) scale(-1, 1) rotate(90.000000) translate(-57.500000, -13.500000) translate(49.000000, 5.000000)">
                        <path d="M4.25,8.5 C4.25,6.09195 6.07495,4.34435 8.67085,4.34435 C11.14945,4.34435 13.0917,6.19565 13.0917,8.55865 C13.0917,10.9667 11.2166,12.7143 8.67085,12.7143 C6.19225,12.7143 4.25,10.863 4.25,8.5 M16.78665,8.5 C16.78665,3.7842 13.2736,0.0901 8.67085,0.0901 C4.11995,0.0901 0.55505,3.8097 0.55505,8.55865 C0.55505,13.2736 4.0681,16.96855 8.67085,16.96855 C13.2209,16.96855 16.78665,13.2481 16.78665,8.5" id="path13627"></path>
                    </g>
                </g>
                <rect id="Rectangle" x="0" y="0" width="114" height="48"></rect>
            </g>
        </g>
    </g>
</svg>