<?xml version="1.0" encoding="UTF-8"?>
<svg width="80px" height="24px" viewBox="0 0 80 24" version="1.1" xmlns="http://www.w3.org/2000/svg" xmlns:xlink="http://www.w3.org/1999/xlink">
    <!-- Generator: Sketch 53.2 (72643) - https://sketchapp.com -->
    <title>Group 10</title>
    <desc>Created with Sketch.</desc>
    <g id="Page-1" stroke="none" stroke-width="1" fill="none" fill-rule="evenodd">
        <g id="About-Us-(1280px)" transform="translate(-145.000000, -1211.000000)">
            <g id="Group-10" transform="translate(128.000000, 1200.000000)">
                <g id="Shape-2" transform="translate(16.695652, 10.500000)" fill="#FFFFFF" fill-rule="nonzero">
                    <path d="M38.4725725,0.5 C38.4725725,0.5 37.5725634,0.518528821 37.0509365,0.509860957 C37.0293146,0.725074826 36.7779607,2.67528576 36.5617423,4.24405753 C36.3130912,5.69569888 34.3428009,16.4640982 33.6752266,19.6875764 C33.4995491,20.6609175 32.9563004,23.4106127 32.9049485,23.6853696 C32.2779151,23.7589747 31.5373671,23.8269996 31.0535784,23.8453345 C30.9887129,23.8474602 30.8806037,23.8681866 30.8292518,23.8681866 L30.8292518,24.4264693 C30.8887119,24.4240778 31.2022285,24.4477271 31.4238524,24.4384268 C31.9562902,24.4216863 33.4671164,24.3512699 33.7536058,24.3512699 C34.8401033,24.3512699 35.5644349,24.421952 36.5698505,24.4416155 C36.5833642,24.4416155 36.8590426,24.4405526 36.9806655,24.4254064 L36.9806655,23.8612778 C36.8968809,23.8612778 36.7860689,23.8586206 36.7212034,23.8586206 C36.4374167,23.8673894 35.3914602,23.7884699 34.8617251,23.717522 C34.9238879,23.3486993 35.8482216,17.7717181 36.2914693,15.5415102 C37.1347211,11.413513 37.7185108,8.48790963 37.7185108,8.48790963 L37.8752692,8.85115212 L44.5374988,24.4628733 L45.7537274,24.4689849 C45.7537274,24.4689849 46.448329,22.7784591 47.2726617,20.8822642 C47.2942835,20.8373571 47.3537436,20.701573 47.4375282,20.5075957 C48.3024019,18.5385929 52.5889318,8.54557139 52.5889318,8.54557139 C52.5889318,8.54557139 52.6294727,8.72546544 52.697041,9.04725524 C53.1051532,11.0058949 54.4862483,18.0645441 54.7808459,19.7675589 C54.9186851,20.6436455 55.0484162,21.5322212 55.1240926,22.0527713 C55.2349046,22.7898852 55.3078783,23.5113214 55.3078783,23.7185849 C55.1727418,23.7246965 53.8159713,23.8453345 53.3024525,23.8671237 C53.2294788,23.8647322 53.0916396,23.8713753 53.0835314,23.8727039 L53.0835314,24.4405526 C53.267317,24.4405526 53.4456972,24.4485243 53.6240774,24.4445384 C54.6727367,24.424875 55.680855,24.3440954 56.7295143,24.3446268 C57.9079046,24.3456897 59.8187348,24.4469299 61.0430715,24.4546359 C61.1809108,24.4546359 61.4268592,24.4426784 61.4268592,24.4426784 L61.4268592,23.8689838 C61.3565882,23.8684523 61.048477,23.8535719 60.9349623,23.844803 C60.3863081,23.8025532 59.4619744,23.7183192 59.2268369,23.7029073 C59.2268369,23.7029073 59.075484,22.8783707 58.875482,21.9260217 C58.0754739,18.11636 55.7970724,6.53644449 55.4484202,3.68710343 C55.3295001,2.70775703 54.9916588,0.508798068 54.9916588,0.508798068 L53.6213747,0.508378227 C53.6213747,0.508378227 52.9213676,2.48304093 52.2835233,4.28349605 C51.8483837,5.51379066 51.2564859,7.03265977 50.8051299,8.19732095 C48.5780803,13.9518048 46.0807577,19.3140824 46.0807577,19.3140824 C46.0807577,19.3140824 40.7725958,6.86180028 40.4915119,6.14169264 C40.2077252,5.42131927 38.4725725,0.500140833 38.4725725,0.500140833 L38.4725725,0.5 Z M0.315429019,0.505189558 L0.327050759,1.82133907 L0.304347826,5.02648239 L0.657513568,5.01665066 L0.694459888,2.16598099 C0.694459888,2.16590128 2.63099303,2.1495062 2.88145503,2.14982507 L6.49257271,2.15136626 L8.82313687,2.16279232 L8.82692069,21.9875418 L8.82746124,23.6998568 L8.77827155,23.7064998 C8.46799813,23.7301491 7.27420225,23.8018942 6.78933247,23.8191661 C6.68068272,23.8226205 6.61122256,23.8252777 6.59933055,23.8239491 L6.60149273,24.4040211 C6.68906118,24.4082726 6.92500952,24.4138528 6.95609092,24.4127899 C8.10312957,24.3981752 9.65530746,24.3001236 10.7558592,24.3011865 C11.8739786,24.301718 13.4475081,24.4085384 14.4213017,24.4196987 C14.5177892,24.4202301 14.6321147,24.4109299 14.7248183,24.4109299 L14.7248183,23.8669962 L14.6040063,23.868059 C14.2937329,23.8667304 12.5777695,23.75805 12.4002001,23.7351979 C12.3929028,23.4692098 12.3610106,22.1852392 12.3610106,22.1568069 L12.369389,2.16066654 L14.1437313,2.15604298 L18.7732377,2.15915193 L20.3183885,2.17990484 C20.3286589,2.28845244 20.4067678,3.73241441 20.4054164,3.77174132 C20.4019029,3.87670166 20.4632548,4.95234585 20.4608224,5.21700534 L20.8270423,5.22125689 L20.8008258,1.97944388 L20.8175828,0.521212617 C19.4570284,0.557616583 15.989696,0.603427121 10.6085604,0.600637036 C5.99364873,0.597846951 1.54630636,0.559795507 0.315483074,0.505136414 L0.315429019,0.505189558 Z M21.8686204,0.510379116 L21.8742962,1.07817469 C22.0570007,1.0879267 23.1310657,1.18135469 23.3921494,1.19389679 C23.6005299,1.21898098 23.8913436,1.24464976 24.0994539,1.26447265 C24.0994539,1.44625333 24.1026971,2.70064896 24.1056701,3.19571632 C24.1405354,7.88810779 24.1108053,18.2587208 24.0967511,21.9280811 C24.0924268,22.9891105 24.0894538,23.6728142 24.0894538,23.6728142 C23.9578308,23.7116097 23.6616116,23.7262244 23.3413381,23.7474822 C23.0675515,23.765817 22.0864605,23.8468624 21.8675393,23.8513796 L21.8675393,24.4192284 C21.9583511,24.4192284 22.1248392,24.4380947 22.2197051,24.4372975 C23.3302569,24.4375632 24.8743266,24.3020448 26.0119057,24.302842 C27.1616471,24.3036391 28.6967977,24.4412833 29.6022123,24.441549 L29.5995096,24.4420805 C29.6778888,24.4431434 29.8643772,24.4229485 29.9427563,24.4232142 L29.9427563,23.8556312 L29.8643772,23.8556312 C29.8292417,23.848191 28.6616623,23.7998295 28.3778756,23.7708658 C28.2292254,23.7615655 27.5859757,23.7068267 27.5778675,23.6858346 C27.5751648,23.6746743 27.572462,23.5048777 27.572462,23.2218833 C27.5751648,22.953238 27.5751648,22.5065587 27.5751648,22.0224125 C27.5778675,18.3211655 27.5886784,7.32849647 27.5913811,3.1266285 C27.5913811,2.31455435 27.5940839,1.65473911 27.5940839,1.3007969 C27.8454378,1.28517243 28.8724752,1.17960092 29.2400465,1.14771424 C29.2562629,1.14614648 29.7427543,1.11861764 29.9427563,1.10671328 L29.9427563,0.51505583 C28.6859868,0.514604102 27.022997,0.611167614 25.7964981,0.610556453 C24.5137824,0.609785858 22.9334961,0.510852102 21.8686204,0.510387088 L21.8686204,0.510379116 Z M80.0313721,0.526473921 C80.0313721,0.526473921 79.8989383,0.527031938 79.6529899,0.527510238 C78.8124408,0.531070918 76.6610677,0.546589105 74.1448259,0.56019409 C72.5988643,0.569016073 71.390744,0.58121273 69.7988359,0.580442135 C68.6826084,0.593303099 67.1204304,0.635606101 66.1555558,0.633905478 C64.6149996,0.63143426 63.3582301,0.538085988 62.6744394,0.535295903 C62.3501118,0.533887575 62.1690289,0.545898226 62.0798388,0.54047749 C62.0852443,0.548528878 62.0852443,1.10099227 62.0852443,1.10099227 C62.1447043,1.11119601 62.2636244,1.12421641 62.3744364,1.12174519 C62.7609268,1.14730768 63.4852584,1.20483658 63.8528297,1.25253375 C63.9258034,1.265687 64.050129,1.28585533 64.3960785,1.32364105 C64.3933758,1.44935431 64.4122949,2.87192563 64.4095921,3.72662166 C64.4095921,4.51847435 64.4014839,22.1863553 64.4014839,22.1863553 C64.4014839,22.2150533 64.360943,23.6071728 64.360943,23.7195734 C63.750126,23.8224079 62.5771411,23.8856499 62.1771371,23.8872442 L62.058217,23.8872442 L62.058217,24.449247 C62.1149743,24.4489813 62.3771391,24.4590788 62.5257893,24.4590788 C63.1717418,24.458813 64.8366235,24.3578385 66.5366407,24.3567756 C67.7285447,24.3557127 69.0393688,24.3995569 70.3664093,24.4181575 C72.001561,24.4404782 73.6556318,24.4415411 75.1421333,24.4622674 C77.5935095,24.4962799 79.5800162,24.4992028 80.2259687,24.5 C80.2259687,24.5 80.3043478,20.0297524 80.3043478,19.6694329 L79.9502902,19.6734187 C79.9502902,20.0536675 79.8070455,21.469702 79.80164,21.5316153 C79.7556936,22.0646544 79.7070445,22.6232028 79.6692063,22.8984912 C79.6692063,22.8984912 79.4962315,22.9120431 79.4124469,22.9104487 C79.0097401,22.9030085 77.7232406,22.9489785 77.6962133,22.9489785 L71.9583173,22.95137 L67.9285467,22.8849394 L67.9015194,21.7859116 L67.8988167,13.2530346 C68.6177429,13.2291196 69.7150513,13.1916528 70.3826256,13.1929814 C70.950199,13.1940443 72.2880504,13.162689 73.0367066,13.1642834 C74.855644,13.167472 76.4718766,13.1788981 76.6016076,13.1826182 C76.9016106,13.1911213 77.458373,13.2091904 77.669186,13.2219451 C77.6772942,13.2971445 77.7016187,13.4145938 77.7043215,13.4478091 C77.8124307,14.1012205 77.8718907,14.5537457 77.9448645,15.1951995 C77.9556754,15.2528612 77.9610808,15.3086629 77.969189,15.361276 L78.3827067,15.361276 C78.3827067,15.361276 78.3935176,15.1319576 78.3881122,14.9892646 C78.380004,14.4862522 78.3475712,13.4828845 78.3475712,12.3708363 C78.3448685,11.5999757 78.3908149,10.421497 78.3962204,9.85471114 C78.3989231,9.70138933 78.380004,9.59244315 78.380004,9.54859896 L78.0016218,9.55577347 C77.9989191,9.67827148 77.969189,9.8589627 77.969189,9.8589627 C77.9367563,10.2814613 77.8151334,10.8214092 77.7178351,11.3911179 C77.6908078,11.4620658 77.6718887,11.5611803 77.6718887,11.5611803 C77.628645,11.5755293 76.4421465,11.6377083 76.33674,11.6369111 C76.2961991,11.6366454 74.5691546,11.6842097 74.5394245,11.6842097 L67.9015194,11.6597633 L67.9123303,2.25053385 C67.9123303,2.25056043 68.7555821,2.22127782 68.9907196,2.22252671 C69.9474861,2.22268615 71.5042586,2.21412989 73.0907612,2.21630881 C75.4124064,2.21907232 77.6664833,2.23328847 77.6718887,2.23653028 C77.6854024,2.24304048 78.3718958,2.25242048 78.3854095,2.26403255 C78.4016258,2.27673408 79.261094,2.30200428 79.471907,2.30867391 C79.471907,2.30867391 79.4881233,2.37871833 79.4989343,2.46696473 C79.5935298,3.45903923 79.671909,4.63725225 79.7070445,5.05470211 L79.7097472,5.22184148 L80.0638048,5.22077859 C80.0638048,4.60988285 80.0313721,2.73903787 80.0259666,1.54876105 C80.0232639,1.16646627 80.0313721,0.85514593 80.0313721,0.678015393 L80.0313721,0.526473921 L80.0313721,0.526473921 Z" id="Shape"></path>
                </g>
                <rect id="Rectangle" x="0" y="0" width="114" height="48"></rect>
            </g>
        </g>
    </g>
</svg>