<svg xmlns="http://www.w3.org/2000/svg" width="18" height="15" viewBox="0 0 18 15">
    <g fill="#FFF" fill-rule="evenodd">
        <path d="M17.803 2.752l-.01-.009-.007-.003-5.36-2.66a.6.6 0 0 0-.26-.06.615.615 0 0 0-.521.28L8.559 5.28l3.873 6.247 5.387-8.69a.064.064 0 0 0-.016-.084M6.859 4.145V9.81l5.074 2.519L6.86 4.145M12.696 12.708l4.177 2.073c.544.27.984.08.984-.422V4.384l-5.161 8.324M5.978 2.76L.742.16A.604.604 0 0 0 .476.092c-.23 0-.39.176-.39.472v11.22c0 .3.221.656.492.79l4.611 2.288c.119.059.231.087.333.087.287 0 .488-.22.488-.59V2.811a.057.057 0 0 0-.032-.051"/>
    </g>
</svg>
