<svg xmlns="http://www.w3.org/2000/svg" width="18" height="18" viewBox="0 0 18 18">
    <path fill="#FFF" fill-rule="nonzero" d="M13.295 15.374c-.078-.463-.487-2.72-1.496-5.489 2.482-.397 4.631.284 4.79.336a7.688 7.688 0 0 1-3.294 5.153zm-4.294 1.313a7.656 7.656 0 0 1-4.898-1.762c.102.082.173.134.173.134s1.473-3.213 6.032-4.801c.017-.007.035-.01.052-.016 1.081 2.81 1.527 5.163 1.641 5.835a7.661 7.661 0 0 1-3 .61zM1.313 8.999c0-.081.005-.161.007-.242.136.003 3.934.089 7.891-1.095.22.43.43.87.624 1.307a5.228 5.228 0 0 0-.303.092C5.384 10.4 3.28 14.132 3.28 14.132l.003.004A7.656 7.656 0 0 1 1.313 9zm4.408-6.95a45.974 45.974 0 0 1 2.854 4.429c-3.69.98-6.894.941-7.096.938A7.689 7.689 0 0 1 5.72 2.05zm8.356 1.184c-.02.029-1.114 1.695-4.016 2.782a39.053 39.053 0 0 0-2.872-4.484 7.655 7.655 0 0 1 6.888 1.702zm2.607 5.69c-.11-.024-2.712-.584-5.353-.252-.055-.13-.109-.263-.166-.395-.16-.377-.332-.75-.511-1.116 3.035-1.239 4.267-3.02 4.282-3.041a7.656 7.656 0 0 1 1.748 4.804zm1.134-1.734a9.032 9.032 0 0 0-1.356-3.22 8.994 8.994 0 0 0-2.43-2.43 8.973 8.973 0 0 0-1.528-.831 9.017 9.017 0 0 0-8.537.83 9.056 9.056 0 0 0-2.43 2.43A8.954 8.954 0 0 0 0 9a8.91 8.91 0 0 0 .708 3.504c.225.534.506 1.05.83 1.53.323.477.692.923 1.098 1.332a9.017 9.017 0 0 0 2.86 1.927c.545.23 1.115.406 1.693.524a8.954 8.954 0 0 0 3.624 0 8.864 8.864 0 0 0 3.22-1.354 9.137 9.137 0 0 0 1.333-1.097 9.104 9.104 0 0 0 1.097-1.331 8.987 8.987 0 0 0 1.356-3.22 9.106 9.106 0 0 0 0-3.625z"/>
</svg>
