<svg xmlns="http://www.w3.org/2000/svg" width="18" height="18" viewBox="0 0 18 18">
    <path fill="#FFF" fill-rule="nonzero" d="M14.31 8.01C11.43 6.3 6.615 6.12 3.87 6.975a.844.844 0 0 1-1.035-.54.844.844 0 0 1 .54-1.035c3.195-.945 8.46-.765 11.79 1.215.405.225.54.765.315 1.17-.225.315-.765.45-1.17.225m-.09 2.52c-.225.315-.63.45-.945.225C10.845 9.27 7.155 8.82 4.32 9.72c-.36.09-.765-.09-.855-.45-.09-.36.09-.765.45-.855C7.2 7.425 11.25 7.92 14.04 9.63c.27.135.405.585.18.9m-1.08 2.475c-.18.27-.495.36-.765.18-2.115-1.305-4.77-1.575-7.92-.855-.315.09-.585-.135-.675-.405-.09-.315.135-.585.405-.675 3.42-.765 6.39-.45 8.73.99.315.135.36.495.225.765M9 0C4.05 0 0 4.05 0 9s4.05 9 9 9 9-4.05 9-9-4.005-9-9-9"/>
</svg>
