<svg xmlns="http://www.w3.org/2000/svg" width="18" height="15" viewBox="0 0 18 15">
    <path fill="#FFF" fill-rule="evenodd" d="M17.99 3.468c-.077 1.69-1.303 4.001-3.667 6.934C11.876 13.468 9.803 15 8.108 15c-1.048 0-1.936-.932-2.66-2.803L3.993 7.054c-.54-1.87-1.117-2.806-1.735-2.806-.135 0-.604.273-1.412.82L0 4.014c.887-.751 1.761-1.506 2.624-2.258C3.804.77 4.693.251 5.285.196 6.682.066 7.544.99 7.87 2.962c.346 2.131.59 3.456.724 3.975.404 1.766.846 2.647 1.331 2.647.376 0 .941-.57 1.695-1.712.753-1.144 1.154-2.012 1.21-2.611.107-.988-.296-1.478-1.21-1.478-.431 0-.876.088-1.332.272.89-2.78 2.583-4.13 5.085-4.052 1.853.05 2.728 1.207 2.619 3.465"/>
</svg>
