<svg xmlns="http://www.w3.org/2000/svg" width="24" height="24" viewBox="0 0 24 24">
    <path fill="#FFF" fill-rule="evenodd" d="M12 0C5.375 0 0 5.372 0 12c0 4.913 2.955 9.135 7.184 10.991-.034-.837-.005-1.844.208-2.756l1.544-6.538s-.383-.766-.383-1.9c0-1.778 1.032-3.106 2.315-3.106 1.09 0 1.618.82 1.618 1.803 0 1.096-.7 2.737-1.06 4.257-.3 1.274.638 2.312 1.894 2.312 2.274 0 3.805-2.92 3.805-6.38 0-2.63-1.771-4.598-4.993-4.598-3.64 0-5.907 2.714-5.907 5.745 0 1.047.307 1.784.79 2.354.223.264.253.368.172.67-.056.219-.189.752-.244.963-.08.303-.326.413-.6.3-1.678-.684-2.458-2.52-2.458-4.585 0-3.408 2.875-7.497 8.576-7.497 4.582 0 7.598 3.317 7.598 6.875 0 4.708-2.617 8.224-6.476 8.224-1.294 0-2.514-.7-2.931-1.494 0 0-.698 2.764-.844 3.298-.254.924-.752 1.85-1.208 2.57 1.08.318 2.22.492 3.4.492 6.628 0 12-5.372 12-12S18.628 0 12 0"/>
</svg>
